<svg width="20" height="39" viewBox="0 0 20 39" fill="none" xmlns="http://www.w3.org/2000/svg">
<path d="M3.48473 0C3.55473 0.05 3.64473 0.0901172 3.73473 0.120117C3.79473 0.140116 3.86516 0.159689 3.92516 0.179688C4.04497 0.219621 4.14485 0.250163 4.09508 0.379883C4.31452 0.409687 4.28482 0.280148 4.22496 0.25C4.48486 0.269983 4.68522 0.270176 4.92516 0.200195C4.99598 0.249835 5.3451 0.220747 5.70445 0.400391C6.06445 0.570391 6.30453 0.920078 6.28453 1.08008C6.28453 0.860177 6.35484 1.05967 6.48473 1.17969C6.5046 1.10997 6.50426 1.05017 6.50426 0.980469C6.57421 1.11038 6.63495 1.22991 6.68492 1.33984C6.72357 1.39782 6.72492 1.4186 6.72496 1.41992C6.73754 1.45138 6.71288 1.45256 6.69859 1.48047H6.73082C6.72588 1.48418 6.71071 1.48917 6.68981 1.49805C6.68668 1.51435 6.68708 1.53733 6.69469 1.57031C6.70368 1.59275 6.71298 1.60896 6.72106 1.62109C6.76996 1.59072 6.84939 1.5517 6.92516 1.54004C7.06501 1.52015 7.19454 1.55041 7.24449 1.61035C6.96476 1.51047 6.97475 1.61989 7.07457 1.66992C7.20453 1.69991 7.30491 1.75958 7.39488 1.80957L7.36461 1.62988C8.22454 2.09984 8.64475 2.81982 9.19469 3.50977C9.08469 3.57977 9.57461 4.00004 9.36461 4.04004V4C9.30242 3.9334 9.281 3.95152 9.28551 4.00293C9.3386 4.07056 9.3885 4.13393 9.43199 4.19141C9.5132 4.19162 9.70217 4.30962 9.515 4.04004L9.80504 4.25977C9.99484 4.24998 10.1045 4.43028 10.2045 4.66016C10.2744 4.81015 10.2448 4.81039 10.2748 4.90039C10.2943 4.9584 10.3694 5.04418 10.3744 5.0498L10.3949 5.03027C10.375 5.05017 10.355 5.07971 10.3548 5.08984C10.4947 4.95997 10.525 4.98042 10.725 4.94043C10.9548 4.90047 11.1349 4.9003 11.1849 4.86035L11.2445 4.9502C11.4345 4.8402 11.5652 4.78027 11.7152 4.78027C11.8552 4.79019 12.0849 4.77045 12.3646 5.08008C12.3444 5.07992 12.265 5.04038 12.3343 5.13965C12.5043 5.19965 12.5052 5.15027 12.7152 5.28027L12.6947 5.2998C12.8147 5.3498 12.9451 5.38992 13.0951 5.41992C13.0551 5.56992 13.2547 5.57031 13.4847 5.57031C13.6647 5.55031 14.1143 5.62031 14.0843 5.82031C14.1543 5.81032 14.2444 5.86011 14.3343 5.95996C14.4843 6.11996 14.5649 6.20004 14.6449 6.29004C14.6349 6.29004 14.6351 6.30993 14.6351 6.33984C14.8848 6.42006 14.8746 6.84008 14.9945 7.04004C15.1045 7.18004 15.1351 7.1 15.1351 7C15.1651 7.20999 15.3144 7.45022 15.4144 7.7002C15.5244 7.95018 15.5345 8.17047 15.4945 8.23047C15.3947 8.4896 15.3547 8.27003 15.2748 8.2998C15.2611 8.32877 15.2527 8.35445 15.2455 8.37598C15.2979 8.39921 15.3414 8.41634 15.3783 8.42676C15.3414 8.41715 15.2963 8.40381 15.2445 8.37988C15.2249 8.44012 15.2294 8.47102 15.2445 8.49316C15.3335 8.4839 15.4232 8.4842 15.4945 8.5C15.5766 8.51823 15.6489 8.55269 15.6234 8.65723C15.6901 8.55665 15.727 8.46269 15.7025 8.38086C15.6872 8.36313 15.6752 8.34961 15.6752 8.34961C15.6679 8.34235 15.661 8.32464 15.6576 8.31543L15.6556 8.31738C15.6669 8.35874 15.64 8.34616 15.6293 8.34082L15.5121 8.44629C15.5096 8.44628 15.5063 8.44525 15.5023 8.44531L15.6312 8.33203L15.6546 8.30957V8.31152H15.6556C15.6553 8.31048 15.6546 8.30957 15.6546 8.30957L15.6752 8.29004L15.6771 8.29199L16.0043 8.00977L15.681 8.2959C15.6825 8.29711 15.6833 8.29938 15.6849 8.30078L16.015 8.00977C16.0345 8.03902 16.0634 8.08747 16.0648 8.08984L16.0043 8.02051L15.6859 8.30078C15.7211 8.3309 15.7845 8.40039 15.7845 8.40039L15.7601 8.43262L15.7855 8.46484C16.3696 9.22652 18.7296 12.5712 19.1146 17.3398V17.3496C19.1355 17.608 19.1514 17.8543 19.1664 18.0879C19.2519 17.9347 19.3336 17.7994 19.4252 17.9502L19.3851 17.7305C19.5145 17.7917 19.4447 18.4104 19.5746 18.5303L19.475 19.2305C19.515 19.2105 19.5948 19.32 19.6048 19.21C19.6148 19.38 19.6249 19.5298 19.6849 19.2998C19.5849 19.8998 19.5552 20.5004 19.5052 21.1104C19.4752 21.4202 19.4444 21.7201 19.3744 22.04C19.3444 22.2 19.3049 22.3603 19.225 22.5303C19.195 22.6202 19.1447 22.7099 19.0648 22.7998C18.9923 22.8578 18.9455 22.9453 18.7884 22.9863C18.787 22.9934 18.7845 23.001 18.7845 23.0098C18.7745 23.0697 18.7753 23.1498 18.7953 23.2598C18.8553 23.5298 18.7644 23.9204 18.6244 24.1104C18.5947 24.2195 18.6546 24.1803 18.7045 24.1504C18.475 24.3701 18.6546 24.4304 18.6146 24.5703C18.5047 24.6802 18.4145 24.7805 18.3246 24.9004C18.3247 25.0799 18.4147 24.9605 18.4447 24.9805C18.2947 25.7702 17.9646 26.5399 17.8646 27.2197C17.7346 27.4097 17.7451 27.1304 17.6351 27.4004C17.9451 27.0804 17.4451 28.23 17.6351 28.04C17.4951 28.14 17.3747 28.3803 17.2347 28.5703C17.0849 28.76 16.9549 28.8698 16.8949 28.7305C16.6554 28.9801 16.7844 29.0197 16.8744 28.96C16.7345 29.0999 16.6144 29.2197 16.4945 29.3496C16.4345 29.4196 16.3743 29.5902 16.3343 29.7402C16.1737 29.9018 15.4741 31.3099 15.1244 31.5098C15.3544 31.3798 15.1748 31.56 15.1048 31.79L15.305 31.6699L15.0248 32.1104C14.9848 32.2001 14.9545 32.2197 14.9545 32.2197C14.9045 32.2897 14.9147 32.16 14.7748 32.3398C14.5848 32.6298 14.6343 32.6799 14.5843 32.8799L14.6244 32.8398L14.515 33.0498C14.425 33.1898 14.7349 32.4502 14.3949 32.9102C14.4146 32.9314 14.3744 33.2995 14.225 33.3896C14.3846 33.1401 14.2951 33.1304 14.2152 33.2002L13.9945 33.5498L14.1849 33.5205C14.095 33.6604 14.0044 33.8003 13.9144 33.9502L13.5472 33.8633C13.5691 33.8961 13.6256 33.9807 13.6449 34C13.6349 34 13.6148 34.0203 13.6048 34.0303C13.5349 34.0903 13.4443 34.2001 13.3744 34.29C13.2044 34.5099 13.0045 34.6997 12.8246 34.8896C12.4646 35.2396 12.145 35.6503 11.765 36.0703C11.705 35.9804 11.0958 36.7089 11.055 36.4805L11.1048 36.46C11.3247 36.2401 10.9453 36.4104 10.7552 36.5703C11.0146 36.4608 10.475 37.0095 11.0248 36.6396C10.9048 36.7696 10.7748 36.8898 10.6449 37.0098C10.6049 37.2498 10.3247 37.3898 9.98473 37.5498C9.80479 37.6398 9.60511 37.7303 9.42516 37.8203C9.23692 37.905 9.05676 38.0226 8.74449 38.0781C8.7895 38.065 8.79757 38.0475 8.80504 38.04C8.68504 38.08 8.48457 38.08 8.32457 38C8.15474 37.93 8.06468 37.8001 7.98473 37.7002C7.92473 37.6002 7.90453 37.58 7.78453 37.5C7.54457 37.38 7.24439 37.1598 7.16442 37.0898C7.16446 37.0399 7.18492 36.9999 7.18492 36.96C6.89509 36.7201 6.82498 36.5102 6.765 36.3203C6.715 36.1203 6.69449 35.9098 6.74449 35.5498C6.76448 35.5598 6.79481 35.6399 6.81481 35.5303C6.75482 35.3503 6.68467 35.1601 6.78453 34.6904L6.81481 34.71C6.85477 34.4702 6.89453 34.2203 6.95445 33.9805C7.23443 34.0605 7.12487 32.7105 7.52477 32.6104C7.49477 32.4504 7.64465 31.9403 7.69469 31.7002C7.70469 31.7002 7.72524 31.6902 7.75524 31.6602C7.70524 31.3402 8.10445 30.9296 8.20445 30.6396C8.24432 30.44 8.1643 30.4996 8.08434 30.5596C8.37422 30.2497 8.23496 29.5905 8.31481 29.4502C8.38481 29.1902 8.45453 29.3696 8.53453 29.3096C8.57428 28.8903 8.25527 29.3296 8.4652 28.7998C8.47517 28.8597 8.45505 28.9795 8.48473 28.9404C8.54473 28.7404 8.94488 28.3999 8.89488 28.1699L8.82457 28.3096C8.7949 27.9098 9.16465 27.3898 8.9652 27.3096L8.86461 27.3398C9.03454 26.6701 8.84457 27.0499 8.99449 26.3701H9.015C9.005 26.0602 9.12484 25.9 8.97496 25.75L8.95445 25.8496C8.94447 25.48 8.95445 25.4394 8.95445 25.0596C8.93447 25.0186 8.90517 24.8303 8.93492 24.7803C8.81503 24.7603 8.82476 23.9015 8.81481 23.7305C8.85478 24.0298 8.89473 23.88 8.94469 23.79C8.82471 23.6201 8.79508 23.5 8.84508 23.25C8.68508 23.24 8.51442 23.2098 8.41442 22.7598C8.44442 22.8198 8.48524 22.9299 8.50524 22.8799C8.52498 22.8199 8.47448 22.7205 8.45445 22.6904C8.47445 22.6404 8.53457 22.7797 8.57457 22.7197C8.36486 22.4498 8.45442 22.1797 8.24449 21.7998C8.33449 21.9098 8.32484 21.7897 8.35484 21.7197C8.18484 21.7697 8.23508 21.0603 8.09508 21.3203C7.84516 20.4006 7.18538 19.0909 7.18492 18.6904C7.20492 18.5704 7.00469 18.37 6.94469 18.21H7.02477C6.71481 17.85 6.84448 17.8802 6.49449 17.4902C6.67449 17.6302 6.67488 17.5296 6.64488 17.3096L6.32457 17.0596L6.39488 16.9404C6.287 16.8227 6.21715 16.6566 6.16734 16.4805C6.01934 16.4149 5.87272 15.9895 5.84508 15.75C5.83516 15.7202 5.81511 15.6909 5.79527 15.6904C5.93497 15.5705 5.61544 15.3903 5.69469 15.2305C5.64473 15.2005 5.59524 15.1498 5.54527 15.0898C5.52528 15.1998 5.46516 15.2599 5.42516 15.1201C5.42292 15.1179 5.42142 15.1142 5.4193 15.1113L5.38512 15.1904C5.3168 15.2489 5.31396 15.0309 5.27672 14.8252C5.30437 14.8986 5.34186 14.9874 5.40953 15.0781L5.45445 14.9902C5.36461 14.8704 5.26528 14.7404 5.2152 14.6504C5.23503 14.7001 5.24529 14.7499 5.25524 14.8096C5.24522 14.7496 5.22441 14.68 5.20445 14.6201C5.19455 14.6003 5.17555 14.5804 5.17516 14.5703C5.18491 14.5801 5.19442 14.5899 5.19469 14.5996C5.17466 14.5097 5.13438 14.4194 5.03453 14.3096C4.98446 14.0898 4.85463 13.8899 4.73473 13.6201C4.68473 13.4901 4.61484 13.3499 4.60484 13.1299C4.57862 12.9634 4.6514 12.6891 4.82457 12.4961C4.8859 12.402 4.95979 12.3199 5.04527 12.25C4.97527 12.32 4.89465 12.4305 4.90465 12.4805C4.97844 12.352 5.0636 12.2336 5.15367 12.124C5.13697 12.1288 5.12098 12.1348 5.10484 12.1396C5.05491 12.1396 5.00499 12.1595 4.92516 12.1396C4.85516 12.1096 4.80504 12.0596 4.80504 12.0596L4.77477 12.1699C4.67478 12.0799 4.59449 12.0396 4.49449 11.8096L4.40465 11.9404C4.36465 11.8604 4.3343 11.7098 4.2943 11.5498C4.28429 11.3499 4.26472 11.1497 4.23473 10.9697C4.17481 10.6101 4.14462 10.2405 4.25426 10.0703C4.20441 10.0202 4.22432 9.84011 4.25426 9.65039C4.29426 9.48039 4.35438 9.31973 4.37438 9.21973L4.4652 9.19043C4.57517 8.9405 4.63523 8.82032 4.7152 8.65039C4.72746 8.64106 4.73846 8.63037 4.75035 8.62109C4.79086 8.5028 4.89029 8.42938 4.97496 8.37012C4.91455 8.43053 4.87276 8.49134 4.83629 8.55176C4.94 8.46563 5.02642 8.38031 5.10484 8.2998C5.06281 8.32007 5.01491 8.34362 4.9652 8.37012C5.02727 8.31693 5.1051 8.25612 5.19859 8.20117C5.35347 8.03081 5.47293 7.87766 5.60484 7.74023H5.62438L5.82457 7.42969C5.81457 7.53969 5.83516 7.33953 5.92516 7.26953C5.9753 7.14975 6.10499 7.02032 6.23473 6.94043L6.39488 6.75C6.26505 6.99969 6.4943 6.81024 6.57457 6.84961L6.62438 6.67969C6.70426 6.65972 6.61513 6.80966 6.70445 6.73047C6.72443 6.68052 6.77479 6.59031 6.86461 6.48047C6.9146 6.43048 6.95461 6.36979 7.07457 6.2998C7.07776 6.29742 7.08151 6.29534 7.08531 6.29297C7.06809 6.28039 7.05133 6.26817 7.03453 6.25977C7.01447 6.24862 7.0034 6.24083 6.99742 6.23633C6.89602 6.29032 6.87015 6.31187 6.84508 6.32031C6.91268 6.27202 6.94278 6.24214 7.05309 6.2041C7.05665 6.19939 7.06053 6.19473 7.06481 6.19043C7.07013 6.18333 7.07718 6.17708 7.08336 6.16992C7.0673 6.17323 7.05349 6.17601 7.0443 6.17969C7.00661 6.19858 7.03195 6.20015 7.03453 6.2002H6.99449C7.01434 6.18035 7.0246 6.17969 7.0443 6.17969C7.05728 6.16671 7.08192 6.15215 7.11168 6.13867C7.11466 6.13595 7.11725 6.13265 7.12047 6.12988C7.07865 6.14482 7.04401 6.16573 6.98473 6.19043C7.03681 6.15729 7.08827 6.13417 7.13512 6.11914C7.15827 6.10089 7.18707 6.08062 7.22496 6.05957C7.15219 6.10462 7.13936 6.07094 7.14391 6.01074C7.12392 6.03074 7.09421 6.06101 7.08434 6.11035V5.98047L7.09508 5.99023C7.08535 6.01969 7.12368 6.01002 7.14391 6.00977C7.15282 5.89613 7.22501 5.69178 7.09508 5.75C7.23474 5.64019 7.10502 5.6698 7.22496 5.58984C7.19767 5.7536 7.27527 5.93453 7.30504 6.09375C7.34133 6.09464 7.34774 6.09848 7.30602 6.09863L7.30699 6.09961H7.34899C7.37764 6.0667 7.40627 6.03582 7.43492 6C7.51505 6.08597 7.45279 6.18755 7.38609 6.27246L7.35973 6.37891C7.35557 6.37818 7.35119 6.37937 7.34703 6.37891L7.33531 6.42285C7.33564 6.42717 7.34139 6.43334 7.34508 6.44141L7.35973 6.37891C7.36136 6.37919 7.36298 6.37956 7.36461 6.37988L7.34801 6.44629L7.34703 6.44922L7.32164 6.5498C7.33454 6.55376 7.3493 6.55883 7.36461 6.57031C7.34461 6.53032 7.39516 6.54021 7.42516 6.49023C7.4251 6.52015 7.41518 6.5498 7.42516 6.5498C7.38425 6.59071 7.3899 6.56568 7.31676 6.57129L7.31481 6.58008V6.57129C7.29897 6.5726 7.27951 6.57489 7.25524 6.58008L7.24449 6.57031C7.23829 6.56958 7.2608 6.54174 7.30211 6.54492L7.30602 6.53027C7.30288 6.52038 7.2972 6.50892 7.29332 6.49805C7.29982 6.50768 7.30446 6.51706 7.30797 6.52637L7.33434 6.42285V6.4209L7.34606 6.37891C7.33164 6.37736 7.3175 6.37704 7.30309 6.37793C7.29161 6.39458 7.28456 6.40895 7.28453 6.41992C7.2825 6.40754 7.2865 6.39315 7.29332 6.37793C7.26732 6.38028 7.2412 6.38445 7.2152 6.38965C7.21167 6.39082 7.20798 6.39322 7.20445 6.39453C7.20116 6.39144 7.1981 6.38797 7.19469 6.38477V6.38965C7.19655 6.39151 7.19863 6.39362 7.20055 6.39551C7.14557 6.41667 7.09298 6.45286 7.07457 6.48047C7.01501 6.54014 6.99499 6.58989 6.9652 6.63965C7.13416 6.54057 6.86501 6.86021 7.02477 6.82031C7.05476 6.78032 7.08462 6.74995 7.11461 6.70996C7.15915 6.7036 7.1462 6.74958 7.12633 6.80469C7.23234 6.69203 7.31219 6.63434 7.37438 6.65039C7.47192 6.67584 7.60113 6.45425 7.67418 6.13867C7.65478 6.19642 7.63056 6.24837 7.60484 6.2998C7.62484 6.25971 7.65465 6.16992 7.65465 6.16992L7.67418 6.13574C7.71927 5.93969 7.74315 5.70787 7.72301 5.47559C7.60684 5.47121 7.50831 5.17019 7.43492 5.28027C7.45492 5.17027 7.53442 5.18 7.41442 5C7.29477 4.92056 7.36454 5.19004 7.32457 5.25C7.235 5.13061 7.20503 5.15992 7.17516 5.16016C7.26516 5.02015 7.41507 4.75973 7.55504 4.88965C7.56205 5.02289 7.61853 5.15104 7.67906 5.21582C7.63402 5.03218 7.55822 4.85668 7.43492 4.70996C7.41806 4.68925 7.39926 4.66776 7.38024 4.64453C7.425 4.72727 7.35119 4.6865 7.28453 4.61035L7.31481 4.58008C7.32566 4.58552 7.34085 4.60139 7.35387 4.61328C6.70832 3.82794 4.9794 1.83384 3.74449 2.36035C2.45478 2.91021 2.43505 2.81052 2.09508 3.48047L2.08434 3.46973C2.08434 3.46973 2.14987 3.6583 2.13219 3.83691C2.18537 3.799 2.23156 3.78736 2.27477 3.87988C2.27476 3.80992 2.26425 3.73965 2.25426 3.67969C2.31426 3.69969 2.34477 3.86031 2.27477 4.07031C2.20468 4.30999 1.92463 4.44951 1.87438 4.51953C1.72461 4.53942 1.59476 4.50047 1.52477 4.48047L1.40465 4.44043L1.33434 4.41016V4.4834L1.37438 4.5L1.41149 4.51172C1.4023 4.51108 1.39594 4.50977 1.39488 4.50977L1.34508 4.49023C1.3413 4.48897 1.33812 4.48496 1.33434 4.4834V4.5H1.265C1.22513 4.5 1.20486 4.5097 1.18492 4.50977C1.15493 4.51976 1.16465 4.54033 1.28453 4.57031C0.844614 4.52031 0.494693 4.42965 0.234728 4.17969C-0.0450625 3.9297 -0.06549 3.4999 0.124376 3.20996C0.204364 3.06998 0.374326 2.86007 0.374376 2.79004C0.394373 2.71005 0.395171 2.62009 0.425157 2.41016C0.455142 2.22025 0.544822 2.03039 0.694689 1.90039C0.844469 1.7606 1.04414 1.70016 1.12438 1.66016C1.16438 1.62016 1.10457 1.59984 1.07457 1.58984C1.27452 1.59984 1.14458 1.45989 1.20445 1.37988C1.31445 1.34988 1.47484 1.29004 1.60484 1.29004C1.7048 1.17007 1.57457 1.17965 1.57457 1.13965C1.73457 1.04965 1.88477 0.99996 2.02477 0.959961C2.16449 0.92004 2.21455 0.909941 2.2943 0.870117C2.44425 0.800141 2.52466 0.640099 2.74449 0.320312C2.93435 0.230382 2.79496 0.44967 3.00426 0.320312C2.82503 0.339967 2.94492 0.190067 3.15465 0.120117C3.36465 0.0501172 3.60473 0.07 3.48473 0ZM14.9945 32.0898C15.0045 32.0399 15.0049 31.9805 14.9349 32.1504L14.9945 32.0898ZM7.69469 31.5498C7.71465 31.5399 7.71466 31.59 7.69469 31.6699C7.68474 31.6698 7.68471 31.6297 7.69469 31.5498ZM9.08434 23.1865C9.06263 23.1944 9.04527 23.2256 9.03453 23.29C9.04451 23.32 9.06455 23.3499 9.07457 23.3799C9.00466 23.31 8.95468 23.2701 8.94469 23.3301C8.98465 23.4899 9.0348 23.6497 9.06481 23.8096C9.07392 23.7643 9.0989 23.6864 9.13317 23.5908C9.13058 23.5663 9.12806 23.5419 9.12535 23.5176C9.10199 23.4656 9.08061 23.4194 9.06481 23.3799C9.07777 23.3972 9.09851 23.4218 9.11754 23.4443C9.10734 23.3573 9.09618 23.2714 9.08434 23.1865ZM15.6459 23.0732C15.651 23.0816 15.6564 23.0899 15.6615 23.0986C15.6782 23.1036 15.6926 23.1103 15.7045 23.1104H15.6693C15.6711 23.1136 15.6734 23.1168 15.6752 23.1201C15.6935 23.1547 15.7163 23.1712 15.7406 23.1797C15.7489 23.1623 15.7552 23.1451 15.7552 23.1299H15.7152C15.7542 23.1168 15.7762 23.0952 15.7923 23.0791C15.7909 23.0716 15.7873 23.0636 15.7836 23.0537C15.7541 23.0336 15.7108 22.9936 15.6849 22.9805C15.6767 22.997 15.6619 23.0333 15.6459 23.0732ZM15.5746 22.7305C15.6644 22.8403 15.7342 22.9501 15.7045 22.9004C15.6773 22.8642 15.658 22.8391 15.6439 22.8203C15.6241 22.7948 15.6003 22.7661 15.5746 22.7305ZM18.6644 22.7705L18.6849 22.8096L18.7045 22.8398L18.7162 22.8564C18.6605 22.7536 18.6006 22.6438 18.6644 22.7598V22.7705ZM14.9545 12.3096C14.8845 12.3696 14.8047 12.59 14.7347 12.75H14.4545C14.4645 12.79 14.4951 12.8099 14.5951 12.8799C14.6044 12.8704 14.5747 12.8905 14.5648 12.9004C14.5654 12.92 14.6151 12.9199 14.6449 12.9199C14.5153 12.9399 14.6933 12.9798 14.7045 13.0098C14.6445 13.0397 14.5847 13.0704 14.5248 13.1104C14.5746 13.16 14.6245 13.1301 14.6644 13.1299C14.6944 13.3499 14.5547 13.61 14.6947 13.79C14.6447 13.8599 14.5455 13.8002 14.5453 13.8896C14.7048 13.7407 14.6854 14.1097 14.7953 14.0098C14.6253 14.1298 14.8446 14.2996 14.5746 14.3496C14.5946 14.4496 14.715 14.3896 14.725 14.3496C14.755 14.4696 14.7946 14.5604 14.9046 14.6104C14.8951 14.6506 14.955 14.7604 15.0248 14.8701C15.1047 14.9901 15.1746 15.15 15.1146 15.25C15.1846 15.12 15.175 15.2295 15.265 15.2695L15.3343 15.1504L15.4046 15.3203C15.4246 15.3403 15.4252 15.3604 15.4252 15.3604C15.4248 15.3999 15.3648 15.3903 15.3646 15.4697C15.4046 15.5797 15.465 15.5596 15.555 15.5996V15.5801L15.5951 15.6504C15.6137 15.6988 15.4052 15.4908 15.4252 15.7002C15.456 15.6907 15.6442 15.7503 15.5843 15.8301C15.5548 15.7318 15.468 15.8176 15.4652 15.8203L15.5052 15.96L15.6244 15.8701C15.7543 16.26 15.745 16.6797 15.8548 17.0596C15.7248 17.0896 15.9245 17.3296 15.7445 17.3496V17.3301C15.7045 17.2403 15.615 17.3996 15.6546 17.4697C15.6849 17.3703 15.8748 17.5796 15.8451 17.3604L15.975 17.5098C16.3546 17.5399 16.0351 17.9797 16.1546 18.2197C16.1348 18.2 16.1148 18.2002 16.1048 18.2002C16.2345 18.4299 16.0154 18.7092 16.0746 18.7598L15.975 18.7803C16.1147 18.9699 16.1249 19.0001 16.055 19.2197C16.0351 19.2197 16.0047 19.19 15.9847 19.2197C16.0547 19.2797 16.1251 19.3402 16.0951 19.4902H16.0648V19.7305C15.7648 19.7105 16.2246 20.1296 15.8949 20.1797C15.9831 20.2189 16.0049 20.3924 16.0433 20.4746C16.0609 20.4827 16.0818 20.5065 16.0843 20.5098C16.0676 20.5096 16.0531 20.5015 16.0423 20.4814C16.0319 20.4829 16.0145 20.4909 16.0052 20.5C16.1647 20.61 15.9447 20.7702 15.9447 20.8701C15.9746 20.9399 16.0344 20.9096 16.0843 20.8896C15.9446 21.0096 16.1948 21.2801 16.1351 21.3203C16.115 21.42 16.0146 21.3404 15.9447 21.3604C15.9551 21.5098 16.2244 21.37 16.0746 21.5498C16.0745 21.5299 16.0649 21.4908 16.0453 21.5C16.0153 21.57 15.6445 21.6505 15.7045 21.7305L15.765 21.6904C15.8241 21.8401 15.4657 21.9496 15.6644 22.0195H15.765C15.585 22.2195 15.7746 22.1303 15.6146 22.3203H15.6048C15.6045 22.3901 15.4853 22.4298 15.6351 22.4697L15.6546 22.4502C15.6546 22.53 15.6447 22.5402 15.6546 22.6201C15.6746 22.6201 15.7047 22.6499 15.6849 22.6699C15.6992 22.6652 15.7117 22.6638 15.723 22.6641C15.7317 22.6497 15.74 22.6328 15.7445 22.6104C15.7645 22.68 15.8048 22.6598 15.8646 22.6797C15.7153 22.5699 16.1042 22.5995 15.8744 22.5195C16.1442 22.3496 16.2646 21.8606 16.4545 21.8301C16.5245 21.8401 16.4847 21.6797 16.4847 21.6797L16.555 21.7197C16.4651 21.5399 16.5444 21.6001 16.4545 21.4102C16.5244 21.5 16.5747 21.4901 16.6644 21.4502L16.5345 21.3096H16.6546C16.6254 21.2507 16.6535 21.2109 16.683 21.1621C16.5643 21.0886 16.6084 20.9168 16.5345 20.8799C16.7145 20.8599 16.5152 20.7505 16.6752 20.7305C16.6552 20.7105 16.6344 20.6902 16.6244 20.6602C16.5445 20.6701 16.4653 20.6698 16.5052 20.6299V20.6104H16.6048C16.5849 20.5606 16.5843 20.5105 16.5843 20.4805C16.5739 20.4906 16.5364 20.5181 16.5345 20.5195L16.5843 20.4697C16.6043 20.4397 16.6143 20.4101 16.5843 20.3701C16.7443 20.2101 16.4051 20.0003 16.6048 19.8203C16.5849 19.8503 16.5749 19.8904 16.6048 19.9004C16.5948 19.7404 16.7246 19.59 16.6546 19.5H16.5648C16.5248 19.39 16.4945 19.3 16.4945 19.21H16.3949C16.4248 19.07 16.245 18.7903 16.4447 18.7002C16.3649 18.6702 16.4545 18.5107 16.4252 18.4404L16.5052 18.4102C16.5252 18.3104 16.4951 18.2503 16.4652 18.1904C16.6152 17.9805 16.4448 17.8001 16.4447 17.6201H16.4652L16.3949 17.4502C16.4744 17.49 16.3452 17.4202 16.3646 17.3604C16.3246 17.3104 16.3451 17.2096 16.3851 17.1396V17.0195C16.4033 17.0559 16.4201 17.0672 16.4379 17.0664C16.4344 17.0624 16.43 17.0597 16.4252 17.0596H16.4613C16.4955 17.0402 16.5338 16.992 16.5843 16.9805L16.5052 16.9199C16.545 16.8806 16.5751 16.9598 16.5951 16.9004C16.5451 16.8604 16.5247 16.6906 16.4349 16.6504C16.4149 16.6604 16.3944 16.68 16.3744 16.71C16.3643 16.7 16.3443 16.6904 16.3343 16.6904C16.3443 16.5804 16.3148 16.6299 16.2748 16.6299C16.4047 16.5099 16.315 16.4503 16.475 16.3604C16.2951 16.4802 16.4648 16.1209 16.2953 16.1904C16.435 16.1006 16.3052 16.1301 16.4252 16.0801C16.3852 16.1899 16.5242 16.2997 16.5843 16.3896L16.6644 16.2998C16.8241 16.3497 16.6055 16.4995 16.6644 16.5498C16.6251 16.5196 16.6947 16.4297 16.6947 16.4297L16.5746 16.46C16.5346 16.59 16.6345 16.6903 16.7045 16.7803C16.7345 16.6803 16.7846 16.8698 16.8646 16.7998L16.8451 16.7402C16.8556 16.7324 16.8658 16.731 16.8763 16.7334C16.8543 16.5045 16.8521 16.2472 16.8451 15.9912C16.7412 15.9747 16.6919 15.8365 16.6048 15.8799C16.6448 15.8301 16.7141 15.8401 16.6644 15.7305C16.5844 15.6705 16.5345 15.8304 16.4945 15.8604C16.4445 15.7804 16.4044 15.7803 16.3744 15.7803C16.5136 15.7107 16.7715 15.6312 16.8334 15.709C16.83 15.6579 16.8247 15.6074 16.8197 15.5576C16.8059 15.5951 16.765 15.5659 16.765 15.5098H16.805C16.811 15.5128 16.8129 15.5191 16.8158 15.5244C16.7958 15.3448 16.7639 15.176 16.7045 15.0303C16.5045 14.5403 16.4545 14.1996 16.2445 13.5996C16.0447 13.01 16.0843 12.9197 15.8343 12.5498H15.8246C15.7729 12.4754 15.7317 12.4152 15.6957 12.3643C15.642 12.4667 15.5908 12.5596 15.4945 12.5596L15.555 12.5996C15.4251 12.6496 15.4244 12.4298 15.3246 12.5195C15.3345 12.4597 15.325 12.3997 15.305 12.3398C15.2851 12.3798 15.2446 12.4399 15.2445 12.46C15.2147 12.45 15.1948 12.4403 15.1947 12.5195C15.204 12.4397 15.0553 12.3396 15.0052 12.3096C14.9953 12.2897 14.9943 12.2797 14.9545 12.3096ZM16.7953 21.6084C16.804 21.5834 16.8143 21.5585 16.8226 21.5322C16.7675 21.5203 16.7183 21.5081 16.6849 21.4902C16.7227 21.528 16.758 21.5689 16.7953 21.6084ZM16.6839 21.1621C16.6763 21.1801 16.6959 21.1797 16.7152 21.1797C16.7033 21.1752 16.6936 21.168 16.6839 21.1621ZM16.4945 20.5098C16.4745 20.5298 16.475 20.6104 16.475 20.6104H16.3851C16.2952 20.6104 16.4145 20.5597 16.4945 20.5098ZM16.8451 20.0703L16.7748 20.0996C16.8093 20.1687 16.9096 20.2413 17.0209 20.3066C17.0252 20.2364 17.0298 20.1646 17.0326 20.0908C16.9343 20.027 16.8406 19.9714 16.7748 19.9404L16.8451 20.0703ZM16.9105 19.2412C16.8545 19.3128 16.8018 19.3937 16.7953 19.4004C16.8366 19.4152 16.9291 19.4183 17.0365 19.417C17.0354 19.3611 17.0334 19.3045 17.0316 19.2471L16.9105 19.2412ZM17.0052 19.1396C16.9803 19.1575 16.9474 19.1948 16.9154 19.2354L17.0306 19.2236C17.0296 19.1929 17.0299 19.162 17.0287 19.1309C17.0209 19.1335 17.0127 19.1353 17.0052 19.1396ZM19.5853 18.9199C19.6053 19.0399 19.6048 19.1104 19.6048 19.1504C19.5948 19.0604 19.5853 18.9799 19.5853 18.9199ZM17.0052 18.5928C16.9818 18.6033 16.9406 18.6201 16.9144 18.6201C16.9284 18.6516 16.9664 18.6842 17.0111 18.7148C17.0091 18.6729 17.007 18.6323 17.0052 18.5928ZM16.4252 18.0498C16.4252 18.0997 16.4345 18.13 16.4545 18.1699C16.4445 18.18 16.4349 18.2002 16.4349 18.2002H16.4252C16.3752 18.1502 16.3952 18.0998 16.4252 18.0498ZM16.475 17.9199C16.5547 17.93 16.4849 17.9799 16.4349 18.0498C16.435 18.0198 16.445 17.9798 16.475 17.9199ZM19.6449 18L19.6146 17.9102L19.6752 17.75L19.6449 18ZM16.8744 17.1602C16.7944 17.1898 16.6842 17.1199 16.5843 17.2197C16.4743 17.4497 16.7945 17.3804 16.7845 17.6504C16.8039 17.68 16.6547 17.6104 16.7045 17.75C16.7647 17.8637 16.8661 17.9492 16.9769 17.9912C16.9695 17.8267 16.9648 17.6927 16.9584 17.5762L16.9437 17.3711C16.9385 17.4213 16.9271 17.4605 16.9046 17.4805C16.9346 17.4405 16.8646 17.3301 16.8646 17.3301L16.8246 17.4297C16.8149 17.3498 16.9243 17.27 16.8744 17.1602ZM16.8451 17.6904C16.8751 17.6704 16.8845 17.7104 16.9144 17.7305C16.9241 17.7702 16.8744 17.79 16.8744 17.79L16.8353 17.6904H16.8451ZM19.5951 17.46L19.4652 17.5303C19.4951 17.4804 19.4653 17.3803 19.4652 17.3203L19.5951 17.46ZM6.86266 17.2461C6.8123 17.2928 6.76494 17.3328 6.7152 17.3301C6.80919 17.383 6.90051 17.4424 6.99156 17.5039C6.9474 17.4081 6.90373 17.3228 6.86266 17.2461ZM19.5843 17.2305C19.5665 17.2379 19.6453 17.122 19.6849 17.3096C19.6648 17.2997 19.5846 17.3397 19.5843 17.2305ZM16.3343 16.8701C16.306 16.8991 16.4004 16.9004 16.4046 16.9004C16.4741 17.0397 16.2355 16.8607 16.3343 16.8701ZM16.3343 16.8301C16.3243 16.7901 16.3246 16.7698 16.3246 16.7598L16.3343 16.75V16.8301ZM16.3148 16.7002C16.2948 16.6602 16.3048 16.6602 16.3148 16.6602V16.7002ZM16.765 16.5303C16.7751 16.55 16.805 16.5498 16.805 16.5498L16.7845 16.6504H16.7748C16.745 16.6601 16.7649 16.5901 16.765 16.5303ZM16.6947 16.54C16.6748 16.54 16.6646 16.5402 16.6546 16.5303C16.6552 16.5305 16.675 16.54 16.6947 16.54ZM16.7552 16.4502C16.7749 16.4705 16.7748 16.5303 16.7748 16.5303C16.7548 16.5004 16.7552 16.4702 16.7552 16.4502ZM6.1732 16.4824C6.20401 16.5428 6.18624 16.5 6.20445 16.4902C6.19389 16.4902 6.18381 16.4864 6.1732 16.4824ZM16.3148 16.3301C16.2948 16.3501 16.2845 16.4102 16.2845 16.4102L16.2591 16.333C16.2712 16.3453 16.2965 16.3301 16.3148 16.3301ZM16.2591 16.333C16.2581 16.3319 16.2561 16.3317 16.2552 16.3301V16.3203L16.2591 16.333ZM16.6146 16.1104C16.6247 16.1702 16.6544 16.2305 16.5746 16.2305C16.5446 16.1705 16.5049 16.1104 16.6146 16.1104ZM16.8246 16.2305L16.7445 16.2002L16.8451 16.1699L16.8246 16.2305ZM16.6048 16.0898C16.6047 16.0499 16.5549 16.0303 16.6048 16.0303V16.0898ZM16.305 16.0195L16.2552 15.9697H16.3343L16.305 16.0195ZM16.8334 15.7109C16.7815 15.7703 16.8003 15.833 16.8412 15.8691C16.8391 15.816 16.8367 15.7632 16.8334 15.7109ZM16.3148 15.7998L16.3548 15.8604L16.225 15.79L16.3148 15.7998ZM16.3548 15.7803V15.7705H16.3744L16.3548 15.7803ZM16.3646 15.6104H16.3548V15.7695C16.3249 15.7695 16.2952 15.7598 16.2552 15.71C16.3151 15.66 16.3646 15.5898 16.3646 15.5898V15.6104ZM16.4252 15.3799C16.4751 15.4197 16.5351 15.3906 16.555 15.4805C16.4751 15.5404 16.4243 15.46 16.3343 15.46L16.3246 15.4502C16.344 15.5183 16.3451 15.5862 16.3451 15.5898L16.2787 15.4678C16.2662 15.4888 16.2445 15.5205 16.2445 15.5205C16.2271 15.5201 16.2569 15.4868 16.2777 15.4658L16.2748 15.46C16.2948 15.44 16.305 15.4096 16.305 15.3896C16.315 15.4096 16.3251 15.43 16.3451 15.46C16.3751 15.3502 16.4751 15.5198 16.4252 15.3799ZM16.2845 15.46C16.2945 15.46 16.3048 15.5 16.3148 15.46H16.2845ZM19.1849 15.4404L19.1449 15.4102C19.115 15.3403 19.0752 15.2603 19.0453 15.1904C19.0952 15.2703 19.145 15.3606 19.1849 15.4404ZM15.3744 15.3799C15.3446 15.3798 15.315 15.3704 15.3744 15.4199V15.3799ZM16.1146 15.2998C16.0846 15.3498 16.0846 15.3804 16.1146 15.4004C16.0646 15.3804 16.0145 15.3696 15.9945 15.3496C16.0245 15.3496 16.0547 15.2999 16.1146 15.2998ZM16.3148 15.3896C16.2947 15.3497 16.2445 15.3096 16.2445 15.3096H16.2552C16.2354 15.2697 16.2848 15.2705 16.3148 15.2705V15.3896ZM16.2748 15.2197C16.3033 15.2197 16.3228 15.2563 16.3246 15.2598H16.3148C16.3247 15.2697 16.3149 15.2695 16.305 15.2695C16.3047 15.2497 16.2847 15.2296 16.2748 15.2197ZM16.265 15.2197C16.245 15.2197 16.2045 15.2002 16.2045 15.2002H16.1947C16.2047 15.2002 16.2152 15.1797 16.2152 15.1797C16.2351 15.1897 16.255 15.2097 16.265 15.2197ZM16.4545 15.0996C16.4844 15.0996 16.5451 15.0701 16.5453 15.1396L16.5843 15.1201L16.5345 15.2002L16.4545 15.0996ZM16.0345 15.1104L16.0843 15.1396L15.9447 15.0801L16.0345 15.1104ZM16.1449 14.9297V14.96L16.0746 15.0195C16.0749 14.9598 16.1351 14.9199 16.1351 14.9199L16.1449 14.9297ZM16.265 14.8701L16.225 14.8799L16.2152 14.8398L16.265 14.8701ZM16.2152 14.8398L16.1244 14.7598C16.1544 14.7798 16.2152 14.7402 16.2152 14.7402V14.8398ZM5.27672 14.8252C5.2761 14.8235 5.27538 14.8219 5.27477 14.8203V14.8096C5.27572 14.8146 5.27581 14.8202 5.27672 14.8252ZM18.725 13.75C18.755 14.01 18.9748 14.4603 19.0648 14.8203L18.9252 14.71L18.9447 14.6504C18.9247 14.3305 18.6252 13.9403 18.725 13.7402V13.75ZM16.4847 14.5801C16.4548 14.59 16.4245 14.5601 16.4144 14.5996C16.4244 14.6496 16.475 14.6504 16.475 14.6504H16.4652C16.4132 14.711 16.3741 14.7461 16.3197 14.7812C16.3505 14.7439 16.3949 14.6584 16.3949 14.5996H16.3851C16.4052 14.5102 16.4548 14.5601 16.4847 14.5801ZM16.015 14.7002C15.985 14.7202 15.9144 14.7705 15.9144 14.7705C15.9531 14.7512 15.9645 14.6566 15.9652 14.6504L16.015 14.7002ZM16.0248 14.7002C16.0547 14.6802 16.0848 14.6899 16.1048 14.7695L16.0248 14.7002ZM16.2943 14.5195C16.2543 14.6395 16.1746 14.5595 16.1146 14.5195C16.2044 14.5694 16.2247 14.5 16.2943 14.5195ZM16.5043 14.5596C16.5043 14.5696 16.4947 14.5703 16.4847 14.5703C16.4935 14.5615 16.5022 14.5597 16.5043 14.5596ZM15.8548 14.2803H15.8451C15.8051 14.3303 15.7847 14.36 15.7347 14.29C15.7647 14.31 15.7845 14.2197 15.7845 14.2197L15.8548 14.2803ZM15.975 14.3203C15.9364 14.3107 15.9441 14.2914 15.9447 14.29L15.975 14.3203ZM16.1244 14.29L16.1351 14.3096L15.9847 14.1904L16.1244 14.29ZM15.8959 14.2412C15.9271 14.2583 15.9476 14.2598 15.9144 14.2598C16.0044 14.2598 15.9447 14.29 15.9447 14.29L15.8959 14.2412ZM15.8959 14.2412C15.8894 14.2377 15.8812 14.2356 15.8744 14.2305V14.2197L15.8959 14.2412ZM15.8851 14.1699C15.8251 14.0399 15.915 13.9901 15.975 14.1201C15.9064 14.0614 15.8859 14.1656 15.8851 14.1699ZM18.555 13.6904C18.595 13.6706 18.6148 13.9394 18.6546 14.0098L18.555 13.8799V13.6904ZM5.00524 12.6797V12.6436C4.90114 12.7926 4.85908 12.9688 4.88512 13.0996L4.82457 13.2402C4.92553 13.5293 5.11875 13.7084 5.3109 13.8271C5.203 13.6016 5.12367 13.389 5.10387 13.209C4.99348 13.0331 4.95796 12.7862 5.07457 12.5996L5.00524 12.6797ZM15.9046 13.4297C15.8846 13.5397 16.095 13.6405 15.975 13.7305V13.7197C15.9946 13.6298 15.8649 13.5002 15.8148 13.4004H15.9349L15.9046 13.4297ZM16.1351 13.6396L16.1146 13.71C16.076 13.729 16.0746 13.6176 16.0746 13.6104L16.1351 13.6396ZM15.8744 13.25L15.765 13.1904H15.805L15.8744 13.25ZM18.7748 12.9697C18.6149 12.5801 18.695 12.8298 18.725 12.7598C18.7449 12.8495 18.7647 12.8898 18.7748 12.9297V12.9697ZM15.4349 12.8496C15.4542 12.8403 15.3849 12.9096 15.3451 12.8799C15.3654 12.8796 15.4349 12.8496 15.4349 12.8496ZM18.515 12.46C18.695 12.8899 18.6147 12.9896 18.4447 12.5596C18.5847 12.7696 18.535 12.6 18.515 12.46ZM15.5052 12.6982C15.5062 12.7185 15.5324 12.7479 15.5345 12.75L15.4144 12.7803L15.5052 12.6982ZM15.3343 12.6602L15.305 12.7402V12.6504L15.3343 12.6602ZM15.5052 12.6982C15.5051 12.6953 15.504 12.6929 15.5052 12.6904H15.515L15.5052 12.6982ZM4.98473 12.6699L5.00524 12.6436V12.6201L4.98473 12.6699ZM18.3744 12.3604L18.1146 11.9902L18.0853 11.9199L18.3744 12.3604ZM18.4545 12.1504C18.4545 12.0004 18.4644 11.9402 18.5843 12.1602C18.5246 12.1006 18.5943 12.3004 18.5843 12.3604L18.4545 12.1504ZM18.475 12.3096C18.3951 12.2197 18.3449 12.1904 18.3949 12.1904C18.2891 12.1423 18.331 12.0844 18.3343 12.0801L18.475 12.3096ZM18.2748 11.9697C18.3448 12.0197 18.3451 12.0801 18.3451 12.0801L18.2748 11.9697ZM4.9652 10.7715C4.93444 10.8115 4.90706 10.8616 4.88512 10.9297C4.85512 11.0297 4.83434 11.2499 4.83434 11.4199V11.75C4.8543 11.73 4.88447 11.6801 4.91442 11.6104C4.94609 11.5312 4.98454 11.4329 5.02379 11.3359C5.02284 11.2756 5.01958 11.2144 5.01402 11.1523L4.89488 11.3701L5.01109 11.1182C4.99983 11.0051 4.98294 10.8895 4.9652 10.7715ZM11.8343 9.71973C11.735 9.71897 11.7946 9.46063 11.555 9.61035C11.0651 10.0603 11.3546 10.1403 10.8246 10.8203C10.8146 10.8992 10.8043 10.6005 10.6146 11.0098C10.4926 11.3051 10.3463 11.5555 10.2728 11.7363C10.5631 11.5402 10.7984 11.2233 10.9046 11.0303C11.0219 10.817 11.2161 10.5835 11.4232 10.335C11.3441 10.4162 11.2795 10.4756 11.2347 10.5C11.3447 10.41 11.4848 10.2096 11.5248 10.0996L11.2953 10.2998C11.4453 10.1101 11.6545 10.0395 11.8343 9.71973ZM5.69664 11.126C5.64174 11.3432 5.58041 11.5454 5.53453 11.6699C5.60453 11.5599 5.66496 11.4501 5.72496 11.3301L5.78453 11.3701C5.78837 11.3624 5.79055 11.3536 5.7943 11.3457L5.78453 11.3398C5.79101 11.3338 5.79827 11.3283 5.80504 11.3223C5.88595 11.1415 5.94638 10.9006 5.97106 10.6963C5.8733 10.8512 5.7812 10.9955 5.69664 11.126ZM7.08434 11.21C6.96401 11.2401 6.61491 11.3498 6.47496 11.29H6.31481C6.2582 11.358 6.2687 11.4549 6.30797 11.5566C6.36416 11.5323 6.41959 11.5145 6.47496 11.5098C6.56512 11.5021 6.64582 11.4796 6.72106 11.4512C6.71809 11.4041 6.7152 11.3566 6.7152 11.3096L6.77477 11.4307C6.90924 11.3713 7.02405 11.2891 7.13414 11.2148C7.12139 11.2105 7.10488 11.2082 7.08434 11.21ZM10.9252 9.98047C11.0635 10.0805 10.5654 10.2495 10.8246 10.2695C10.7346 10.3595 10.6643 10.4396 10.5443 10.5996C10.4143 10.7596 10.2851 10.9203 10.1351 11.0303C9.98512 11.1403 9.79438 11.2097 9.62438 11.1797C9.53918 11.1583 9.46539 11.12 9.39684 11.0752C9.45341 11.1279 9.50254 11.175 9.54527 11.21V11.3203C9.65511 11.4798 9.72534 11.4397 9.79527 11.4297C9.88528 11.5195 10.0945 11.4 10.2445 11.2002C10.3244 11.1103 10.3849 11.0003 10.4349 10.9004C10.4649 10.8304 10.5952 10.5998 10.6752 10.5098H10.6947C10.8047 10.3298 10.9148 10.1697 11.0248 10.0098C11.0045 10.0909 11.0119 10.0588 11.0404 9.99316C11.0213 9.96472 10.9683 9.98037 10.9252 9.98047ZM9.92516 11.3398C9.88518 11.3598 9.84502 11.3804 9.80504 11.4004C9.79504 11.4004 9.77477 11.3799 9.77477 11.3799C9.83472 11.32 9.85518 11.3398 9.92516 11.3398ZM10.1644 11.2305C10.1938 11.3102 10.0251 11.3495 9.92516 11.3496C9.96531 11.3394 10.055 11.2901 10.1644 11.2305ZM10.7845 11.0596C10.8345 11.0396 10.7851 11.1398 10.765 11.2197C10.705 11.3297 10.6245 11.3799 10.6244 11.3301C10.6844 11.2401 10.7445 11.1496 10.7845 11.0596ZM17.6752 11.25C17.6052 10.94 17.7946 11.2101 17.9046 11.3301C17.7348 11.1402 17.7748 11.3295 17.6752 11.25ZM8.66442 11.1602C8.57336 11.1375 8.4763 11.1515 8.38707 11.1797C8.47691 11.1823 8.5688 11.1913 8.67027 11.2266C8.6567 11.202 8.64822 11.1767 8.66442 11.1602ZM17.3929 10.5469C17.3904 10.6238 17.4211 10.8385 17.475 11L17.5052 11.0303C17.565 11.2598 17.4449 11.1098 17.3949 11.0498C17.415 11.0302 17.4844 11.1196 17.4545 11.0098C17.406 10.8937 17.3393 10.852 17.3353 10.8496C17.3443 10.706 17.3605 10.6267 17.3929 10.5469ZM6.62438 10.4404C6.66231 10.4974 6.64656 10.5541 6.64488 10.5596L6.59508 10.4805C6.55514 10.5404 6.52424 10.5796 6.50426 10.5996C6.52416 10.5797 6.55457 10.5897 6.57457 10.5996C6.56411 10.5901 6.52421 10.6003 6.49449 10.6201L6.48473 10.6396V10.6201C6.45476 10.6301 6.4344 10.6499 6.41442 10.6699C6.38445 10.7099 6.35453 10.7699 6.32457 10.8398C6.23769 10.9137 6.16539 11.013 6.09508 11.127C6.20167 11.0737 6.31579 11.0348 6.42516 11.0205C6.49509 10.9905 6.54495 10.9701 6.64488 10.9102L6.60484 10.8203C6.64484 10.8003 6.695 10.7697 6.765 10.7197C6.83802 10.6741 6.96946 10.5797 7.09801 10.5254C6.99502 10.5093 6.91637 10.4968 6.88512 10.5195C6.81517 10.3301 6.7349 10.5197 6.68492 10.3701C6.66492 10.4001 6.64438 10.4204 6.62438 10.4404ZM17.3949 11.0498C17.3849 11.0498 17.3851 11.0703 17.3851 11.0703C17.3552 11.0104 17.3749 11.0199 17.3949 11.0498ZM17.8978 10.7471C17.8892 10.8006 17.9368 10.9405 17.9545 11.0195L17.8451 10.8701L17.8978 10.7471ZM17.8451 10.8799C17.8251 10.9099 17.7849 10.88 17.6849 10.6602L17.8451 10.8799ZM8.17516 10.3096C8.10516 10.3696 8.06453 10.44 8.03453 10.5C8.01552 10.462 7.96981 10.406 7.9652 10.4004C7.93896 10.4219 7.9095 10.4385 7.87926 10.4531C7.94664 10.4704 8.01226 10.4926 8.07457 10.5205C8.13457 10.5405 8.1352 10.5396 8.2152 10.5596C8.28522 10.5796 8.41459 10.6103 8.49449 10.6602C8.56447 10.6302 8.84483 10.6697 9.06481 10.8096C9.08211 10.8206 9.09816 10.8334 9.11461 10.8447C9.0312 10.7657 8.97965 10.7132 8.9652 10.6699C8.9452 10.5799 8.75442 10.58 8.66442 10.54L8.7152 10.4805C8.41541 10.5005 8.47455 10.4199 8.2152 10.5195C8.3146 10.4398 8.29488 10.3894 8.17516 10.3096ZM17.6546 10.6797C17.5948 10.62 17.5746 10.7002 17.5746 10.7002L17.4652 10.4404L17.6546 10.6797ZM6.765 10.6396C6.79369 10.7162 6.73912 10.6208 6.66442 10.5859C6.69253 10.5807 6.72496 10.5596 6.72496 10.5596L6.765 10.6396ZM6.66442 10.5859C6.66093 10.5866 6.65795 10.5898 6.65465 10.5898V10.5801C6.65815 10.5814 6.661 10.5843 6.66442 10.5859ZM17.4144 10.3398L17.4652 10.4404L17.3744 10.3301L17.4144 10.3398ZM8.27184 10.1191C8.28008 10.1709 8.28392 10.2168 8.265 10.25C8.30745 10.2052 8.35739 10.1651 8.41344 10.1299C8.36613 10.1232 8.31893 10.1188 8.27184 10.1191ZM17.4652 10.0205C17.5149 10.1701 17.4847 10.25 17.4847 10.25V10.2402C17.4656 10.2116 17.4374 10.1553 17.4349 10.1504L17.4652 10.0205ZM5.03453 9.26758C4.95711 9.39703 4.89637 9.53908 4.86461 9.74023C4.83459 9.75037 4.7842 9.80002 4.75426 9.79004C4.76381 9.90946 4.82276 9.99779 4.89 10.0459C4.88685 9.79077 4.92179 9.53047 5.03453 9.26758ZM17.5648 9.91992L17.4349 9.82031L17.3451 9.74023L17.5648 9.91992ZM16.8851 9.66992C16.8451 9.65992 16.8245 9.73977 16.7045 9.50977L16.6752 9.54004L16.6146 9.30957L16.8851 9.66992ZM17.1244 9.59961C17.1051 9.60905 17.1049 9.58156 17.1048 9.58008L17.1244 9.59961ZM17.1048 9.53027V9.58008C17.0549 9.52011 17.0149 9.46989 16.975 9.41992C17.015 9.45 17.1048 9.53027 17.1048 9.53027ZM17.1146 9.53027H17.1048C17.1148 9.51027 17.1146 9.53027 17.1146 9.53027ZM16.8148 9.17969C16.8748 9.26966 16.9248 9.34994 16.9847 9.41992C16.9248 9.36994 16.8648 9.31991 16.8148 9.20996C16.7948 9.17998 16.7948 9.17969 16.8148 9.17969ZM13.9144 8.4502C13.7746 8.37028 13.6849 8.32011 13.6449 8.41992V8.51953C13.6052 8.49923 13.5709 8.48322 13.5414 8.46973C13.6296 8.54465 13.65 8.5744 13.6752 8.59961C13.7151 8.6296 13.7553 8.65969 13.7953 8.67969C13.8752 8.7296 13.9546 8.77013 14.0345 8.87988C13.8053 8.65041 14.6639 8.99942 14.5052 8.78027C14.6748 8.92972 14.6353 8.79025 14.7152 8.91016C14.5253 8.89017 14.1751 8.96987 13.9252 8.95996C13.9951 9.00989 14.065 9.05966 14.1449 9.09961C13.9349 9.22961 13.6147 8.88035 13.4847 8.86035C13.5847 8.87035 13.7748 9.02051 13.7748 9.02051L13.7552 8.87988C13.6053 8.8099 13.5149 8.73991 13.265 8.66992C13.035 8.61992 12.8249 8.69051 12.6849 8.77051C12.8448 8.74053 12.7444 8.77985 12.6644 8.83984C12.5746 8.8998 12.5149 8.97964 12.6146 8.96973C12.6746 8.92973 12.735 8.89988 12.805 8.87988C12.8218 8.88326 12.8272 8.88944 12.8295 8.89551C12.9999 8.85204 13.1772 8.86989 13.3548 8.98047C13.6046 9.12841 13.9555 9.23659 14.2845 9.28711L14.2552 9.28027L14.3646 9.21973L14.4154 9.30371C14.6292 9.32614 14.8253 9.32121 14.9701 9.2793C14.9871 9.21678 15.0916 9.12938 15.1146 9.03027C15.1346 8.96034 15.1648 8.8806 15.0951 8.90039C15.235 8.81046 15.2648 8.89993 15.4447 8.62012C15.5047 8.43012 15.2043 8.71977 15.0843 8.75977C15.0962 8.74231 15.105 8.72488 15.1146 8.70996C15.1017 8.71564 15.0891 8.72456 15.0746 8.73047C15.099 8.69989 15.1411 8.66036 15.1595 8.6377C15.1626 8.632 15.1647 8.62625 15.1673 8.62109C15.1653 8.61967 15.1616 8.61873 15.1546 8.62012C15.1145 8.65016 15.061 8.6583 15.0004 8.65918L14.9945 8.66992C14.9956 8.6667 14.9964 8.66337 14.9974 8.66016C14.7559 8.66218 14.4012 8.48834 14.305 8.51953L14.4447 8.58008C14.2947 8.63002 14.0444 8.52018 13.9144 8.4502ZM16.8246 8.78027C16.9346 8.88026 17.0652 8.98968 17.1752 9.13965C17.0752 9.05965 17.1846 9.31023 17.0746 9.24023H17.0843C17.0143 9.03024 16.9346 8.89027 16.8246 8.78027ZM13.0043 8.2998C12.8046 8.27962 12.715 8.1404 12.5951 8.28027L12.6546 8.30957C12.4048 8.28957 12.4147 8.26953 12.2347 8.26953C12.2147 8.28953 12.1546 8.32957 12.1146 8.30957C12.1446 8.36949 12.0648 8.45972 12.0248 8.55957C11.9648 8.65957 11.8643 8.80008 11.8343 8.83008C11.9442 8.63028 11.845 8.6899 11.765 8.70996C11.775 8.87992 11.7347 8.95983 11.5648 9.0498C11.6003 9.08849 11.6342 9.13024 11.6586 9.17676C11.7227 9.09821 11.7932 9.01898 11.8646 8.94043C11.5851 9.33987 11.9751 8.99005 12.055 9.04004C12.095 8.96007 12.1552 8.87977 12.2152 8.7998C12.3241 8.77049 12.1154 8.96973 12.2845 8.86035C12.3545 8.78035 12.5052 8.65984 12.7152 8.58984C12.9251 8.51999 13.1754 8.52051 13.2953 8.52051C13.2753 8.48051 13.1848 8.44015 13.0648 8.41016C13.0348 8.42015 13.055 8.41016 13.055 8.41016C13.0851 8.41004 13.1353 8.38965 13.1752 8.38965C13.5769 8.51519 13.5161 8.49383 13.4916 8.44824C13.3155 8.37569 13.3476 8.44061 13.1849 8.37988L13.1009 8.35742C13.0697 8.35243 13.0345 8.34961 12.9945 8.34961C13.0458 8.34691 13.0856 8.34874 13.1156 8.35156C13.0843 8.33769 13.047 8.32117 13.0043 8.2998ZM16.5746 8.75C16.6545 8.87994 16.7344 8.99032 16.8343 9.07031L16.8451 9.05957C16.9351 9.20957 16.8546 9.16992 16.8246 9.16992C16.7446 9.03997 16.6545 8.89994 16.5746 8.75ZM14.3148 9.04004C14.4948 9.04004 14.6646 9.00035 14.6146 9.11035H14.6449C14.4849 9.12035 14.3149 9.11999 14.3148 9.04004ZM14.805 9.09961H14.6752C14.7647 9.08953 14.8049 9.04033 14.805 9.09961ZM15.5834 8.7168C15.4635 8.81537 15.3579 8.93382 15.2992 9.03125C15.3983 8.93082 15.5036 8.82205 15.5834 8.7168ZM13.0345 8.82031C13.0245 8.78031 13.2752 8.83043 13.4252 8.94043C13.3852 8.94043 13.3343 8.92043 13.3343 8.94043C13.2444 8.87048 13.1445 8.84031 13.0345 8.82031ZM11.6918 8.62793C11.6525 8.68701 11.6094 8.74705 11.5638 8.80762C11.5605 8.82248 11.5551 8.83622 11.555 8.84961C11.5527 8.84247 11.5525 8.83457 11.5511 8.82617C11.5318 8.85167 11.5127 8.87776 11.4925 8.90332C11.5114 8.90443 11.535 8.89724 11.5648 8.87988V8.80957C11.5748 8.8894 11.5846 8.93957 11.6244 8.91992C11.6744 8.80992 11.725 8.70961 11.765 8.59961C11.7456 8.60929 11.7205 8.61712 11.6918 8.62793ZM12.0648 8.73047C12.1347 8.62062 12.3141 8.4803 12.2748 8.55957C12.1948 8.56957 12.3047 8.6502 12.1947 8.7002C11.9651 8.90981 11.995 8.84025 12.0648 8.73047ZM14.8148 8.7998C14.7949 8.7998 14.7848 8.79012 14.765 8.79004C14.7836 8.77131 14.7845 8.73509 14.7845 8.73047L14.8148 8.7998ZM16.6244 8.62012C16.6944 8.66012 16.7548 8.72027 16.8148 8.78027C16.7448 8.73027 16.6744 8.68012 16.6244 8.62012ZM16.433 8.49609C16.4036 8.43696 16.3744 8.36831 16.3451 8.2998C16.3846 8.30032 16.4235 8.42774 16.4339 8.49805H16.4349V8.49023C16.4749 8.58016 16.5248 8.67007 16.5648 8.75C16.5148 8.68 16.4444 8.59953 16.3744 8.51953C16.5643 8.86947 16.1053 8.32998 16.4349 8.76953C16.2952 8.62988 16.2947 8.74979 16.0951 8.48047C16.0651 8.28047 16.2651 8.47977 16.3851 8.50977H16.3949C16.2349 8.30983 16.1446 8.18983 16.0746 8.08984L16.433 8.49609ZM14.1644 8.69043C14.1048 8.68062 14.1351 8.72027 14.1351 8.74023C14.0851 8.72023 14.0545 8.69016 13.9545 8.66016C14.0243 8.67014 14.0945 8.69035 14.1644 8.69043ZM6.82067 7.16699C6.54348 7.47334 6.25873 7.85979 6.12438 7.88965C6.20434 7.83967 6.29476 7.70013 6.31481 7.62012L6.14488 7.74023C6.25484 7.61029 6.42431 7.58985 6.5443 7.37012C6.45479 7.34961 6.48423 7.14983 6.28453 7.21973C5.89455 7.48972 6.19429 7.64028 5.7943 8.03027C5.77448 8.08887 5.78422 7.86062 5.60484 8.09961C5.44767 8.33163 5.35685 8.58097 5.38024 8.7334C5.43553 8.672 5.49744 8.6111 5.56481 8.5498C6.13105 8.02986 6.53255 7.5255 6.82067 7.16699ZM16.4349 8.50977C16.3949 8.47974 16.315 8.37003 16.3949 8.50977H16.4349ZM12.641 8.41309C12.5917 8.4292 12.5312 8.45188 12.4545 8.49023V8.48047C12.5142 8.45057 12.5783 8.42868 12.641 8.41309ZM15.5023 8.45801C15.4953 8.46308 15.4867 8.47112 15.475 8.48047L15.5004 8.45605L15.5023 8.45801ZM15.4847 8.48047L15.5043 8.45996L15.5023 8.45801C15.5107 8.4519 15.5164 8.44921 15.5179 8.44727C15.5286 8.44647 15.5319 8.44517 15.5287 8.44727L15.4847 8.48047ZM15.5004 8.44629C15.5048 8.4463 15.5087 8.44742 15.5121 8.44727L15.5004 8.45605L15.4955 8.45117L15.5004 8.44629ZM15.4652 8.44141C15.4813 8.44264 15.4935 8.44545 15.5023 8.44531L15.5004 8.44629C15.4909 8.44627 15.4796 8.44304 15.4652 8.44141ZM15.4652 8.44141C15.4452 8.43987 15.4196 8.43733 15.388 8.42969C15.4191 8.43799 15.4449 8.43909 15.4652 8.44141ZM15.388 8.42969C15.3848 8.42883 15.3816 8.4277 15.3783 8.42676C15.3816 8.42763 15.3848 8.4289 15.388 8.42969ZM12.641 8.41309C12.6688 8.40399 12.6936 8.39686 12.7152 8.38965H12.765C12.7248 8.39367 12.6831 8.4026 12.641 8.41309ZM5.78258 8.19141C5.81854 8.199 5.77416 8.26263 5.75524 8.30957C5.71648 8.37739 5.64902 8.36146 5.64488 8.36035L5.78258 8.19141ZM5.78258 8.19141C5.78027 8.19092 5.77777 8.19043 5.77477 8.19043H5.78453L5.78258 8.19141ZM6.62438 6.62012C6.44473 6.91938 6.58426 6.39094 6.62438 6.50977C6.57497 6.51991 6.68428 6.58018 6.62438 6.62012ZM7.30797 6.52734C7.31011 6.53319 7.31223 6.5383 7.31285 6.54395C7.31121 6.5407 7.30875 6.53674 7.30699 6.53125L7.30309 6.54492C7.30847 6.5454 7.31371 6.54713 7.31969 6.54883L7.3441 6.44531C7.33977 6.43748 7.33588 6.43011 7.33531 6.4248L7.30797 6.52734ZM7.45934 6.44531C7.44731 6.47412 7.43572 6.49839 7.43492 6.5C7.44489 6.4701 7.45717 6.44264 7.46715 6.41895L7.45934 6.44531ZM7.25426 6.44043L7.23375 6.4248C7.24496 6.43229 7.25985 6.44492 7.27477 6.46973C7.28266 6.46976 7.28793 6.48293 7.29332 6.49805C7.27023 6.46385 7.23281 6.42736 7.20055 6.39551C7.2018 6.39503 7.2032 6.395 7.20445 6.39453C7.22366 6.41254 7.24023 6.4292 7.25426 6.44043ZM6.70445 6.44043V6.42969C6.75443 6.36973 6.79481 6.33956 6.81481 6.30957C6.81481 6.32957 6.82508 6.31957 6.84508 6.30957C6.79508 6.34957 6.70445 6.44043 6.70445 6.44043ZM14.7045 6.2998C14.7236 6.29021 14.7891 6.33615 14.7943 6.33984C14.7843 6.35977 14.7444 6.33978 14.7045 6.2998ZM7.39 6.25391C7.39285 6.25119 7.39488 6.25 7.39488 6.25H7.39195L7.39 6.25391ZM7.00914 6.23047H7.02867C7.03629 6.22695 7.04257 6.2173 7.05016 6.20703C7.03495 6.21472 7.02196 6.22373 7.00914 6.23047ZM7.66442 5.9502L7.59508 5.87012L7.70445 5.83984L7.66442 5.9502ZM7.48473 5.67969C7.49471 5.78953 7.50479 5.90008 7.42516 5.90039C7.40516 5.78039 7.37473 5.6602 7.48473 5.7002V5.67969ZM7.48473 5.66016C7.48473 5.60019 7.43487 5.54965 7.48473 5.55957V5.66016ZM7.17516 5.53027C7.15516 5.50027 7.11461 5.45996 7.11461 5.45996H7.19469L7.17516 5.53027ZM7.70543 5.34082C7.70147 5.3166 7.69678 5.29258 7.69176 5.26855C7.68502 5.2645 7.67972 5.25992 7.67516 5.25977C7.68667 5.28663 7.69573 5.31395 7.70543 5.34082ZM7.19469 5.28027C7.13469 5.25027 7.03453 5.20996 7.03453 5.20996H7.13512L7.19469 5.28027ZM7.15465 5.16992V5.16016L7.16442 5.15039L7.15465 5.16992ZM7.04332 4.9502H7.03453C7.10452 5.04018 7.11465 5.08016 7.15465 5.16016C7.12467 5.16016 7.08466 5.16002 7.02477 5.12012C7.04477 5.05012 7.04449 4.99016 6.99449 4.91016L7.04332 4.9502ZM7.05504 4.95996L7.04332 4.9502H7.06481L7.05504 4.95996ZM6.765 4.46973C6.88496 4.53968 6.88455 4.45037 7.03453 4.61035C7.03428 4.74982 6.88445 4.6404 6.78453 4.65039C6.89448 4.77034 6.9545 4.84017 6.99449 4.91016L6.74449 4.66895V4.67969C6.71456 4.62976 6.68458 4.56941 6.65465 4.51953C6.69465 4.55953 6.73527 4.61039 6.79527 4.65039C6.66527 4.43039 7.015 4.71973 6.765 4.46973ZM6.78453 4.80957C6.76453 4.81957 6.73473 4.72969 6.73473 4.67969C6.75393 4.71808 6.78228 4.80285 6.78453 4.80957ZM6.7982 4.70508C6.80964 4.71278 6.80966 4.70539 6.78453 4.66016H6.74449L6.7982 4.70508ZM6.58434 4.63965C6.52467 4.61974 6.47478 4.60012 6.43492 4.57031C6.49257 4.5896 6.57776 4.63602 6.58434 4.63965ZM6.24449 4.30957C6.30449 4.43957 6.36469 4.52031 6.44469 4.57031C6.35469 4.54031 6.25442 4.48992 6.16442 4.41992C6.24432 4.44989 6.15502 4.29996 6.24449 4.30957ZM1.4652 4.51953H1.43492L1.41149 4.51172C1.42587 4.51272 1.44754 4.51365 1.4652 4.51953ZM6.4652 4.25977C6.53511 4.33968 6.59472 4.41989 6.65465 4.50977C6.58474 4.43985 6.52461 4.37958 6.44469 4.34961C6.37508 4.25993 6.43523 4.25977 6.4652 4.25977ZM1.64488 4.23047C1.63526 4.25902 1.60753 4.30506 1.60484 4.30957L1.62438 4.28027C1.63438 4.26027 1.65465 4.20996 1.65465 4.20996V4.19043L1.6527 4.18945C1.64968 4.20303 1.6492 4.21751 1.64488 4.23047ZM0.957384 4.17871C0.956617 4.17365 0.955046 4.1689 0.954454 4.16406C0.957143 4.19693 0.962739 4.23276 0.974962 4.26953C0.965312 4.2357 0.961429 4.20542 0.957384 4.17871L1.0941 4.16113C1.09398 4.15981 1.09323 4.15854 1.09313 4.15723L0.957384 4.17871ZM6.32457 4.13965C6.37457 4.14965 6.4252 4.17023 6.4652 4.24023C6.48453 4.25967 6.47501 4.25976 6.4652 4.25977C6.4152 4.21977 6.37457 4.17965 6.32457 4.13965ZM1.09508 4.15723V4.16016L1.33434 4.12109V4.12012L1.09508 4.15723ZM0.954454 4.14746V4.13965C0.954463 4.13049 0.955729 4.12103 0.956407 4.11133C0.955121 4.11117 0.953784 4.11149 0.952501 4.11133C0.952026 4.12281 0.953896 4.13481 0.954454 4.14746ZM6.2152 4.07031C6.25484 4.08042 6.28488 4.10985 6.32457 4.13965C6.28598 4.12996 6.21994 4.10163 6.2152 4.09961V4.07031ZM0.949571 4.11133C0.949515 4.11433 0.950427 4.11722 0.950548 4.12012C0.950491 4.11712 0.95151 4.11422 0.951524 4.11133H0.949571ZM6.40856 3.92285C6.44043 3.90641 6.46777 3.87679 6.55504 3.99023L6.58434 3.9502L6.63512 4.11035L6.40856 3.92285ZM6.21422 4.09961C6.20422 4.11961 6.20445 4.09961 6.20445 4.09961H6.21422ZM2.66442 3.74023C2.65441 3.84008 2.63422 3.93978 2.58434 4.05957V3.92969C2.61427 3.86981 2.64443 3.80013 2.66442 3.74023ZM5.93492 4.01953L6.015 4.04004L5.82457 4L5.93492 4.01953ZM6.40856 3.92285C6.40396 3.92522 6.39991 3.92841 6.39488 3.92969L6.40465 3.91992L6.40856 3.92285ZM5.91442 3.76953V3.87988C5.85769 3.80406 5.87269 3.73708 5.87438 3.73047V3.71973L5.91442 3.76953ZM2.5443 3.63965C2.52678 3.62974 2.64451 3.62139 2.60484 3.73047C2.59484 3.71047 2.5043 3.69965 2.5443 3.63965ZM5.95445 3.62012L5.91442 3.62988L5.87438 3.58008L5.95445 3.62012ZM5.515 3.45996C5.50521 3.49912 5.48554 3.5862 5.48473 3.58984H5.47496C5.50454 3.54964 5.40465 3.41992 5.40465 3.41992L5.515 3.45996ZM5.87438 3.58008L5.69469 3.5C5.75271 3.50967 5.7542 3.45388 5.75426 3.4502L5.87438 3.58008ZM2.45445 3.54004H2.44469L2.45543 3.53223C2.45471 3.5347 2.45539 3.53769 2.45445 3.54004ZM2.56481 3.45996L2.45543 3.53223C2.47012 3.48199 2.44301 3.40679 2.41442 3.34961L2.56481 3.45996ZM5.515 3.45996C5.535 3.43011 5.56534 3.43044 5.67516 3.53027L5.515 3.45996ZM5.765 3.17969C5.66509 3.04976 5.79509 3.09035 5.84508 3.11035C5.83484 3.13998 5.76513 3.10007 5.80504 3.16992C5.85503 3.22979 5.92516 3.23047 5.92516 3.23047V3.21973C5.95516 3.33973 5.94516 3.40023 5.92516 3.49023C5.94375 3.4969 5.88359 3.29874 5.7943 3.17969H5.765ZM5.58434 3.12012C5.69426 3.3 5.49495 3.21051 5.39488 3.19043C5.5544 3.22027 5.49495 3.12041 5.58434 3.12012ZM4.81481 3.03027V3.04004C4.8548 3.12002 4.86471 3.16011 4.73473 3.12012C4.77456 3.11016 4.67598 3.06042 4.67516 3.02051C4.72524 3.03042 4.81481 3.03027 4.81481 3.03027ZM5.84508 3.08984C5.88453 3.10961 5.86492 3.11035 5.84508 3.11035V3.08984ZM4.98473 3.00977C4.93474 3.01976 4.91442 2.99023 4.91442 2.99023L4.98473 3.00977ZM4.84508 2.96973C4.92468 2.92008 4.91442 2.96028 4.91442 2.99023C4.86571 2.98049 4.77024 2.96101 4.765 2.95996C4.83461 2.95001 4.87446 2.94014 4.84508 2.96973ZM3.11461 2.95996L3.12438 2.91992L3.25524 2.80957L3.11461 2.95996ZM4.40465 2.87988C4.59431 2.90983 4.49485 2.87015 4.49449 2.92969C4.45473 2.9098 4.43436 2.90039 4.41442 2.90039C4.40442 2.89039 4.40465 2.87988 4.40465 2.87988ZM4.69469 2.91016C4.46471 2.83016 4.45475 2.72984 4.69469 2.7998C4.56471 2.78981 4.64469 2.85016 4.69469 2.91016ZM4.90465 2.86816C4.96218 2.87488 5.02138 2.88333 5.08434 2.88965L5.12438 2.91016C5.0486 2.89636 4.9775 2.87833 4.90465 2.86816ZM4.80504 2.86035C4.83903 2.86037 4.87197 2.86361 4.90465 2.86816C4.87105 2.86424 4.83814 2.86036 4.80504 2.86035ZM3.60484 2.69043C3.82782 2.65165 3.9927 2.41644 4.10289 2.54785C4.03573 2.53508 3.95938 2.57257 3.87438 2.61035C3.75458 2.68022 3.62462 2.74967 3.52477 2.80957L3.56481 2.66992L3.60484 2.69043ZM4.11461 2.5498V2.55957C4.11133 2.55483 4.10627 2.55189 4.10289 2.54785C4.10677 2.54859 4.11079 2.54872 4.11461 2.5498ZM4.15172 2.40918C4.13648 2.43784 4.00233 2.3847 3.9652 2.42969C3.98467 2.41047 4.03939 2.3734 4.0443 2.37012L4.15172 2.40918ZM4.15465 2.41016L4.15172 2.40918C4.15309 2.4066 4.1554 2.40446 4.15465 2.40039V2.41016ZM6.65465 1.62012C6.66469 1.63521 6.66974 1.66033 6.67223 1.68164L6.67516 1.71973C6.67416 1.7094 6.67516 1.69412 6.67516 1.66992C6.67512 1.64882 6.65954 1.61807 6.65074 1.60156C6.65245 1.60761 6.65465 1.61374 6.65465 1.62012ZM6.62828 1.51562C6.61941 1.51853 6.61708 1.52974 6.63512 1.57031C6.63871 1.57398 6.64179 1.57921 6.64488 1.58496V1.57031L6.62828 1.51562ZM6.77477 1.40039V1.45996C6.69478 1.35997 6.73477 1.38039 6.77477 1.40039Z" fill="white"/>
</svg>
