<svg width="52" height="55" viewBox="0 0 52 55" fill="none" xmlns="http://www.w3.org/2000/svg">
<path d="M20.01 30.7153C20.08 30.8053 20.13 30.7153 20.16 30.7153C20.02 30.5853 19.99 30.7453 20.01 30.7153Z" fill="white"/>
<path d="M18.5 29.7953L18.55 29.7653L18.28 29.7453L18.5 29.7953Z" fill="white"/>
<path d="M16.98 29.3553C17.1 29.5553 17.55 29.3853 17.81 29.5553L17.84 29.6053L18.01 29.5053C17.84 29.4653 17.64 29.4253 17.45 29.4153C17.26 29.4153 17.1 29.3953 16.98 29.3553Z" fill="white"/>
<path d="M16.14 28.9453C16.2 29.0153 15.95 29.0053 16.35 28.9653C16.33 28.9653 16.32 28.9553 16.31 28.9453C16.27 28.9453 16.23 28.9453 16.14 28.9453Z" fill="white"/>
<path d="M16.31 28.9453C16.48 28.9453 16.2 28.8853 16.31 28.9453Z" fill="white"/>
<path d="M15.53 29.0353L15.75 28.9453C15.75 28.9453 15.5 28.9253 15.57 28.8853C15.34 28.9453 15.4 28.9853 15.53 29.0353Z" fill="white"/>
<path d="M15.33 29.1853L15.44 29.1453C15.44 29.1453 15.39 29.1253 15.33 29.1853Z" fill="white"/>
<path d="M15.6799 29.0653L15.45 29.1453C15.45 29.1453 15.5 29.2253 15.56 29.1153C15.55 29.1653 15.5899 29.1153 15.6899 29.0653H15.6799Z" fill="white"/>
<path d="M15.8201 29.0753C15.9501 29.0953 16.1001 29.1053 15.8901 29.1953C16.3101 29.1553 16.2401 29.0153 15.8201 29.0753Z" fill="white"/>
<path d="M16.89 29.5253L17.04 29.5953L17.18 29.5553C17.11 29.5753 16.88 29.4653 16.89 29.5253Z" fill="white"/>
<path d="M14.16 29.2053C14.16 29.2053 14.26 29.2853 14.28 29.3253L14.43 29.2453C14.34 29.2353 14.18 29.2453 14.16 29.2053Z" fill="white"/>
<path d="M14.29 29.3253L14.08 29.4553C14.28 29.4053 14.31 29.3653 14.29 29.3253Z" fill="white"/>
<path d="M15.33 29.3953L15.7 29.2053L15.25 29.4053L15.33 29.3953Z" fill="white"/>
<path d="M13.29 29.4653C13.29 29.4653 13.36 29.3753 13.39 29.3353C13.33 29.3953 13.27 29.4753 13.21 29.5453L13.29 29.4653Z" fill="white"/>
<path d="M12.7401 29.6953C12.8101 29.5953 12.57 29.6253 12.65 29.5453C12.5 29.6153 12.39 29.7253 12.3 29.8253C12.41 29.7353 12.5501 29.7053 12.7401 29.6853V29.6953Z" fill="white"/>
<path d="M12.14 29.9853C12.19 29.9453 12.24 29.8853 12.3 29.8253C12.24 29.8653 12.19 29.9153 12.14 29.9853Z" fill="white"/>
<path d="M13.69 29.5553C13.69 29.5553 13.61 29.4953 13.48 29.5053L13.6 29.5753C13.6 29.5753 13.66 29.5553 13.69 29.5453V29.5553Z" fill="white"/>
<path d="M13.6 29.5753C13.5 29.5953 13.44 29.6153 13.41 29.6253C13.43 29.6253 13.49 29.6053 13.61 29.5753H13.6Z" fill="white"/>
<path d="M13.7099 29.5453H13.6899C13.6899 29.5453 13.7099 29.5653 13.7099 29.5453Z" fill="white"/>
<path d="M14.7 29.4153C14.58 29.5053 14.32 29.6253 14.6 29.6553C14.68 29.5653 14.51 29.5453 14.7 29.4153Z" fill="white"/>
<path d="M13.86 29.6353L14.1 29.5853C14.1 29.5853 14.03 29.5353 14.1 29.4853L13.87 29.6353H13.86Z" fill="white"/>
<path d="M13.75 29.7053L13.86 29.6353L13.77 29.6553L13.75 29.7053Z" fill="white"/>
<path d="M12.57 29.9153C12.49 29.9953 12.38 30.0453 12.27 30.1053C12.41 30.0653 12.54 30.0153 12.67 29.9653C12.67 29.9253 12.71 29.8453 12.57 29.9053V29.9153Z" fill="white"/>
<path d="M13.0701 29.7553H13.05C13.05 29.7553 13.0801 29.7753 13.0701 29.7553Z" fill="white"/>
<path d="M11.11 30.6553L11.13 30.6653V30.6453L11.11 30.6553Z" fill="white"/>
<path d="M12.7 29.9853C12.81 29.9653 12.86 29.9153 12.9 29.8653C12.83 29.9053 12.75 29.9353 12.67 29.9753C12.67 29.9953 12.67 30.0053 12.7 29.9853Z" fill="white"/>
<path d="M11.83 30.1853C11.89 30.1853 11.95 30.1753 12.02 30.1653C11.96 30.1653 11.83 30.1553 11.83 30.1853Z" fill="white"/>
<path d="M13.0101 29.7553L13.0201 29.7453C12.9801 29.7453 12.9901 29.7453 13.0101 29.7553Z" fill="white"/>
<path d="M13.01 29.7553C13.01 29.7553 12.93 29.8253 12.9 29.8653C12.96 29.8353 13.01 29.8053 13.05 29.7653C13.04 29.7653 13.02 29.7653 13.01 29.7553Z" fill="white"/>
<path d="M11.08 31.4453C11.05 31.3453 11.2499 31.1453 11.4999 31.1353C11.6699 30.9653 11.39 30.7453 11.13 30.6753C11.14 30.7153 11.16 30.7553 10.98 30.9153C11.08 30.9153 11.51 30.7853 11.37 30.9553C11.11 31.1453 11.13 31.0453 10.96 31.0653C11.13 31.1153 10.69 31.4053 10.84 31.5353L11.05 31.3553C11.05 31.3553 11 31.4653 11.08 31.4553V31.4453Z" fill="white"/>
<path d="M11.55 30.4653L11.63 30.4153C11.52 30.4453 11.4299 30.4553 11.2599 30.4453C11.1299 30.5653 11.12 30.6153 11.13 30.6453L11.57 30.4353L11.55 30.4653Z" fill="white"/>
<path d="M12.04 30.2253C12.01 30.3553 11.82 30.4953 12 30.5453C12.26 30.4153 12.15 30.3853 12.29 30.2653C11.87 30.4853 12.39 30.1553 12.05 30.2353C12.13 30.1853 12.2 30.1453 12.27 30.1053C12.19 30.1253 12.11 30.1453 12.03 30.1653H12.04C12.04 30.1653 12.07 30.1753 12.04 30.1753C12.04 30.1753 12.04 30.2153 12.04 30.2253C11.91 30.2653 12.01 30.2053 12.04 30.1753V30.1553L11.63 30.4053C11.73 30.3753 11.84 30.3253 12.04 30.2253Z" fill="white"/>
<path d="M14.42 29.9353C14.42 29.9353 14.4 29.9253 14.4 29.9153C14.37 29.9353 14.37 29.9453 14.42 29.9353Z" fill="white"/>
<path d="M14.22 29.9253C14.22 29.9253 14.26 29.8553 14.37 29.8353C14.47 29.8353 14.38 29.8853 14.4 29.9153C14.45 29.8653 14.61 29.7853 14.4 29.7853L14.37 29.8053C14.18 29.8253 13.91 29.7653 13.94 29.7453C14.02 29.8253 14.09 29.8753 14.23 29.9253H14.22Z" fill="white"/>
<path d="M13.13 30.0653L12.79 30.2553L13.01 30.2753L12.98 30.2253C13.19 30.1653 13.12 30.1153 13.14 30.0653H13.13Z" fill="white"/>
<path d="M11.04 30.6353V30.5053L10.91 30.7553L11.04 30.6353Z" fill="white"/>
<path d="M10.59 30.8753L10.56 30.7853L10.47 30.9053L10.59 30.8753Z" fill="white"/>
<path d="M6.04004 50.4853L6.13004 50.4353C6.13004 50.4353 6.06004 50.4753 6.04004 50.4853Z" fill="white"/>
<path d="M5.30005 50.6553V50.7053C5.30005 50.7053 5.33005 50.6553 5.30005 50.6553Z" fill="white"/>
<path d="M1.92003 39.6453C1.76003 39.7553 1.56003 39.8753 1.67003 39.8953H1.79002C1.82002 39.7753 1.87002 39.7053 1.93002 39.6453H1.92003Z" fill="white"/>
<path d="M0.769943 47.9653L0.799942 47.9153C0.799942 47.9153 0.729941 47.8453 0.689941 47.8153C0.709941 47.8653 0.739943 47.9153 0.769943 47.9653Z" fill="white"/>
<path d="M1.22994 48.0253L1.18994 48.2353C1.18994 48.2353 1.21994 48.1153 1.22994 48.0253Z" fill="white"/>
<path d="M9.83997 48.6153L9.88998 48.4553C9.71998 48.5653 9.82997 48.5653 9.83997 48.6153Z" fill="white"/>
<path d="M6.30999 33.8053C6.16999 33.8653 6.06999 33.9353 5.98999 33.9953C6.16999 33.9253 6.33999 33.9053 6.30999 33.8053Z" fill="white"/>
<path d="M6.02 51.6753C6.09 51.6353 6.11 51.6053 6.1 51.5853C6.03 51.6253 6 51.6553 6.02 51.6753Z" fill="white"/>
<path d="M5.66003 34.2753C5.66003 34.2753 5.71004 34.2553 5.74004 34.2453C5.81004 34.1653 5.88004 34.0753 5.99004 33.9953C5.86004 34.0453 5.72003 34.1253 5.66003 34.2753Z" fill="white"/>
<path d="M19.49 36.8153C19.49 36.8153 19.5 36.7953 19.51 36.7853C19.5 36.7853 19.49 36.7853 19.49 36.8153Z" fill="white"/>
<path d="M20.65 32.2153C20.65 32.2153 20.7 32.3353 20.72 32.4153C20.72 32.3753 20.72 32.3153 20.65 32.2153Z" fill="white"/>
<path d="M8.82007 31.8853C8.91007 31.8253 8.82007 31.8653 8.82007 31.8853Z" fill="white"/>
<path d="M9.48997 31.9753C9.48997 31.9753 9.46997 32.0153 9.48997 32.0453C9.48997 32.0153 9.48997 31.9953 9.48997 31.9753Z" fill="white"/>
<path d="M8.97997 31.8453C8.97997 31.8453 8.88998 31.8753 8.84998 31.8953C8.86998 31.8953 8.90997 31.8753 8.97997 31.8453Z" fill="white"/>
<path d="M8.93005 31.8053C8.93005 31.8053 8.99006 31.7753 9.02006 31.7653C9.02006 31.7453 9.01005 31.7353 8.93005 31.8053Z" fill="white"/>
<path d="M8.68994 31.9753C8.73994 31.9453 8.78994 31.9153 8.83994 31.8953C8.81994 31.8953 8.80994 31.8953 8.80994 31.8953C8.77994 31.9153 8.74994 31.9353 8.68994 31.9753Z" fill="white"/>
<path d="M15.65 44.2053C15.65 44.2053 15.66 44.2053 15.67 44.1953C15.7 44.0853 15.67 44.1253 15.65 44.2053Z" fill="white"/>
<path d="M1.95995 42.6053V42.5953L1.94995 42.6053H1.95995Z" fill="white"/>
<path d="M1.93999 42.9853C1.84999 42.7953 1.89 42.7153 1.95 42.6053L1.62 42.6253L1.93999 42.9753V42.9853Z" fill="white"/>
<path d="M7.76 49.8153H7.49001C7.71001 49.5553 7.93 49.5253 7.66 49.4953C7.76 49.8153 6.79 49.9153 6.87 50.2253H6.69C6.69 50.2253 6.74001 50.1753 6.78001 50.1653C6.42001 50.1153 6.63 50.4753 6.22 50.5653C6.07 50.5753 5.96 50.5553 6.05 50.4853L5.76 50.6453C5.67 50.6653 5.68 50.5953 5.76 50.5853C5.6 50.6253 5.45 50.6953 5.29 50.7253C5.23 50.7753 5.09 50.8753 5.02 50.9253C4.89 50.8953 5.08 50.8853 5.04 50.8453L4.78001 50.9653C4.66001 50.8953 4.87001 50.7753 5.06001 50.7653C4.78001 50.4453 4.84001 50.9253 4.31001 50.7153L4.55 50.6653C4.39 50.4753 4.21001 50.5453 3.96001 50.4353C4.01001 50.4953 4.48001 50.7253 4.21001 50.8153C4.13001 50.7853 4.03 50.7853 3.88 50.8453C3.88 50.7253 3.75001 50.7353 3.57001 50.7153L3.61 50.5553C3.42 50.5753 3.42 50.6653 3.29 50.7053C3.1 50.6153 3.10001 50.4853 3.10001 50.3753C2.82001 50.2553 3.24 50.6353 2.87 50.5353C2.75 50.4753 2.68001 50.3853 2.56001 50.3453C2.45001 50.2953 2.31001 50.2853 2.17001 50.1853C2.08001 50.0053 2.26 50.1353 2.25 50.0553L2.04 50.0253C2.04 50.0253 2.05001 49.9753 2.07001 49.9653C1.94001 49.8953 1.93 50.0753 1.76 49.9053C1.67 49.9253 1.66001 49.7753 1.64001 49.6153C1.61001 49.4653 1.59001 49.2853 1.46001 49.1653C1.48001 49.0753 1.56 49.1653 1.61 49.1253C1.37 48.7753 1.38 48.8453 1.16 48.5253L1.21001 48.2053C1.13001 48.4453 0.940006 48.1953 0.780006 47.9353C0.740006 48.0253 0.7 48.1053 0.68 48.1553C0.62 48.0153 0.580003 47.8753 0.550003 47.7353C0.570003 47.6853 0.630005 47.7253 0.700005 47.7853C0.690005 47.7553 0.670004 47.7353 0.660004 47.7153C0.710004 47.5553 0.810002 47.6353 0.900002 47.7353C0.870002 47.7853 0.840005 47.8453 0.810005 47.8953C0.920005 47.9853 1.04 48.0653 1.13 48.0353C1.11 48.0153 1.08001 47.9653 1.06001 47.9153C1.09001 47.9353 1.12 47.9553 1.13 47.9353C1.14 47.9253 1.10001 47.8853 1.06001 47.8153L1.23 47.7053L1.16 47.6853L1.25 47.1553C1.05 46.7853 0.820001 46.4353 0.790001 45.8053C0.900001 45.9753 1 45.8553 1.15 45.8853C0.970002 46.0353 1.19 46.3653 1.15 46.6653C1.18 46.5053 1.25 46.5453 1.27 46.5853L1.15 46.0153C1.27 46.0353 1.25 45.9053 1.33 45.7653C1.07 45.8453 1.22001 45.3253 1.17001 45.0853C1.25001 45.0853 1.33001 45.1553 1.28001 45.4253C1.51001 45.1453 1.03 44.9853 1.25 44.7053C1.24 44.7753 1.22 44.8053 1.25 44.8453C1.21 44.6753 1.35 44.2953 1.4 44.4053V44.4753C1.49 44.0353 1.70001 43.1253 1.53001 43.0053C1.56001 43.0053 1.76 43.1353 1.79 43.1753C1.64 42.8553 1.47 42.5153 1.34 42.1753C1.49 42.2953 1.99 42.1753 1.97 42.5653C2.03 42.4753 2.1 42.3553 2.12 42.1153C2.07 42.1753 1.81 42.2053 1.83 42.1053C2.12 41.9053 2 41.9553 2.27 41.6953C2.2 41.7853 1.97 41.5753 2.04 41.4053C2.07 41.4453 2.31001 41.4953 2.32001 41.5653C2.28001 41.3953 2.25 41.2253 2.22 41.0553C2.22 41.1753 2.43 41.1653 2.55 41.1053C2.48 41.1253 2.7 40.7553 2.72 40.6453L2.59 40.7953C2.82 40.3553 2.41 40.1753 2.65 39.7353C2.67 39.8153 2.91 40.0253 3.05 39.8153C2.97 39.6553 2.65 39.0453 2.77 38.5953L2.89001 38.5653L2.98 38.2253C3.05 38.5153 3.16 39.2553 3.19 39.6253C3.33 39.4853 3.30001 39.6253 3.42001 39.3753C3.53001 39.3253 3.46001 39.5653 3.42001 39.6353C3.53001 39.4553 3.63 39.2653 3.76 39.0953C3.6 39.0353 3.86 38.5953 3.73 38.5453L3.53001 39.2353C3.36001 39.1753 3.32 38.6553 3.58 38.2653C3.7 38.1953 3.79001 38.4953 3.85001 38.5153C3.83001 38.4353 3.97001 38.0853 4.03001 38.0753L4.01 38.2853C4.19 38.0953 4.04001 37.8153 4.35001 37.6553C4.42001 37.5753 4.7 37.5253 4.63 37.4453C4.38 37.4753 3.87001 37.1753 3.82001 36.9853C3.86001 36.9653 4.29 36.6153 4.45 36.5753C4.68 36.5253 4.58 36.9953 4.77 36.9553C4.73 36.9253 4.75 36.8153 4.77 36.7753C4.87 36.7153 4.85001 36.8953 4.99001 36.6953C4.88001 36.5553 5.31 36.3253 4.95 36.5153C5.06 36.3053 5.14 36.3453 5.3 36.1253C5.16 36.1253 5.16 35.6753 5.3 35.4753C5.32 35.5153 5.4 35.5153 5.44 35.5153C5.8 35.1753 6.02 35.0253 6.36 34.7253C6.42 34.7253 6.62001 34.6253 6.60001 34.7353C6.63001 34.6753 6.64001 34.5853 6.74001 34.4953C7.04001 34.4353 6.52 34.7153 6.79 34.7153C6.74 34.6253 6.97 34.3853 7.09 34.2053C6.95 34.1253 6.72 34.4853 6.61 34.6553C6.47 34.4953 6.59 34.1053 6.91 33.7053C7.19 33.4353 7.13 33.7153 7.16 33.6553C7.76 33.2653 7.44 32.9853 8.02 32.7653C8.29 32.7453 8.18001 32.9753 8.28001 33.0253C8.05001 33.2353 7.84001 33.2353 7.67001 33.3553L7.92001 33.2553C7.87001 33.3453 7.72001 33.5053 7.60001 33.5353C7.82001 33.5053 8.6 32.8553 9.12 32.6353C9.18 32.5453 9.3 32.4153 9.2 32.4153L9.06001 32.5253C8.86001 32.5253 9.26 32.2253 9.04 32.2953C9.2 32.1053 9.36 31.8653 9.68 31.7353L9.81001 31.8353C9.81001 31.8353 9.58 31.8753 9.52 31.9653C9.6 31.8353 10.06 31.8753 10.09 31.6253L9.83 31.6553C10 31.4753 10.17 31.1853 10.46 31.0753C10.27 31.0153 10.41 31.1253 10.14 31.0753C10.41 31.1753 9.47 31.4453 9.84 31.5053C9.54 31.4353 9.48001 31.6253 9.14001 31.6353C9.17001 31.6753 9.28 31.6653 9.05 31.7753C9.05 31.7953 9.04001 31.8253 9.03001 31.8453H9.01H9.02C9.02 31.8553 9.02 31.8553 9.02 31.8453C9.08 31.8353 9.14001 31.8253 9.17001 31.8453C9.13001 32.0153 8.79001 32.2153 8.71001 32.3453C8.57001 32.4053 8.73 32.2653 8.63 32.2653L8.51 32.4553C8.43 32.3753 8.08 32.5253 8.33 32.2753L8.07001 32.4453C7.88001 32.4953 7.65 32.6153 7.55 32.7553C7.42 32.8253 7.32 33.0753 7.37 32.9253L7.01 33.2753L6.99001 33.2553C6.58001 33.5153 6.31001 34.0453 5.74001 34.2553C5.63001 34.3853 5.54001 34.5453 5.32001 34.7153L5.21001 34.6853C5.08001 34.8653 4.68 35.0853 4.69 35.2253C4.35 35.2353 3.98001 36.0053 3.71001 36.2753L3.8 36.3653C3.65 36.5753 3.53001 36.8053 3.39001 37.0953L3.49001 37.1453C3.40001 37.4153 3.03 37.6953 2.83 38.0753C2.81 38.0253 2.87 37.9353 2.94 37.8853C2.45 38.2053 2.55 38.9253 2.18 39.2653C2.16 39.3853 2.11 39.4553 2.05 39.5153C2.05 39.5153 2.05 39.4953 2.05 39.4853C2.05 39.4953 2.04001 39.5153 2.03001 39.5253C1.99001 39.5653 1.94 39.6053 1.9 39.6453C1.95 39.6153 1.99 39.5753 2.02 39.5453C1.98 39.6253 1.93 39.7553 1.9 39.8853H1.77C1.77 39.8853 1.77 39.9053 1.77 39.9153C1.68 40.0153 1.78001 40.0353 1.89001 40.0053C1.89001 40.0753 1.88001 40.1453 1.89001 40.1953C1.67001 40.2153 1.81001 40.5453 1.57001 40.5953C1.63001 40.7153 1.38001 41.2453 1.57001 41.3953C1.54001 41.3953 1.52 41.4253 1.54 41.3553C1.47 41.4853 1.4 41.6153 1.41 41.7653H1.24001L1.33 42.1453C1.18 42.3053 1.1 42.3653 1.05 42.1453C1.07 42.6553 1.00001 42.5353 1.06001 42.9753L0.970001 42.9253C0.930001 43.0653 1 43.3253 0.900002 43.3853C0.630002 43.6553 0.520002 44.9353 0.260002 45.7453C0.560002 45.6053 0.0900073 46.1253 0.320007 46.1753C0.250007 46.2153 0.200002 46.3353 0.150002 46.1953C0.200002 46.6353 -0.00999542 46.8453 0.200005 47.1553C0.130005 47.2053 0.0900052 47.0653 0.0600052 47.1053C0.0800052 47.1453 0.130004 47.2453 0.090004 47.2953C0.050004 47.3453 0.03 47.2353 0 47.1653C0.03 47.6253 0.250005 47.6553 0.450005 47.6753C0.360005 47.9053 0.380003 48.0153 0.550003 48.1653C0.500003 48.2453 0.450005 48.3953 0.380005 48.1153C0.400005 48.2653 0.430005 49.0853 0.630005 49.0553C0.610005 49.1153 0.690001 49.2753 0.720001 49.3053C0.830001 49.6453 0.810002 49.6853 1.01 49.9953L0.980003 49.8953C1.22 49.9253 1.16 50.1253 1.33 50.3553H1.31001C1.68001 50.9253 1.52 50.5553 1.94 51.0753L1.98 50.9553C2.17 50.7653 2.37 51.4253 2.8 51.4253L2.7 51.3153C2.9 51.3053 3.14 51.8453 3.37 51.8853C3.41 51.9153 3.29 51.9053 3.22 51.9153C3.77 52.1453 3.32001 51.7753 3.74001 51.7953C3.81001 51.8853 3.62 52.0053 3.9 52.0453C4.05 52.1053 4.71001 51.7953 5.07001 51.8753C4.98001 51.8253 4.90001 51.7653 5.07001 51.6953C5.34001 51.6453 5.86001 51.8153 6.06001 51.5453C6.10001 51.5453 6.12 51.5653 6.12 51.5853C6.32 51.4953 6.76 51.3153 6.83 51.1653C7.16 51.5153 7.95 50.5253 8.09 50.8753C8.28 50.7853 8.48 50.6953 8.66 50.5953V50.6353C9.04 50.4753 9.12001 50.3253 9.21001 50.1853C9.31001 50.1653 9.26 50.2253 9.26 50.2453C9.82 50.0353 9.86 49.9753 10.19 49.5753L10.3 49.6553C10.38 49.5253 11.13 49.3653 11.53 48.9153C11.53 48.9253 11.53 48.9553 11.51 48.9953C11.95 48.5053 12.98 48.3553 12.88 47.8353L13.14 47.4853C12.69 47.7953 13.08 47.2853 12.86 47.3653C13.01 47.2153 13.38 47.1153 13.19 47.3053H13.14C13.22 47.5653 13.71 46.9353 13.8 47.0653C14.62 46.3553 15.46 45.6853 16.17 44.9453L15.95 44.9053C16.04 44.8253 16.11 44.7353 16.19 44.6453C16.28 44.6053 16.38 44.6453 16.21 44.8353C16.37 44.8053 16.42 44.4553 16.4 44.4253C16.78 44.0953 16.44 44.7153 16.54 44.5953L16.66 44.4253L16.61 44.4453C16.66 44.2653 16.61 44.2053 16.81 43.9753C16.96 43.8453 16.96 43.9753 17.02 43.9153C17.02 43.9153 17.05 43.9153 17.09 43.8253L17.37 43.4753L17.15 43.5353C17.21 43.3353 17.41 43.2053 17.15 43.2653C17.55 43.1853 18.18 41.9453 18.35 41.8353C18.4 41.5353 18.54 41.3053 18.73 41.0153C18.66 41.0753 18.49 41.0353 18.66 40.7953C18.91 41.0553 19.04 40.3953 19.36 40.2853C19.12 40.4053 19.71 39.5153 19.36 39.7153C19.49 39.5053 19.48 39.7553 19.63 39.6153C19.69 39.3153 19.84 39.0353 20 38.7253C20.15 38.4153 20.31 38.0853 20.41 37.7353C20.37 37.7153 20.27 37.8053 20.25 37.6353L20.57 37.3253C20.59 37.1753 20.36 37.1253 20.58 36.9153C20.53 36.9453 20.47 36.9853 20.48 36.8853C21.05 35.5153 20.84 34.0053 20.84 32.4453C20.81 32.6753 20.77 32.5353 20.73 32.3853C20.73 32.4953 20.62 32.4153 20.57 32.4453C20.59 32.2253 20.53 32.0153 20.51 31.7853C20.34 31.7353 20.19 31.1653 20.01 31.1953L20.14 31.3553C19.84 31.2353 19.98 31.8653 19.71 31.9353C20.01 32.1053 19.68 32.6553 20.04 32.9953C20.01 33.0953 19.95 32.9353 19.9 32.9953C20.03 33.0753 20.08 33.2053 20.05 33.4553L20.02 33.4353C20.07 33.7753 20.08 34.0153 20.03 34.2753C20 34.5353 19.96 34.7953 19.87 35.1753L19.99 35.1353C19.96 35.3053 19.92 35.3353 19.88 35.4053C20.04 35.6253 19.94 34.9353 20.12 35.1353C19.88 35.3353 19.93 36.3253 19.63 36.4153C19.57 36.6653 19.79 36.3753 19.72 36.6253L19.63 36.6753L19.7 36.7653C19.64 36.9253 19.53 36.9853 19.46 36.9753C19.48 36.9353 19.47 36.8553 19.48 36.8153C19.33 37.0053 19.35 37.4153 19.29 37.4853C19.34 37.4153 19.37 37.3353 19.41 37.2653C19.27 37.9653 18.85 38.7353 18.7 39.4253L18.77 39.4053C18.62 39.9253 18.52 39.7553 18.3 40.3053V40.2753C18.3 40.4053 18.24 40.5553 18.15 40.6953C18.17 40.5353 17.9 40.8753 17.93 40.6653C17.73 41.2153 17.86 40.9553 17.84 41.3953L17.72 41.4253C17.72 41.5753 17.75 41.6153 17.61 41.8753C17.68 41.6353 17.39 41.9553 17.45 41.6753C16.94 42.0653 17.11 42.5553 16.7 42.6053C16.74 42.9853 17.14 42.2653 17.08 42.4253C17.23 42.3653 17.1 42.7253 16.96 42.8653C16.84 43.0253 16.49 42.9353 16.2 43.3353C16.23 43.2953 16.22 43.2853 16.25 43.2453C16.09 43.3553 16.09 43.5753 15.86 43.6853C15.9 43.8853 15.66 43.9053 15.79 44.0653L16.05 43.6853C15.92 43.9153 15.94 44.2553 15.58 44.5053C15.58 44.4553 15.62 44.3253 15.65 44.2353C15.53 44.2953 15.52 44.4453 15.39 44.4953C15.28 44.3453 15.72 44.0553 15.78 43.7453C15.63 43.7953 15.55 44.2353 15.48 43.9853C15.56 44.3253 15.13 44.3253 15.06 44.7053L14.99 44.6053C14.97 44.6553 14.93 44.7753 14.86 44.8453V44.6153C14.78 44.8953 14.44 44.9153 14.3 45.1453C14.68 44.7653 14.49 45.1653 14.71 45.0553C14.35 45.6453 14.22 45.1053 13.72 45.6653C13.78 45.5853 14.04 45.4553 13.97 45.6053C13.85 45.6853 13.68 45.7853 13.58 45.7953C13.23 46.1453 13.72 45.8353 13.61 46.0353C13.39 46.0353 13.47 46.2353 13.33 46.4153L13.25 46.3253C12.77 46.6353 13.3 46.6153 12.85 46.8753L12.91 46.6053L12.74 46.8153L12.69 46.6753C12.53 46.9353 12.44 46.9653 12.2 47.1153C12.3 47.1453 12.31 47.3053 12.11 47.4653C11.93 47.5153 12.11 47.3153 11.85 47.5453C11.87 47.4353 11.88 47.3053 12.07 47.2953C12.06 47.2553 12.09 47.1853 12.07 47.1453C11.87 47.1953 11.7 47.4153 11.59 47.4953C11.63 47.4653 11.68 47.4453 11.72 47.4353L11.4 47.8653C11.31 47.8753 11.34 47.8053 11.37 47.7453C11.29 47.8153 11.27 47.9053 11.15 48.0053C11.13 47.9053 11.06 47.8253 11.21 47.6653L10.88 48.0353C10.88 48.0353 10.61 48.0853 10.64 48.0153C10.38 48.1153 10.19 48.5353 9.85001 48.6653C9.85001 48.6953 9.82 48.7253 9.76 48.7753C9.46 48.9253 9.14 48.9653 8.86 49.2853L8.58 49.2353C8.32 49.4053 8.95 49.2953 8.52 49.5853C8.22 49.8053 8.33 49.5153 8.19 49.5253C8.07 49.6953 7.86001 49.9853 7.49001 49.9853C7.58001 49.9153 7.67 49.9053 7.76 49.8453V49.8153ZM4.21001 50.8153C4.28001 50.7853 4.41 50.7053 4.47 50.7753C4.4 50.9153 4.33001 50.8453 4.21001 50.8153ZM0.970001 47.3753C1.01 47.4253 1.00001 47.5153 0.960007 47.6153C0.950007 47.5453 0.950001 47.4653 0.970001 47.3753ZM7.9 32.6253C7.79 32.6753 7.73 32.6953 7.9 32.6253ZM8.22 32.4653C8.22 32.4653 8.22001 32.4153 8.21001 32.4153C8.21001 32.4553 8.14001 32.5053 8.06001 32.5453C8.10001 32.5553 8.15 32.5453 8.22 32.4653ZM17 43.8653L16.93 43.9053C17 43.7553 17 43.8153 17 43.8653Z" fill="white"/>
<path d="M1.17999 48.0153C1.17999 48.0153 1.14 48.0453 1.12 48.0553C1.14 48.0853 1.16999 48.0753 1.17999 48.0153Z" fill="white"/>
<path d="M4.85998 36.8853C4.79998 36.9253 4.75998 36.9453 4.72998 36.9553C4.74998 36.9753 4.78998 36.9553 4.85998 36.8853Z" fill="white"/>
<path d="M9.74005 31.2553L9.55005 31.4053C9.64005 31.3353 9.69005 31.3453 9.75005 31.3353C9.73005 31.3153 9.67005 31.3053 9.73005 31.2653L9.74005 31.2553Z" fill="white"/>
<path d="M11.85 30.9553C11.85 30.9553 11.91 30.9253 11.94 30.8953L11.91 30.8453C11.78 30.9053 11.71 30.9953 11.86 30.9453L11.85 30.9553Z" fill="white"/>
<path d="M10.12 31.4953C10.19 31.5753 10.29 31.4753 10.43 31.3753H10.41C10.38 31.2453 10.25 31.3753 10.13 31.4953H10.12Z" fill="white"/>
<path d="M10.46 31.3453C10.46 31.3453 10.54 31.2853 10.59 31.2653C10.58 31.2053 10.53 31.2853 10.46 31.3453Z" fill="white"/>
<path d="M8.56998 32.1453C8.64998 32.1253 8.53998 32.0053 8.59998 32.0153C8.59998 31.8553 8.25998 32.4353 8.56998 32.1453Z" fill="white"/>
<path d="M10.41 31.7153L10.29 31.6353L10.27 31.7653L10.41 31.7153Z" fill="white"/>
<path d="M9.28003 32.2953L9.51003 32.1853C9.51003 32.1853 9.51003 32.1453 9.55003 32.1153C9.41003 32.1953 9.25003 32.2653 9.28003 32.2953Z" fill="white"/>
<path d="M9.55005 32.1153C9.62005 32.0753 9.69005 32.0253 9.71005 31.9853C9.67005 32.0053 9.59005 32.0653 9.55005 32.1153Z" fill="white"/>
<path d="M10.12 31.9253L10.04 31.9353L9.88 32.0253L10.12 31.9253Z" fill="white"/>
<path d="M7.01006 33.8453L6.82007 34.0553C6.82007 34.1053 6.90006 34.0753 6.97006 33.9953C7.00006 33.9253 7.07007 33.8553 7.02007 33.8453H7.01006Z" fill="white"/>
<path d="M7.88999 33.6253C7.80999 33.6453 7.78999 33.6253 7.73999 33.6253L7.81999 33.7553L7.88999 33.6253Z" fill="white"/>
<path d="M7.26002 34.1253C7.26002 34.1253 7.03002 34.4753 7.29002 34.2453C7.29002 34.1953 7.49002 34.0053 7.26002 34.1253Z" fill="white"/>
<path d="M4.26997 36.9753L4.30997 36.9153L4.09998 36.7753L4.26997 36.9753Z" fill="white"/>
<path d="M2.98999 40.4153C3.17999 40.1553 2.87999 40.2753 3.07999 40.0553C3.05999 39.9653 2.91999 40.2453 2.90999 40.1453C2.87999 40.3453 2.80999 40.4253 2.99999 40.4153H2.98999Z" fill="white"/>
<path d="M2.89996 40.1453C2.89996 40.1453 2.89996 40.0753 2.89996 40.0353C2.88996 40.0953 2.88996 40.1253 2.89996 40.1453Z" fill="white"/>
<path d="M20.43 31.3553L20.35 31.1153L20.36 31.2953L20.43 31.3553Z" fill="white"/>
<path d="M20.0301 31.0653L20.1301 30.9253L19.9301 30.8853C19.9301 30.8853 20.0301 31.0053 20.0201 31.0653H20.0301Z" fill="white"/>
<path d="M3.72996 50.4653L3.70996 50.5053C3.70996 50.5053 3.76996 50.5553 3.84996 50.5753L3.72996 50.4653Z" fill="white"/>
<path d="M6.22994 50.2653L6.18994 50.2853L6.30994 50.3953L6.22994 50.2653Z" fill="white"/>
<path d="M8.26 49.2253C8.17 49.2653 8.09 49.3453 8 49.3753C8.17 49.2553 8.36 49.3753 8.26 49.2253Z" fill="white"/>
<path d="M47.37 10.2253C47.37 10.2253 47.41 10.3153 47.42 10.3353C47.45 10.2853 47.35 10.2053 47.37 10.2253Z" fill="white"/>
<path d="M47.61 9.73533L47.63 9.77533L47.62 9.64533L47.61 9.73533Z" fill="white"/>
<path d="M47.97 9.44533C47.82 9.33533 47.86 9.57533 47.75 9.57533L47.71 9.55533L47.77 9.69533C47.84 9.61533 47.88 9.46533 47.96 9.45533L47.97 9.44533Z" fill="white"/>
<path d="M48.41 9.57533C48.35 9.53533 48.41 9.49533 48.35 9.59533C48.35 9.59533 48.36 9.59533 48.37 9.59533C48.37 9.59533 48.39 9.57533 48.41 9.56533V9.57533Z" fill="white"/>
<path d="M48.5199 9.42533V9.51534C48.5199 9.51534 48.5999 9.51533 48.5999 9.54533C48.6299 9.47533 48.5999 9.45533 48.5199 9.42533Z" fill="white"/>
<path d="M48.48 9.28533V9.32533C48.48 9.32533 48.5 9.32533 48.48 9.28533Z" fill="white"/>
<path d="M48.46 9.41533L48.48 9.32533C48.48 9.32533 48.42 9.26533 48.47 9.36533C48.44 9.32533 48.47 9.36533 48.47 9.41533H48.46Z" fill="white"/>
<path d="M48.4099 9.42533C48.3599 9.42533 48.3099 9.42533 48.3099 9.34533C48.2299 9.44533 48.3299 9.52533 48.4099 9.42533Z" fill="white"/>
<path d="M47.8799 9.28533H47.8099V9.34533C47.8099 9.30533 47.9099 9.32533 47.8699 9.28533H47.8799Z" fill="white"/>
<path d="M48.8899 9.22533C48.8899 9.22533 48.8099 9.16533 48.7699 9.13533V9.20533C48.7699 9.20533 48.8499 9.19533 48.8899 9.23533V9.22533Z" fill="white"/>
<path d="M48.7699 9.13533V9.03533C48.7699 9.03533 48.7399 9.10533 48.7699 9.13533Z" fill="white"/>
<path d="M48.36 9.13533V9.31533L48.38 9.11533L48.36 9.13533Z" fill="white"/>
<path d="M49.1 9.04533L49.13 9.13533L49.1 8.98533V9.04533Z" fill="white"/>
<path d="M49.23 8.90533C49.26 8.97533 49.35 8.96533 49.35 9.02533C49.38 8.98533 49.37 8.90533 49.35 8.83533C49.35 8.88533 49.3 8.91533 49.22 8.90533H49.23Z" fill="white"/>
<path d="M48.8899 8.96533C48.8899 8.96533 48.9599 9.01533 49.0099 9.00533L48.9199 8.94534L48.8999 8.96533H48.8899Z" fill="white"/>
<path d="M48.9099 8.94534C48.9099 8.94534 48.9499 8.91533 48.9599 8.90533C48.9599 8.90533 48.9399 8.91534 48.9099 8.94534Z" fill="white"/>
<path d="M48.57 9.08533C48.57 9.01533 48.58 8.90533 48.46 8.89533C48.49 8.96533 48.56 8.97533 48.57 9.08533Z" fill="white"/>
<path d="M48.7599 8.89533L48.6899 8.92533C48.6899 8.92533 48.7499 8.96533 48.7499 9.00533V8.89533H48.7599Z" fill="white"/>
<path d="M48.77 8.84533L48.76 8.89533L48.79 8.88533L48.77 8.84533Z" fill="white"/>
<path d="M49.18 8.74533C49.18 8.68533 49.2 8.66534 49.22 8.62534C49.17 8.63534 49.13 8.66534 49.1 8.69534C49.12 8.72534 49.15 8.77533 49.18 8.74533Z" fill="white"/>
<path d="M49.51 8.34533L49.49 8.33533L49.5 8.34533H49.51Z" fill="white"/>
<path d="M49.0799 8.68534C49.0799 8.68534 49.0499 8.72534 49.0499 8.76534C49.0599 8.74534 49.0799 8.71534 49.0999 8.69534C49.0999 8.68534 49.0899 8.67534 49.0799 8.69534V8.68534Z" fill="white"/>
<path d="M49.3899 8.61533C49.3899 8.61533 49.3299 8.61533 49.3099 8.61533C49.3499 8.62533 49.4099 8.63533 49.3899 8.61533Z" fill="white"/>
<path d="M49.0699 8.84533C49.0699 8.84533 49.0699 8.79534 49.0599 8.76534C49.0599 8.78534 49.0499 8.80533 49.0399 8.82533C49.0399 8.82533 49.0599 8.82533 49.0699 8.83533V8.84533Z" fill="white"/>
<path d="M49.0999 7.77533C49.1699 7.84533 49.1699 7.97534 49.0499 7.94534C49.0499 8.04534 49.3199 8.24533 49.4899 8.32533C49.4599 8.29533 49.4299 8.26533 49.4399 8.17533C49.3799 8.15533 49.2299 8.20533 49.2099 8.09533C49.2399 7.98533 49.2899 8.06533 49.3599 8.06533C49.2399 8.00533 49.3199 7.85533 49.1699 7.74533V7.84533C49.1699 7.84533 49.1199 7.77533 49.0899 7.77533H49.0999Z" fill="white"/>
<path d="M49.3799 8.42533V8.45533C49.3799 8.45533 49.4499 8.45533 49.5399 8.47533C49.5399 8.40533 49.5199 8.36533 49.4999 8.34533L49.3799 8.44534V8.42533Z" fill="white"/>
<path d="M49.2699 8.56533C49.2099 8.47533 49.2299 8.38533 49.1199 8.33533C49.0599 8.40533 49.1399 8.44534 49.1299 8.51534C49.2199 8.39534 49.1399 8.58533 49.2599 8.55533C49.2599 8.58533 49.2399 8.61533 49.2199 8.63533C49.2499 8.63533 49.2799 8.62533 49.3099 8.61533C49.3099 8.61533 49.2899 8.60533 49.2999 8.60533L49.2799 8.56533C49.3299 8.54533 49.2999 8.58533 49.2999 8.59533V8.60533L49.3599 8.45533C49.3599 8.45533 49.2999 8.49533 49.2599 8.55533L49.2699 8.56533Z" fill="white"/>
<path d="M48.36 8.66533C48.36 8.66533 48.37 8.67533 48.38 8.68533C48.38 8.66533 48.38 8.65533 48.36 8.66533Z" fill="white"/>
<path d="M48.4499 8.67533C48.4499 8.67533 48.4699 8.73533 48.4499 8.74533C48.4099 8.74533 48.4199 8.70533 48.3899 8.68533C48.3899 8.72533 48.3899 8.79533 48.4699 8.78533V8.76534C48.5399 8.75534 48.6799 8.80533 48.6799 8.81533C48.5999 8.75533 48.5399 8.71533 48.4499 8.66533V8.67533Z" fill="white"/>
<path d="M48.8399 8.59533L48.8899 8.47533L48.7799 8.44534L48.8199 8.48533C48.7499 8.51533 48.8199 8.55533 48.8399 8.59533Z" fill="white"/>
<path d="M49.5599 8.36533L49.6299 8.45533L49.5599 8.29533V8.36533Z" fill="white"/>
<path d="M49.6599 8.24533L49.7299 8.31533L49.7199 8.24533H49.6599Z" fill="white"/>
<path d="M48.3199 1.33533L48.2799 1.35533C48.2799 1.35533 48.3099 1.34533 48.3199 1.33533Z" fill="white"/>
<path d="M48.52 1.41533L48.54 1.37534C48.54 1.37534 48.51 1.41533 48.52 1.41533Z" fill="white"/>
<path d="M51.6599 4.62534C51.7599 4.57534 51.9099 4.51534 51.7899 4.51534H51.6799C51.6999 4.56534 51.6799 4.59534 51.6599 4.62534Z" fill="white"/>
<path d="M50.3399 2.11533L50.3199 2.14533C50.3199 2.14533 50.3899 2.12533 50.4299 2.11533C50.3999 2.11533 50.3699 2.11533 50.3399 2.11533Z" fill="white"/>
<path d="M49.96 2.35533L49.98 2.26534C49.98 2.26534 49.96 2.32533 49.96 2.35533Z" fill="white"/>
<path d="M47.1099 1.25533L47.0699 1.36533C47.1299 1.36533 47.0999 1.30533 47.1099 1.25533Z" fill="white"/>
<path d="M50.6999 6.91533C50.7599 6.89533 50.7999 6.87533 50.8199 6.84533C50.7399 6.86533 50.6299 6.84533 50.6999 6.91533Z" fill="white"/>
<path d="M48.77 0.27533C48.77 0.27533 48.72 0.305333 48.72 0.325333C48.75 0.325333 48.77 0.30533 48.77 0.27533Z" fill="white"/>
<path d="M50.8899 6.72533C50.8899 6.72533 50.8699 6.72533 50.8499 6.72533C50.8499 6.76533 50.8499 6.80533 50.8099 6.83533C50.8699 6.82533 50.9199 6.79533 50.8799 6.71533L50.8899 6.72533Z" fill="white"/>
<path d="M40.83 2.26534C40.83 2.26534 40.86 2.23533 40.88 2.22533C40.87 2.22533 40.85 2.23534 40.83 2.26534Z" fill="white"/>
<path d="M49.6999 7.62534C49.6999 7.62534 49.6899 7.59533 49.6699 7.58533C49.6899 7.60533 49.6999 7.61534 49.6999 7.62534Z" fill="white"/>
<path d="M50.0699 7.78533C50.0699 7.78533 50.1099 7.78533 50.1199 7.77533C50.1099 7.77533 50.0899 7.77533 50.0699 7.78533Z" fill="white"/>
<path d="M50.11 7.81533C50.11 7.81533 50.09 7.82533 50.08 7.83533C50.09 7.85533 50.1 7.85533 50.11 7.81533Z" fill="white"/>
<path d="M50.16 7.74533C50.16 7.74533 50.13 7.77533 50.11 7.78533C50.12 7.78533 50.13 7.78533 50.13 7.78533C50.13 7.78533 50.14 7.76533 50.16 7.74533Z" fill="white"/>
<path d="M44.9099 1.15533C44.9099 1.19533 44.8899 1.20533 44.9099 1.15533Z" fill="white"/>
<path d="M50.5499 3.76534L50.5599 3.75533L50.5499 3.76534Z" fill="white"/>
<path d="M50.45 3.67533C50.59 3.69533 50.58 3.72533 50.55 3.75533L50.86 3.67533H50.45Z" fill="white"/>
<path d="M47.7999 1.24533L47.8499 1.35533C47.7299 1.50533 47.6899 1.43534 47.7299 1.58534C47.7999 1.24534 47.9899 1.60533 48.0799 1.27533L48.1099 1.35533C48.1099 1.35533 48.0899 1.36533 48.0799 1.35533C48.1299 1.53533 48.2099 1.13533 48.3199 1.21533C48.3599 1.24533 48.3699 1.30534 48.3199 1.33534L48.4299 1.28533C48.4299 1.28533 48.4299 1.35534 48.4099 1.33534L48.5499 1.35533C48.5499 1.35533 48.6599 1.26533 48.6999 1.23533C48.7199 1.29533 48.6699 1.26533 48.6599 1.30533L48.7699 1.25533C48.7699 1.34533 48.6699 1.40534 48.6199 1.37534C48.5499 1.71534 48.7199 1.30533 48.7699 1.56533H48.6899C48.6499 1.76533 48.7199 1.72533 48.7299 1.86533C48.7499 1.80533 48.7299 1.52533 48.8399 1.48533C48.8399 1.51533 48.8699 1.54533 48.9399 1.50533C48.8799 1.61533 48.9399 1.60534 48.9899 1.62534L48.9099 1.76534C48.9799 1.75534 49.0199 1.67533 49.0899 1.63533C49.1399 1.68533 49.0799 1.79533 49.0299 1.89533C49.0899 1.97533 49.0799 1.68533 49.1999 1.73533C49.2299 1.83533 49.3199 1.81533 49.4599 1.80533C49.4699 1.88533 49.3899 1.87533 49.3799 1.92533L49.4999 1.86533C49.4999 1.86533 49.4799 1.90533 49.4599 1.91533C49.5199 1.91533 49.5699 1.79533 49.6499 1.81533C49.7899 1.70533 49.5799 2.10533 49.7799 2.02533C49.7599 2.07533 49.6999 2.08534 49.6599 2.12534C49.8399 2.12534 49.7999 2.14534 49.9999 2.12534L49.9699 2.26534C50.0199 2.13534 50.1899 2.11533 50.3299 2.11533C50.3599 2.06533 50.3899 2.01533 50.3999 1.98533L50.5499 2.04533C50.5499 2.04533 50.4899 2.09533 50.4199 2.11533H50.4699C50.4499 2.18533 50.3599 2.21533 50.2699 2.24533L50.3199 2.15533C50.2199 2.18533 50.1199 2.22533 50.0499 2.28533C50.0699 2.28533 50.0899 2.28533 50.1099 2.28533C50.0799 2.28533 50.0599 2.30533 50.0499 2.31533C50.0399 2.32533 50.0799 2.31533 50.1199 2.31533L49.9899 2.44534L50.0499 2.40533C50.0499 2.46533 50.0499 2.52533 50.0499 2.59533C50.2499 2.59533 50.5299 2.54533 50.6999 2.67533C50.5599 2.69533 50.4999 2.76534 50.3699 2.83534C50.4899 2.71534 50.2399 2.74533 50.2199 2.65533C50.2199 2.70533 50.1599 2.73533 50.1299 2.73533L50.3399 2.80533C50.2299 2.86533 50.2699 2.87533 50.2499 2.93533C50.4599 2.79533 50.4399 2.97533 50.5399 3.00533C50.4599 3.04533 50.3799 3.06533 50.3699 2.98533C50.2299 3.13533 50.6799 2.97533 50.5699 3.11533C50.5699 3.09533 50.5699 3.08533 50.5299 3.09533C50.6199 3.11533 50.6099 3.23533 50.5299 3.23533V3.21533C50.5499 3.34533 50.6099 3.58533 50.8299 3.56533C50.7999 3.56533 50.5699 3.59533 50.5299 3.59533C50.7799 3.61533 51.0399 3.65533 51.2799 3.72533C51.0999 3.72533 50.6699 3.85534 50.5599 3.76534C50.5399 3.79534 50.5099 3.83533 50.5799 3.89533C50.5999 3.87533 50.8399 3.81533 50.8599 3.84533C50.6599 3.94533 50.7599 3.91534 50.5899 4.01534C50.6299 3.98534 50.9199 4.00533 50.9099 4.05533C50.8699 4.05533 50.6299 4.06533 50.5999 4.05533C50.6999 4.09533 50.7999 4.13533 50.8799 4.17533C50.8299 4.14533 50.6399 4.17534 50.5599 4.19534C50.6199 4.18534 50.5499 4.29533 50.5699 4.32533L50.6399 4.27533C50.5899 4.40533 51.0199 4.44533 50.9999 4.60533C50.9399 4.57533 50.6499 4.51533 50.6099 4.57533C50.7499 4.62533 51.2599 4.84533 51.3299 5.02533H51.2399L51.3099 5.17533C51.1199 5.03533 50.7199 4.75533 50.5599 4.64533C50.4799 4.68533 50.4599 4.64533 50.4499 4.71533C50.3699 4.71533 50.3399 4.65533 50.3399 4.63533L50.2599 4.78533C50.4199 4.81533 50.3999 4.95533 50.5299 4.98533L50.3999 4.75533C50.5599 4.77533 50.8399 4.97533 50.7699 5.11533C50.6899 5.12533 50.4899 5.00533 50.4399 4.99533C50.4899 5.02533 50.4999 5.14533 50.4599 5.14533L50.3899 5.06533C50.3099 5.10533 50.5599 5.24533 50.3799 5.27533C50.3599 5.30533 50.1499 5.27533 50.2399 5.32533C50.4299 5.35533 50.9899 5.55533 51.1099 5.64533C51.0999 5.65533 50.8699 5.75533 50.7699 5.74533C50.6099 5.73533 50.4799 5.52534 50.3399 5.51534C50.3799 5.53534 50.4199 5.58533 50.4299 5.60533C50.3799 5.61533 50.3099 5.53533 50.2899 5.60533C50.4399 5.68533 50.2099 5.72534 50.4099 5.69534C50.4199 5.78534 50.3399 5.74533 50.3099 5.82533C50.4199 5.85533 50.6099 6.06533 50.6199 6.16533C50.5799 6.13533 50.5299 6.12534 50.4999 6.12534C50.4099 6.24534 50.2999 6.27533 50.2199 6.39533C50.1799 6.38533 50.0999 6.41533 50.0499 6.34533C50.0599 6.37533 50.0999 6.42533 50.0799 6.46533C49.9099 6.45533 50.1099 6.37533 49.9299 6.32533C50.0099 6.38533 49.9899 6.49533 49.9999 6.57533C50.1399 6.64533 50.0999 6.47533 50.0799 6.38533C50.2499 6.49533 50.3899 6.71533 50.3699 6.89533C50.3399 7.02533 50.2299 6.85533 50.2399 6.89533C50.0699 7.05533 50.4199 7.27534 50.1799 7.33534C50.0299 7.31534 49.9699 7.17534 49.8799 7.12534C49.8999 7.01534 50.0399 7.05533 50.0699 6.99533L49.9699 7.02533C49.9499 6.97533 49.9699 6.90533 50.0199 6.89533C49.8899 6.87533 49.7799 7.18533 49.5699 7.24533C49.5799 7.29533 49.5899 7.36533 49.6399 7.38533L49.6599 7.33534C49.7799 7.36534 49.7099 7.51533 49.7899 7.49533C49.7899 7.60533 49.8299 7.74533 49.7199 7.78533L49.5899 7.69534C49.5899 7.69534 49.6999 7.69533 49.6899 7.64533C49.7099 7.72533 49.4299 7.62533 49.5499 7.80533H49.6799C49.6799 7.92533 49.7399 8.10533 49.6399 8.14533C49.7799 8.21533 49.6399 8.11533 49.8199 8.18533C49.6199 8.08533 49.9899 8.00533 49.7599 7.92533C49.9599 8.00533 49.8999 7.89533 50.0999 7.93533C50.0599 7.90533 50.0099 7.89533 50.0799 7.85533C50.0799 7.84533 50.0599 7.82533 50.0599 7.81533C50.0299 7.81533 49.9999 7.81533 49.9699 7.79533C49.9099 7.68533 49.9899 7.59533 49.9699 7.52533C50.0199 7.50533 49.9999 7.57533 50.0599 7.59533L50.0299 7.48533C50.1199 7.55533 50.2599 7.50533 50.2299 7.63533L50.2999 7.55533C50.3899 7.55533 50.4599 7.49533 50.4499 7.42533C50.4999 7.39533 50.4299 7.25534 50.4699 7.33534L50.5099 7.16533L50.5299 7.18533C50.6399 7.06533 50.5699 6.81534 50.8399 6.76534C50.8399 6.70534 50.8399 6.63533 50.9199 6.57533L51.0099 6.60533C51.0099 6.52533 51.2099 6.46533 51.1299 6.38533C51.3999 6.43533 51.3399 6.08533 51.4399 5.99533L51.3299 5.93533C51.3799 5.85533 51.3699 5.75533 51.3599 5.63533L51.2499 5.60533C51.1899 5.48533 51.4099 5.40533 51.4399 5.25533C51.4799 5.27533 51.4599 5.31533 51.4199 5.32533C51.7199 5.21533 51.3299 4.90533 51.5499 4.79533C51.5199 4.74533 51.5399 4.72534 51.5699 4.69534C51.5899 4.67534 51.6099 4.65533 51.6299 4.64533C51.5999 4.65533 51.5799 4.67533 51.5699 4.68533C51.5699 4.65533 51.5699 4.60533 51.5399 4.55533H51.6599C51.6599 4.55533 51.6599 4.54533 51.6599 4.53533C51.7099 4.49533 51.6099 4.49533 51.5099 4.50533C51.4899 4.47533 51.4699 4.45533 51.4399 4.43533C51.6399 4.41533 51.3799 4.31534 51.5899 4.26534C51.4999 4.22534 51.5199 4.02533 51.2999 4.00533C51.3299 4.00533 51.3399 3.98533 51.3399 4.00533C51.3599 3.95533 51.3799 3.90533 51.3199 3.86533L51.4699 3.83534L51.2599 3.74533C51.3499 3.66533 51.3999 3.62533 51.5199 3.68533C51.3299 3.54533 51.4299 3.55533 51.2299 3.45533H51.3299C51.3099 3.39533 51.1699 3.34533 51.2399 3.30533C51.4099 3.13533 51.0999 2.78533 51.1399 2.45533C50.9099 2.63533 51.1899 2.27534 50.9799 2.37534C51.0299 2.32534 51.0499 2.27533 51.1199 2.28533C50.9899 2.19533 51.0999 2.03533 50.8899 2.04533C50.9399 1.99533 50.9899 2.01533 51.0199 1.98533C50.9999 1.98533 50.9499 1.98534 50.9699 1.94534C50.9999 1.90534 51.0299 1.93534 51.0699 1.94534C50.9799 1.81534 50.7899 1.93533 50.6199 2.03533C50.6499 1.92533 50.6199 1.90533 50.4799 1.93533C50.5199 1.87533 50.5499 1.80533 50.6199 1.85533C50.5999 1.81533 50.5099 1.55533 50.3799 1.65533C50.3999 1.61533 50.3499 1.59533 50.3199 1.59533C50.2499 1.50533 50.2499 1.48533 50.1599 1.42533V1.46533C49.9999 1.56533 50.0699 1.43533 49.9899 1.38533H50.0099C49.9499 1.12533 49.9099 1.35533 49.8399 1.11533L49.7799 1.21533C49.6099 1.41533 49.7299 0.985331 49.5699 0.995331V1.07533C49.4699 1.11533 49.6099 0.675334 49.5599 0.615334C49.5599 0.585334 49.5999 0.59533 49.6299 0.59533C49.5399 0.37533 49.5299 0.715334 49.3999 0.685334C49.4199 0.595334 49.5299 0.51533 49.4599 0.45533C49.4399 0.37533 49.1099 0.575333 49.0599 0.395333C49.0599 0.465333 49.0599 0.535329 48.9799 0.555329C48.8899 0.555329 48.8299 0.235335 48.6899 0.405335C48.6899 0.385335 48.6899 0.365332 48.6899 0.355332C48.6099 0.375332 48.4499 0.375335 48.3799 0.475335C48.4199 0.0553347 47.9299 0.56533 48.0099 0.20533H47.7999L47.8099 0.155335C47.6799 0.115335 47.6199 0.195332 47.5599 0.285332C47.5299 0.255332 47.5599 0.22533 47.5599 0.20533C47.3799 0.0953304 47.3499 0.125329 47.1799 0.305329V0.185334C47.1299 0.255334 46.8899 -0.0246638 46.6999 0.125336C46.6999 0.115336 46.6999 0.085331 46.7199 0.065331C46.5199 0.225331 46.1799 -0.25467 46.1399 0.20533L46.0199 0.335335C46.1999 0.345335 46.0199 0.53533 46.0999 0.59533C46.0399 0.63533 45.9099 0.485336 45.9899 0.445336L46.0099 0.465333C46.0099 0.225333 45.7799 0.415333 45.7699 0.255333C45.4199 0.305333 45.0699 0.265335 44.7399 0.335335L44.8199 0.505333L44.7099 0.52533C44.7099 0.52533 44.6299 0.395331 44.7099 0.385331C44.6399 0.295331 44.5999 0.505334 44.6099 0.545334C44.4399 0.515334 44.6099 0.325335 44.5599 0.335335L44.4999 0.365334L44.5199 0.385331C44.4899 0.475331 44.5099 0.545331 44.4099 0.565331C44.3399 0.545331 44.3499 0.465333 44.3199 0.465333C44.3199 0.455333 44.3099 0.445333 44.2799 0.465333L44.1399 0.495331L44.2399 0.615334C44.1999 0.705334 44.1099 0.645332 44.2199 0.785332C44.0499 0.575332 43.6899 0.885333 43.6099 0.825333C43.5699 0.955333 43.4799 0.975336 43.3799 1.01534C43.4199 1.03534 43.4899 1.17534 43.3999 1.19534C43.2999 0.875336 43.1899 1.13534 43.0199 0.945336C43.1499 1.06534 42.7899 1.09533 42.9899 1.25533C42.9099 1.25533 42.9299 1.14533 42.8499 1.09533C42.7299 1.28533 42.4399 1.20533 42.2599 1.34533C42.2799 1.38533 42.3399 1.42533 42.3299 1.50533L42.1199 1.36533C42.1199 1.36533 42.2099 1.60534 42.0599 1.51534C42.0899 1.54534 42.1299 1.58533 42.1099 1.60533C41.6099 1.65533 41.4199 2.21533 40.8299 2.14533C40.9299 2.17533 40.8999 2.20533 40.8599 2.23533C40.8999 2.23533 40.9199 2.32533 40.9599 2.36533L40.7099 2.34533C40.7799 2.49533 40.5499 2.47533 40.6299 2.61533L40.6599 2.55533C40.7099 2.75533 40.9999 2.82533 41.1299 3.02533C41.0799 2.80533 41.4899 3.15533 41.4299 2.82533C41.4799 2.84533 41.4499 2.90533 41.4999 2.93533C41.4699 2.83533 41.4999 2.78533 41.5799 2.77533V2.80533C41.7499 2.65533 41.8999 2.69534 42.1399 2.62534L42.0599 2.53533C42.1099 2.52533 42.1399 2.54533 42.1799 2.55533C42.1399 2.36533 42.0499 2.62533 41.9899 2.42533C42.1799 2.59533 42.3099 2.22534 42.4899 2.44534C42.5599 2.40534 42.3999 2.33533 42.4699 2.30533L42.5299 2.35533L42.4999 2.26534C42.5599 2.25534 42.6199 2.32534 42.6599 2.37534C42.6499 2.37534 42.6399 2.40533 42.6299 2.41533C42.7299 2.45533 42.7899 2.29533 42.8199 2.31533H42.7299C42.8899 2.14533 43.1699 2.10533 43.2999 1.88533L43.2599 1.84533C43.3699 1.68533 43.4099 1.84533 43.5499 1.72533V1.74533C43.5499 1.67533 43.5899 1.63533 43.6399 1.61533C43.6199 1.69533 43.7699 1.69533 43.7399 1.78533C43.8599 1.61533 43.7899 1.67533 43.8199 1.43533L43.8799 1.51534C43.8799 1.42534 43.8799 1.38533 43.9499 1.32533C43.9099 1.42533 44.0499 1.43533 44.0099 1.56533C44.2499 1.68533 44.1999 1.27533 44.3799 1.52533C44.3799 1.25533 44.1799 1.44534 44.2099 1.37534C44.1399 1.31534 44.2099 1.16533 44.2799 1.17533C44.3399 1.15533 44.4799 1.45533 44.6199 1.40533C44.6099 1.40533 44.6199 1.42533 44.5999 1.43533C44.6699 1.48533 44.6799 1.31533 44.7799 1.40533C44.7799 1.24533 44.8699 1.38534 44.8299 1.19534L44.7099 1.27533C44.7699 1.20533 44.7799 0.95533 44.9399 1.02533C44.9399 1.06533 44.9199 1.12533 44.8999 1.16533C44.9499 1.21533 44.9599 1.10533 45.0099 1.15533C45.0499 1.34533 44.8599 1.24533 44.8199 1.41533C44.8799 1.48533 44.9299 1.23533 44.9499 1.45533C44.9399 1.17533 45.0999 1.44533 45.1499 1.22533L45.1699 1.34533C45.1699 1.34533 45.1999 1.26533 45.2299 1.25533L45.2099 1.41533C45.2599 1.27533 45.3899 1.49533 45.4399 1.41533C45.2799 1.45533 45.3699 1.28533 45.2899 1.21533C45.4599 1.01533 45.4699 1.49533 45.6699 1.39533C45.6399 1.41533 45.5499 1.34533 45.5799 1.28533C45.6299 1.30533 45.6899 1.33533 45.7199 1.38533C45.8599 1.34533 45.6799 1.26533 45.7199 1.18533C45.7899 1.32533 45.7799 1.11533 45.8399 1.06533L45.8599 1.18533C46.0399 1.23533 45.8599 0.925333 46.0399 1.00533L45.9999 1.17533L46.0699 1.12534V1.26534C46.1399 1.15534 46.1699 1.17533 46.2599 1.20533C46.2299 1.12533 46.2499 0.985335 46.3299 0.975335C46.3899 1.04533 46.3099 1.09533 46.4199 1.06533C46.3999 1.14533 46.3799 1.23534 46.3299 1.12534L46.3099 1.24533C46.3699 1.32533 46.4399 1.25533 46.4799 1.24533C46.4699 1.24533 46.4499 1.24533 46.4399 1.21533L46.5799 1.04533C46.5799 1.04533 46.5799 1.12533 46.5799 1.16533C46.6099 1.15533 46.6299 1.09534 46.6699 1.08534C46.6699 1.18534 46.6699 1.28534 46.6099 1.33534L46.7499 1.21533C46.7499 1.21533 46.8199 1.32533 46.8099 1.36533C46.8899 1.41533 46.9999 1.18533 47.0999 1.25533C47.0999 1.23533 47.1199 1.21533 47.1399 1.20533C47.2399 1.23533 47.3099 1.34533 47.4399 1.23533L47.4799 1.41533C47.5699 1.38533 47.4199 1.18533 47.5699 1.13533C47.6799 1.09533 47.5899 1.28533 47.6199 1.34533C47.6799 1.26533 47.8099 1.09533 47.8799 1.25533C47.8399 1.27533 47.8199 1.25533 47.7899 1.25533L47.7999 1.24533ZM48.8399 1.49533C48.8399 1.49533 48.7399 1.55533 48.7599 1.49533C48.8399 1.38533 48.8299 1.44533 48.8399 1.49533ZM50.2599 2.38533C50.2599 2.38533 50.2199 2.36533 50.2399 2.31533C50.2599 2.32533 50.2699 2.34533 50.2599 2.38533ZM50.3099 7.42533C50.3799 7.40533 50.3499 7.40533 50.3099 7.42533ZM50.1899 7.48533C50.1899 7.48533 50.2099 7.51533 50.2299 7.52533C50.2099 7.49533 50.2299 7.47533 50.2499 7.45533C50.2199 7.44533 50.1899 7.44533 50.1899 7.48533ZM44.3499 0.475335L44.3799 0.495331C44.3799 0.495331 44.3499 0.505335 44.3499 0.475335Z" fill="white"/>
<path d="M50 2.32533C50 2.32533 50.03 2.29533 50.05 2.27533C50.03 2.27533 50.01 2.29533 50 2.32533Z" fill="white"/>
<path d="M50.25 5.49533C50.25 5.49533 50.3 5.48533 50.32 5.48533C50.29 5.47533 50.27 5.47533 50.25 5.49533Z" fill="white"/>
<path d="M49.9399 8.09533L49.9699 8.01534C49.9699 8.01534 49.9199 8.03533 49.8999 8.04533C49.9199 8.06533 49.9599 8.07533 49.9499 8.09533H49.9399Z" fill="white"/>
<path d="M48.96 8.03533C48.96 8.03533 48.95 8.05533 48.95 8.06533L48.99 8.10533C48.99 8.10533 49.01 8.01533 48.96 8.03533Z" fill="white"/>
<path d="M49.6 7.87534C49.52 7.81534 49.51 7.87533 49.49 7.91533C49.58 8.01533 49.59 7.94534 49.59 7.87534H49.6Z" fill="white"/>
<path d="M49.49 7.92533C49.49 7.92533 49.47 7.95533 49.46 7.96533C49.5 8.00533 49.48 7.96533 49.49 7.92533Z" fill="white"/>
<path d="M50.1499 7.64533C50.1499 7.64533 50.2399 7.73534 50.1999 7.72534C50.2799 7.82534 50.1899 7.49533 50.1499 7.64533Z" fill="white"/>
<path d="M49.33 7.67533L49.43 7.75533L49.37 7.66533L49.33 7.67533Z" fill="white"/>
<path d="M49.6499 7.44534L49.5699 7.48533C49.5699 7.48533 49.5899 7.51533 49.5899 7.52533C49.6299 7.49533 49.6799 7.46534 49.6499 7.44534Z" fill="white"/>
<path d="M49.5899 7.52533C49.5899 7.52533 49.5599 7.56533 49.5599 7.58533C49.5599 7.57533 49.5799 7.54533 49.5899 7.52533Z" fill="white"/>
<path d="M49.37 7.57533H49.41L49.45 7.53533L49.37 7.57533Z" fill="white"/>
<path d="M50.2099 6.77533L50.2299 6.68533C50.2299 6.68533 50.1599 6.65533 50.1599 6.68533C50.1699 6.71533 50.1599 6.75533 50.2099 6.76533V6.77533Z" fill="white"/>
<path d="M49.78 6.78533C49.78 6.78533 49.84 6.79533 49.88 6.81533L49.76 6.72533L49.78 6.79533V6.78533Z" fill="white"/>
<path d="M49.8899 6.56533C49.8899 6.56533 49.8599 6.39533 49.8099 6.48533C49.8399 6.51533 49.8099 6.60533 49.8899 6.56533Z" fill="white"/>
<path d="M50.6999 5.55533L50.6899 5.57533L50.9299 5.67533L50.6999 5.55533Z" fill="white"/>
<path d="M50.3799 4.39533C50.3099 4.46533 50.5299 4.43533 50.4499 4.49533C50.5099 4.52533 50.5199 4.44533 50.5699 4.46533C50.5099 4.40533 50.5499 4.38533 50.3799 4.38533V4.39533Z" fill="white"/>
<path d="M50.5699 4.47533C50.5699 4.47533 50.5899 4.49533 50.6099 4.50533C50.5999 4.48533 50.5799 4.47533 50.5699 4.47533Z" fill="white"/>
<path d="M40.55 2.29533H40.46L40.55 2.33533V2.29533Z" fill="white"/>
<path d="M40.5499 2.52533L40.4399 2.40533L40.4899 2.54533C40.4899 2.54533 40.5099 2.50533 40.5499 2.52533Z" fill="white"/>
<path d="M48.8199 1.85533L48.8399 1.82533C48.8399 1.82533 48.8399 1.77533 48.8299 1.75533V1.85533H48.8199Z" fill="white"/>
<path d="M48.21 1.46533L48.22 1.47533L48.24 1.32533L48.21 1.46533Z" fill="white"/>
<path d="M47.5499 1.52533C47.5499 1.52533 47.6099 1.50533 47.6299 1.52533C47.5699 1.54533 47.5599 1.35533 47.5499 1.52533Z" fill="white"/>
<path d="M18.56 30.1053C18.51 30.0853 18.5 30.1953 18.49 30.2053C18.59 30.2053 18.56 30.0753 18.56 30.1053Z" fill="white"/>
<path d="M19.49 30.0153L19.47 30.0553L19.61 29.9553L19.49 30.0153Z" fill="white"/>
<path d="M20.33 30.0453C20.25 29.8753 20.03 30.0653 19.88 29.9953L19.86 29.9553L19.78 30.0953C19.97 30.0753 20.2 30.0053 20.33 30.0453Z" fill="white"/>
<path d="M20.82 30.3953C20.78 30.3253 20.92 30.3253 20.71 30.3853C20.71 30.3853 20.72 30.3953 20.73 30.4053C20.75 30.4053 20.78 30.4053 20.82 30.4053V30.3953Z" fill="white"/>
<path d="M20.7299 30.3953C20.7999 30.4453 20.6399 30.4053 20.7299 30.3953Z" fill="white"/>
<path d="M21.16 30.3253L21.04 30.3953C21.04 30.3953 21.18 30.4353 21.15 30.4653C21.27 30.4153 21.24 30.3753 21.15 30.3253H21.16Z" fill="white"/>
<path d="M21.2499 30.1753L21.1899 30.2153C21.1899 30.2153 21.2199 30.2353 21.2499 30.1753Z" fill="white"/>
<path d="M21.0699 30.2853L21.1999 30.2153C21.1999 30.2153 21.1699 30.1353 21.1399 30.2453C21.1399 30.1953 21.1199 30.2453 21.0699 30.2853Z" fill="white"/>
<path d="M20.9901 30.2653C20.9201 30.2353 20.83 30.2153 20.94 30.1453C20.71 30.1853 20.7601 30.3153 20.9901 30.2653Z" fill="white"/>
<path d="M20.37 29.8653L20.28 29.8153L20.21 29.8753C20.21 29.8753 20.38 29.9253 20.37 29.8753V29.8653Z" fill="white"/>
<path d="M21.94 30.2453C21.94 30.2453 21.87 30.1553 21.85 30.1153L21.77 30.1753C21.82 30.1853 21.92 30.1953 21.94 30.2453Z" fill="white"/>
<path d="M21.85 30.1153L21.96 30.0253C21.84 30.0453 21.83 30.0753 21.85 30.1153Z" fill="white"/>
<path d="M21.2401 29.9753C21.1801 30.0353 21.11 30.0953 21.05 30.1453C21.13 30.0953 21.2101 30.0353 21.2801 29.9653H21.2401V29.9753Z" fill="white"/>
<path d="M22.44 30.0853L22.4 30.1953L22.48 30.0153L22.44 30.0853Z" fill="white"/>
<path d="M22.76 29.9453C22.73 30.0353 22.88 30.0253 22.84 30.0953C22.93 30.0453 22.98 29.9653 23.02 29.8753C22.97 29.9453 22.88 29.9653 22.76 29.9453Z" fill="white"/>
<path d="M23.1 29.7453C23.1 29.7453 23.05 29.8253 23.03 29.8753C23.06 29.8453 23.08 29.8053 23.1 29.7453Z" fill="white"/>
<path d="M22.1899 29.9653C22.1899 29.9653 22.2399 30.0353 22.3199 30.0353L22.2399 29.9553L22.1899 29.9753V29.9653Z" fill="white"/>
<path d="M22.23 29.9453C22.28 29.9353 22.32 29.9153 22.34 29.9153C22.33 29.9153 22.29 29.9253 22.23 29.9453Z" fill="white"/>
<path d="M22.17 29.9653H22.18C22.18 29.9653 22.17 29.9553 22.17 29.9653Z" fill="white"/>
<path d="M21.59 29.9953C21.65 29.9153 21.79 29.8253 21.62 29.7653C21.58 29.8453 21.68 29.8753 21.59 29.9953Z" fill="white"/>
<path d="M22.0699 29.8653C22.0699 29.8653 21.9799 29.8853 21.9299 29.8853C21.9399 29.9153 21.9799 29.9453 21.9499 29.9853C21.9899 29.9553 22.0299 29.9153 22.0699 29.8653Z" fill="white"/>
<path d="M22.1199 29.8053L22.0699 29.8653L22.1199 29.8553V29.8053Z" fill="white"/>
<path d="M22.83 29.7653C22.87 29.7053 22.92 29.6653 22.99 29.6253C22.91 29.6453 22.83 29.6753 22.76 29.6953C22.76 29.7253 22.76 29.7953 22.83 29.7653Z" fill="white"/>
<path d="M22.54 29.8453H22.55C22.55 29.8453 22.53 29.8253 22.54 29.8453Z" fill="white"/>
<path d="M23.64 29.2653L23.62 29.2553L23.63 29.2753L23.64 29.2653Z" fill="white"/>
<path d="M22.74 29.6753C22.68 29.6753 22.65 29.7153 22.63 29.7553C22.67 29.7253 22.71 29.7053 22.76 29.6853C22.76 29.6653 22.76 29.6553 22.74 29.6753Z" fill="white"/>
<path d="M23.26 29.5953C23.26 29.5953 23.18 29.5953 23.14 29.5953C23.18 29.6153 23.26 29.6253 23.26 29.5953Z" fill="white"/>
<path d="M22.58 29.8553C22.58 29.8553 22.6201 29.7953 22.6301 29.7653C22.6001 29.7853 22.57 29.8053 22.55 29.8353C22.55 29.8353 22.57 29.8453 22.58 29.8553Z" fill="white"/>
<path d="M23.46 28.5753C23.51 28.6653 23.44 28.8353 23.27 28.7953C23.2 28.9153 23.43 29.1653 23.63 29.2653C23.61 29.2253 23.6 29.1953 23.67 29.0653C23.61 29.0553 23.35 29.1053 23.4 28.9753C23.53 28.8553 23.54 28.9253 23.64 28.9253C23.52 28.8653 23.72 28.6453 23.59 28.5153L23.5 28.6553C23.5 28.6553 23.5 28.5653 23.45 28.5653L23.46 28.5753Z" fill="white"/>
<path d="M23.39 29.3753L23.35 29.4153C23.42 29.3953 23.48 29.4153 23.59 29.4353C23.65 29.3453 23.65 29.3053 23.64 29.2753L23.39 29.3953V29.3753Z" fill="white"/>
<path d="M23.1199 29.5353C23.1199 29.4153 23.2099 29.3153 23.0799 29.2453C22.9399 29.3253 23.02 29.3753 22.95 29.4653C23.17 29.3153 22.9099 29.5553 23.1099 29.5153C23.0699 29.5553 23.03 29.5853 22.99 29.6053C23.04 29.5953 23.09 29.5853 23.14 29.5853C23.14 29.5853 23.12 29.5753 23.14 29.5753C23.14 29.5753 23.14 29.5453 23.14 29.5253C23.22 29.5053 23.16 29.5453 23.14 29.5653V29.5853L23.35 29.4053C23.29 29.4153 23.2299 29.4553 23.1199 29.5253V29.5353Z" fill="white"/>
<path d="M21.7 29.5053C21.7 29.5053 21.71 29.5153 21.71 29.5253C21.72 29.5053 21.73 29.4953 21.7 29.5053Z" fill="white"/>
<path d="M21.8201 29.5453C21.8201 29.5453 21.8001 29.6053 21.7401 29.6153C21.6801 29.5953 21.7301 29.5653 21.7101 29.5353C21.6801 29.5753 21.6101 29.6353 21.7301 29.6653V29.6453C21.8601 29.6653 22.0201 29.7553 22.0101 29.7653C21.9501 29.6853 21.9101 29.6253 21.8101 29.5553L21.8201 29.5453Z" fill="white"/>
<path d="M22.45 29.5453L22.63 29.4153L22.49 29.3653L22.52 29.4153C22.4 29.4353 22.45 29.4953 22.45 29.5353V29.5453Z" fill="white"/>
<path d="M23.7 29.3053L23.7299 29.4153C23.7399 29.3453 23.7499 29.2753 23.7599 29.2053C23.7399 29.2353 23.72 29.2753 23.7 29.2953V29.3053Z" fill="white"/>
<path d="M23.9299 29.1253L23.9699 29.2153L23.9999 29.1253H23.9299Z" fill="white"/>
<path d="M31.66 16.3753L31.7 16.4053C31.7 16.4053 31.67 16.3553 31.66 16.3753Z" fill="white"/>
<path d="M28.54 24.0553C28.67 24.0353 28.85 24.0253 28.75 23.9753L28.64 23.9353C28.62 23.9953 28.58 24.0353 28.54 24.0553Z" fill="white"/>
<path d="M30.4 19.8253H30.36C30.36 19.8253 30.4 19.9053 30.42 19.9353C30.42 19.9053 30.41 19.8653 30.4 19.8253Z" fill="white"/>
<path d="M30.04 19.5453L30.16 19.4753C30.16 19.4753 30.09 19.5053 30.04 19.5453Z" fill="white"/>
<path d="M32.96 13.8153L32.9 13.6953C32.85 13.7953 32.92 13.7753 32.96 13.8153Z" fill="white"/>
<path d="M26.0999 27.1753C26.1799 27.1453 26.2399 27.1053 26.2799 27.0653C26.1699 27.0953 26.0499 27.0953 26.0999 27.1753Z" fill="white"/>
<path d="M32.81 16.6953C32.81 16.6953 32.8 16.6253 32.78 16.6153C32.78 16.6553 32.78 16.6853 32.81 16.6953Z" fill="white"/>
<path d="M26.43 26.8953C26.43 26.8953 26.4 26.8953 26.38 26.9153C26.36 26.9753 26.33 27.0253 26.28 27.0753C26.36 27.0553 26.44 27.0053 26.43 26.9053V26.8953Z" fill="white"/>
<path d="M39.92 4.79533C39.92 4.79533 39.89 4.85533 39.87 4.88533C39.89 4.87533 39.9 4.84533 39.92 4.79533Z" fill="white"/>
<path d="M24.39 28.3153C24.39 28.3153 24.39 28.2753 24.37 28.2553C24.38 28.2753 24.39 28.2953 24.39 28.3153Z" fill="white"/>
<path d="M24.78 28.4853C24.78 28.4853 24.83 28.4753 24.86 28.4553C24.85 28.4553 24.82 28.4553 24.78 28.4853Z" fill="white"/>
<path d="M24.83 28.5153C24.83 28.5153 24.8 28.5353 24.78 28.5453C24.78 28.5653 24.8 28.5653 24.83 28.5153Z" fill="white"/>
<path d="M24.95 28.4053C24.95 28.4053 24.9 28.4453 24.87 28.4653C24.88 28.4653 24.89 28.4653 24.89 28.4653C24.9 28.4553 24.92 28.4353 24.95 28.4053Z" fill="white"/>
<path d="M35.33 10.4653C35.33 10.4653 35.33 10.4653 35.35 10.4653C35.35 10.3953 35.33 10.4153 35.33 10.4653Z" fill="white"/>
<path d="M28.4599 21.9753C28.5299 22.1153 28.4899 22.1553 28.4299 22.1953L28.7299 22.3053L28.4599 21.9753Z" fill="white"/>
<path d="M32.37 15.0453L32.21 15.1253C32.15 14.8953 32.27 14.8153 32.08 14.8653C32.37 15.0453 31.84 15.3753 32.12 15.5553L32.01 15.6053C32.01 15.6053 32.01 15.5653 32.03 15.5453C31.8 15.6253 32.18 15.7853 32.03 15.9753C31.97 16.0353 31.9 16.0653 31.89 15.9953L31.87 16.1953C31.87 16.1953 31.79 16.1953 31.82 16.1553L31.71 16.4153C31.74 16.4653 31.77 16.5853 31.77 16.6453C31.69 16.6853 31.76 16.5953 31.71 16.5953V16.7753C31.6 16.7853 31.59 16.6353 31.65 16.5453C31.28 16.5153 31.66 16.7053 31.34 16.8853L31.37 16.7353C31.15 16.7353 31.16 16.8653 30.97 16.9453C31.04 16.9453 31.4 16.7953 31.39 16.9853C31.34 17.0153 31.3 17.0653 31.32 17.1753C31.21 17.1153 31.2 17.2153 31.15 17.3153L31.01 17.2353C30.99 17.3653 31.07 17.3953 31.1 17.4953C31.02 17.6053 30.9 17.5653 30.79 17.5453C30.66 17.7253 31.04 17.5153 30.94 17.7453C30.8 17.8753 30.8 18.0153 30.78 18.2453C30.67 18.3253 30.71 18.1753 30.64 18.1953L30.7 18.3553C30.7 18.3553 30.65 18.3553 30.64 18.3353C30.64 18.4453 30.78 18.4153 30.74 18.5753C30.87 18.6953 30.37 18.7153 30.45 18.9753C30.39 18.9953 30.38 18.9053 30.31 18.8853C30.3 19.1653 30.29 19.1153 30.34 19.3853L30.16 19.4853C30.33 19.4353 30.37 19.6453 30.4 19.8253C30.47 19.8153 30.54 19.8053 30.57 19.7953L30.53 20.0353C30.53 20.0353 30.46 19.9953 30.42 19.9353V19.9953C30.34 20.0353 30.28 19.9553 30.23 19.8553C30.27 19.8553 30.31 19.8453 30.36 19.8353C30.3 19.7353 30.24 19.6353 30.15 19.6053C30.15 19.6253 30.15 19.6653 30.15 19.6953C30.13 19.6653 30.12 19.6453 30.1 19.6453C30.08 19.6453 30.1 19.6853 30.12 19.7353L29.94 19.6953L29.99 19.7453L29.74 19.9453C29.79 20.2253 29.92 20.5153 29.81 20.8553C29.74 20.7153 29.64 20.7353 29.51 20.6453C29.7 20.6453 29.58 20.3853 29.7 20.2453C29.64 20.3153 29.59 20.2653 29.58 20.2253L29.55 20.5753C29.44 20.5053 29.43 20.5753 29.35 20.6253C29.6 20.6953 29.37 20.9153 29.37 21.0653C29.29 21.0253 29.24 20.9553 29.33 20.8353C29.08 20.8853 29.47 21.1753 29.24 21.2353C29.26 21.2053 29.28 21.1953 29.25 21.1553C29.27 21.2753 29.1 21.4253 29.07 21.3453L29.09 21.3153C28.93 21.5153 28.69 21.9753 28.85 22.1153C28.83 22.1053 28.65 21.9553 28.62 21.9153L28.98 22.6753C28.85 22.5453 28.4 22.4353 28.42 22.2053C28.37 22.2453 28.3 22.2853 28.28 22.4253C28.32 22.4053 28.56 22.4853 28.54 22.5353C28.28 22.5553 28.39 22.5653 28.14 22.6353C28.21 22.6053 28.41 22.8153 28.35 22.8953C28.32 22.8553 28.11 22.7453 28.1 22.7053L28.2 23.0653C28.2 22.9853 28.01 22.9253 27.91 22.9253C27.97 22.9253 27.79 23.0953 27.78 23.1653L27.89 23.1153C27.71 23.3253 28.07 23.5653 27.9 23.7753C27.87 23.7153 27.65 23.5053 27.54 23.6053C27.62 23.7353 27.95 24.2253 27.9 24.4953H27.81L27.78 24.6953C27.67 24.4753 27.48 23.9453 27.44 23.7053C27.33 23.7553 27.34 23.6753 27.26 23.8053C27.17 23.8053 27.21 23.6753 27.23 23.6353L26.99 23.8953C27.14 23.9753 26.97 24.2153 27.09 24.2853L27.17 23.8653C27.32 23.9453 27.43 24.3253 27.26 24.5153C27.17 24.5253 27.04 24.3053 27 24.2753C27.03 24.3353 26.95 24.5353 26.91 24.5353V24.3953C26.77 24.4753 26.94 24.7153 26.71 24.7453C26.67 24.7853 26.43 24.7453 26.51 24.8153C26.72 24.8553 27.21 25.1953 27.28 25.3353C27.26 25.3353 26.94 25.4753 26.83 25.4653C26.65 25.4453 26.63 25.1353 26.48 25.1153C26.51 25.1453 26.53 25.2253 26.53 25.2553C26.46 25.2753 26.43 25.1453 26.37 25.2653C26.49 25.3853 26.19 25.4753 26.45 25.4053C26.41 25.5353 26.34 25.4953 26.25 25.6153C26.37 25.6453 26.46 25.9553 26.41 26.0853C26.38 26.0553 26.32 26.0353 26.29 26.0353C26.1 26.2253 25.95 26.2853 25.79 26.4753C25.74 26.4753 25.63 26.5253 25.61 26.4353C25.61 26.4853 25.63 26.5453 25.58 26.6053C25.37 26.6153 25.67 26.4653 25.47 26.4253C25.54 26.4953 25.44 26.6653 25.41 26.7853C25.55 26.8653 25.61 26.6253 25.63 26.4953C25.79 26.6353 25.83 26.9353 25.71 27.1853C25.6 27.3753 25.55 27.1553 25.54 27.2053C25.24 27.4653 25.56 27.7053 25.22 27.8353C25.03 27.8353 25.03 27.6453 24.95 27.5953C25.03 27.4353 25.19 27.4653 25.27 27.3853L25.13 27.4453C25.13 27.3753 25.19 27.2653 25.26 27.2553C25.1 27.2553 24.78 27.7153 24.47 27.8153C24.46 27.8853 24.42 27.9753 24.49 27.9953L24.55 27.9153C24.69 27.9353 24.51 28.1453 24.63 28.1053C24.58 28.2453 24.54 28.4353 24.36 28.5153L24.24 28.4153C24.24 28.4153 24.39 28.4153 24.4 28.3453C24.39 28.4553 24.05 28.3553 24.1 28.5653H24.27C24.21 28.7153 24.16 28.9453 24 29.0053C24.15 29.0853 24.02 28.9653 24.22 29.0453C24.01 28.9253 24.59 28.7953 24.31 28.7153C24.54 28.8053 24.53 28.6553 24.77 28.6853C24.73 28.6453 24.67 28.6453 24.79 28.5753C24.79 28.5553 24.79 28.5353 24.79 28.5253C24.75 28.5253 24.71 28.5253 24.69 28.5153C24.67 28.3753 24.84 28.2353 24.86 28.1453C24.94 28.1053 24.87 28.2153 24.94 28.2253L24.97 28.0853C25.05 28.1653 25.26 28.0853 25.16 28.2553L25.3 28.1453C25.43 28.1253 25.54 28.0353 25.57 27.9453C25.65 27.9053 25.63 27.7053 25.64 27.8253L25.78 27.5753L25.8 27.5953C26.01 27.4153 26.06 27.0753 26.4 26.9653C26.44 26.8753 26.47 26.7853 26.6 26.6853L26.69 26.7253C26.74 26.6153 26.99 26.5153 26.95 26.4153C27.24 26.4853 27.34 26.0053 27.5 25.8753L27.4 25.7953C27.49 25.6853 27.54 25.5553 27.61 25.3953L27.51 25.3353C27.53 25.1653 27.8 25.0753 27.93 24.8753C27.96 24.9153 27.91 24.9553 27.87 24.9753C28.24 24.8953 28.06 24.3853 28.36 24.2853C28.36 24.2053 28.4 24.1853 28.45 24.1553C28.45 24.1553 28.45 24.1653 28.45 24.1753L28.47 24.1553C28.47 24.1553 28.54 24.1253 28.57 24.1153C28.53 24.1153 28.5 24.1253 28.48 24.1453C28.51 24.1053 28.54 24.0353 28.56 23.9553L28.68 23.9953C28.68 23.9953 28.68 23.9953 28.68 23.9753C28.76 23.9353 28.66 23.8953 28.57 23.8753C28.57 23.8353 28.57 23.7953 28.57 23.7553C28.76 23.8153 28.62 23.5553 28.83 23.6053C28.77 23.5053 28.96 23.2553 28.81 23.1053C28.83 23.1153 28.86 23.1053 28.84 23.1453C28.9 23.0953 28.97 23.0353 28.96 22.9453L29.11 22.9953L29.03 22.7353C29.17 22.6953 29.24 22.6853 29.28 22.8353C29.27 22.5253 29.34 22.6253 29.3 22.3453L29.38 22.4053C29.42 22.3353 29.37 22.1653 29.46 22.1653C29.71 22.1153 29.93 21.4453 30.31 21.1553C30.01 21.0853 30.53 21.0453 30.34 20.9153C30.41 20.9253 30.48 20.8953 30.49 20.9853C30.55 20.7553 30.76 20.7453 30.67 20.5153C30.74 20.5253 30.73 20.6053 30.78 20.6053C30.78 20.5853 30.76 20.5153 30.81 20.5153C30.86 20.5153 30.84 20.5753 30.85 20.6153C30.96 20.4053 30.78 20.2853 30.62 20.1653C30.76 20.1153 30.78 20.0553 30.71 19.9153C30.79 19.9153 30.88 19.8853 30.83 20.0253C30.88 19.9553 31.16 19.6453 31.03 19.5553C31.08 19.5553 31.1 19.4653 31.09 19.4353C31.19 19.2853 31.21 19.2753 31.28 19.1153L31.23 19.1453C31.1 18.9853 31.26 18.9953 31.31 18.8553H31.33C31.61 18.6453 31.34 18.7153 31.64 18.5053L31.53 18.4653C31.32 18.3153 31.8 18.2853 31.81 18.0753L31.72 18.1053C31.69 17.9753 32.17 18.0253 32.25 17.9453C32.28 17.9453 32.26 17.9953 32.26 18.0253C32.53 17.8553 32.14 17.9153 32.21 17.7253C32.3 17.7253 32.38 17.8753 32.46 17.7553C32.55 17.7253 32.41 17.2753 32.64 17.1953C32.56 17.1953 32.49 17.1953 32.49 17.0953C32.54 16.9553 32.89 16.8753 32.78 16.6653C32.8 16.6653 32.82 16.6653 32.84 16.6653C32.84 16.5453 32.93 16.3153 32.87 16.1953C33.28 16.3053 33.02 15.4953 33.36 15.6853L33.51 15.3853L33.54 15.4153C33.67 15.2353 33.62 15.1253 33.58 15.0153C33.63 14.9853 33.64 15.0353 33.66 15.0453C33.88 14.8053 33.88 14.7753 33.85 14.4453L33.97 14.4853C33.94 14.3853 34.36 14.1853 34.39 13.8453C34.4 13.8453 34.42 13.8753 34.42 13.9053C34.47 13.5353 35.13 13.3553 34.8 13.0153L34.82 12.7653C34.64 13.0053 34.67 12.6253 34.55 12.6953C34.59 12.5853 34.82 12.5053 34.77 12.6353H34.74C34.92 12.8053 35 12.3653 35.13 12.4553C35.42 11.9453 35.81 11.5153 36.1 11.0553L35.91 11.0153L36.02 10.8553C36.08 10.8353 36.18 10.8753 36.1 10.9853C36.23 10.9853 36.14 10.7453 36.11 10.7253C36.31 10.5353 36.24 10.9253 36.29 10.8553L36.34 10.7553H36.31C36.29 10.6553 36.23 10.6053 36.31 10.4653C36.39 10.3953 36.43 10.4753 36.46 10.4453C36.47 10.4453 36.48 10.4453 36.5 10.3953L36.64 10.1953H36.47C36.47 10.0753 36.59 10.0153 36.4 10.0253C36.7 10.0153 36.94 9.30534 37.06 9.26534C37.05 9.08534 37.13 8.95533 37.23 8.80533C37.18 8.82533 37.03 8.76533 37.13 8.64533C37.38 8.87533 37.41 8.47533 37.68 8.49533C37.48 8.50533 37.88 8.09534 37.6 8.12534C37.69 8.02534 37.71 8.18533 37.83 8.14533C37.88 7.80533 38.27 7.61534 38.44 7.26534C38.41 7.23534 38.32 7.25533 38.3 7.14533L38.59 7.09533C38.61 7.01533 38.42 6.89533 38.62 6.86533C38.58 6.86533 38.52 6.86533 38.53 6.80533C39.12 6.29533 39.24 5.41533 40.01 5.03533C39.88 5.06533 39.91 5.00534 39.96 4.94534C39.91 4.97534 39.87 4.88533 39.82 4.85533L40.14 4.69534C40.04 4.54534 40.33 4.41533 40.23 4.29533L40.19 4.39533C40.12 4.17533 39.75 4.29533 39.56 4.13533C39.64 4.38533 39.06 4.27533 39.17 4.66533C39.1 4.68533 39.13 4.58533 39.07 4.57533C39.12 4.68533 39.09 4.76533 38.97 4.85533V4.82533C38.75 5.16533 38.57 5.25533 38.26 5.58533L38.38 5.62534C38.31 5.69534 38.27 5.69533 38.22 5.71533C38.31 5.90533 38.38 5.49533 38.49 5.68533C38.22 5.65533 38.11 6.24533 37.83 6.17533C37.75 6.29533 37.97 6.21533 37.89 6.33533H37.81L37.87 6.41533C37.8 6.48533 37.7 6.47534 37.64 6.44534C37.66 6.42534 37.66 6.37533 37.67 6.35533C37.53 6.41533 37.5 6.67534 37.45 6.69534L37.57 6.59533C37.41 6.97533 37.06 7.33533 36.98 7.75533H37.04C36.97 8.06533 36.86 7.92533 36.73 8.23533V8.21533C36.73 8.30533 36.71 8.38533 36.66 8.46533C36.65 8.36533 36.47 8.53533 36.47 8.40533C36.4 8.73533 36.47 8.58534 36.53 8.87534H36.43C36.46 8.97534 36.5 9.00533 36.43 9.15533C36.43 8.99533 36.26 9.17533 36.24 8.98533C35.89 9.17533 36.15 9.52533 35.81 9.50533C35.95 9.77533 36.09 9.32533 36.09 9.42533C36.2 9.40533 36.19 9.63533 36.11 9.71533C36.05 9.80533 35.73 9.71534 35.6 9.94534C35.62 9.92534 35.6 9.91533 35.61 9.88533C35.5 9.94533 35.58 10.1053 35.43 10.1553C35.53 10.2953 35.34 10.2953 35.5 10.4153L35.59 10.1753C35.56 10.3253 35.69 10.5553 35.47 10.7053C35.45 10.6653 35.44 10.5853 35.44 10.5253C35.35 10.5553 35.41 10.6553 35.32 10.6853C35.16 10.5653 35.44 10.3953 35.39 10.1953C35.28 10.2153 35.36 10.5153 35.22 10.3453C35.4 10.5753 35.05 10.5653 35.14 10.8253L35.04 10.7553C35.04 10.7553 35.06 10.8753 35.03 10.9153L34.95 10.7553C34.99 10.9553 34.7 10.9453 34.69 11.1153C34.84 10.8553 34.85 11.1253 34.99 11.0653C34.94 11.4653 34.61 11.0953 34.45 11.4853C34.46 11.4253 34.62 11.3353 34.62 11.4453C34.56 11.5053 34.47 11.5653 34.39 11.5853C34.27 11.8353 34.52 11.6053 34.52 11.7453C34.35 11.7453 34.5 11.8953 34.48 12.0253L34.38 11.9653C34.15 12.1953 34.56 12.1653 34.33 12.3653L34.24 12.1753L34.2 12.3253L34.1 12.2253C34.1 12.4153 34.06 12.4453 33.95 12.5653C34.04 12.5753 34.13 12.6953 34.06 12.8153C33.95 12.8653 33.99 12.7153 33.9 12.8953C33.86 12.8153 33.8 12.7253 33.94 12.7053C33.91 12.6753 33.9 12.6253 33.87 12.6053C33.75 12.6553 33.73 12.8253 33.69 12.8853C33.71 12.8653 33.73 12.8353 33.75 12.8353V13.1653C33.69 13.1853 33.68 13.1353 33.66 13.0853C33.64 13.1453 33.67 13.2053 33.64 13.2853C33.57 13.2153 33.48 13.1753 33.5 13.0453L33.46 13.3353C33.46 13.3353 33.29 13.3953 33.27 13.3553C33.14 13.4553 33.25 13.7753 33.09 13.9153C33.1 13.9353 33.11 13.9653 33.09 14.0053C32.98 14.1553 32.79 14.2453 32.8 14.5053L32.58 14.5353C32.53 14.7053 32.86 14.4953 32.77 14.7853C32.72 14.9953 32.6 14.7853 32.52 14.8153C32.55 14.9453 32.62 15.1953 32.4 15.2853C32.4 15.2153 32.45 15.1853 32.47 15.1253L32.37 15.0453ZM31.39 16.9853C31.39 16.9853 31.36 16.8253 31.44 16.8353C31.54 16.9453 31.46 16.9453 31.39 16.9853ZM30.04 19.9853C30.04 19.9853 30.06 19.9053 30.13 19.8853C30.12 19.9253 30.09 19.9653 30.04 19.9853ZM25.32 27.9553C25.42 27.9153 25.38 27.9253 25.32 27.9553ZM25.13 28.0453C25.13 28.0453 25.13 28.0853 25.16 28.0853C25.16 28.0553 25.18 28.0253 25.23 27.9953C25.2 27.9853 25.16 27.9853 25.14 28.0453H25.13ZM36.35 10.3553L36.3 10.3753C36.31 10.2853 36.33 10.3253 36.35 10.3553Z" fill="white"/>
<path d="M30.08 19.5753C30.08 19.5753 30.12 19.5753 30.15 19.5953C30.15 19.5753 30.12 19.5553 30.08 19.5753Z" fill="white"/>
<path d="M32.97 13.8353L32.98 13.8253L32.96 13.8153L32.97 13.8353Z" fill="white"/>
<path d="M26.4 25.1153C26.4 25.1153 26.47 25.0953 26.5 25.0953C26.48 25.0753 26.45 25.0753 26.4 25.1153Z" fill="white"/>
<path d="M24.43 28.9053L24.52 28.8053C24.52 28.8053 24.44 28.8353 24.4 28.8453C24.42 28.8653 24.46 28.8853 24.43 28.9053Z" fill="white"/>
<path d="M23.07 28.8853C23.07 28.8853 23.04 28.9053 23.03 28.9253L23.06 28.9753C23.13 28.9353 23.15 28.8653 23.07 28.8853Z" fill="white"/>
<path d="M24.09 28.6553C24.02 28.5753 23.98 28.6553 23.91 28.7153H23.92C23.98 28.8353 24.03 28.7453 24.08 28.6553H24.09Z" fill="white"/>
<path d="M23.9 28.7353C23.9 28.7353 23.86 28.7753 23.83 28.7853C23.85 28.8353 23.86 28.7853 23.9 28.7353Z" fill="white"/>
<path d="M24.98 28.2653C24.93 28.2653 25.04 28.3853 25 28.3653C25.05 28.4953 25.12 28.0553 24.98 28.2653Z" fill="white"/>
<path d="M23.83 28.4253L23.93 28.5053L23.91 28.3953L23.83 28.4253Z" fill="white"/>
<path d="M24.4399 28.0753L24.3099 28.1353C24.3099 28.1353 24.3099 28.1753 24.3099 28.1953C24.3799 28.1453 24.4699 28.0953 24.4399 28.0753Z" fill="white"/>
<path d="M24.31 28.1953C24.31 28.1953 24.24 28.2553 24.24 28.2853C24.26 28.2653 24.3 28.2353 24.31 28.1953Z" fill="white"/>
<path d="M23.97 28.2853L24.02 28.2753L24.1 28.2253L23.97 28.2853Z" fill="white"/>
<path d="M25.55 27.0553L25.63 26.9253C25.63 26.9253 25.56 26.8953 25.53 26.9453C25.53 26.9953 25.5 27.0453 25.54 27.0553H25.55Z" fill="white"/>
<path d="M24.98 27.1453C24.98 27.1453 25.05 27.1453 25.09 27.1653L24.98 27.0553V27.1453Z" fill="white"/>
<path d="M25.26 26.8053C25.26 26.8053 25.32 26.5653 25.2 26.7053C25.22 26.7453 25.14 26.8753 25.26 26.8053Z" fill="white"/>
<path d="M26.88 25.1953L26.85 25.2253L27.06 25.3753L26.88 25.1953Z" fill="white"/>
<path d="M27.54 23.2153C27.39 23.3253 27.65 23.3353 27.49 23.4253C27.52 23.4953 27.62 23.3553 27.64 23.4253C27.64 23.3053 27.71 23.2753 27.54 23.2253V23.2153Z" fill="white"/>
<path d="M40.27 4.54533L40.38 4.48533L40.27 4.49533V4.54533Z" fill="white"/>
<path d="M40.25 4.26534L40.39 4.34533L40.31 4.20533C40.31 4.20533 40.28 4.27534 40.24 4.26534H40.25Z" fill="white"/>
<path d="M30.95 17.1053L30.9799 17.1353C30.9799 17.1353 31.04 17.1153 31.07 17.0753L30.95 17.1153V17.1053Z" fill="white"/>
<path d="M31.8101 15.7853L31.8 15.8053L31.9501 15.8353L31.8101 15.7853Z" fill="white"/>
<path d="M32.29 14.5353C32.29 14.5353 32.26 14.6553 32.22 14.6953C32.25 14.5753 32.45 14.6153 32.29 14.5353Z" fill="white"/>
<path d="M2.05003 50.7453C1.99003 50.6553 1.93002 50.7453 1.90002 50.7453C2.04002 50.8753 2.07003 50.7253 2.05003 50.7453Z" fill="white"/>
<path d="M3.44 51.8953L3.38 51.9053L3.65 51.9953L3.44 51.8953Z" fill="white"/>
<path d="M4.75008 52.8953C4.72008 52.6553 4.23008 52.5853 4.03008 52.3653V52.3053L3.83008 52.3253C4.11008 52.5553 4.58008 52.7053 4.75008 52.8953Z" fill="white"/>
<path d="M5.34003 53.6753C5.32003 53.5853 5.55003 53.7053 5.16003 53.5653C5.17003 53.5753 5.18003 53.5853 5.19003 53.5953C5.22003 53.6153 5.27004 53.6353 5.35004 53.6753H5.34003Z" fill="white"/>
<path d="M5.19002 53.5953C5.27002 53.6953 5.02002 53.5153 5.19002 53.5953Z" fill="white"/>
<path d="M5.95998 53.9253L5.71997 53.8753C5.74997 53.9353 5.93997 54.0353 5.85997 54.0253C6.09997 54.0953 6.06998 54.0253 5.95998 53.9153V53.9253Z" fill="white"/>
<path d="M6.21997 53.8753H6.09998C6.09998 53.8753 6.13997 53.8953 6.21997 53.8753Z" fill="white"/>
<path d="M5.83008 53.8053C5.92008 53.8253 6.00008 53.8553 6.09008 53.8653C6.07008 53.8253 6.09008 53.7753 5.97008 53.8353C6.01008 53.7953 5.94008 53.8253 5.83008 53.8053Z" fill="white"/>
<path d="M5.71009 53.7153C5.61009 53.6253 5.47009 53.5253 5.71009 53.5753C5.30009 53.4053 5.30009 53.5453 5.71009 53.7153Z" fill="white"/>
<path d="M4.91003 52.7853L4.80003 52.6453L4.65002 52.6153C4.73002 52.6353 4.90003 52.8353 4.92003 52.7853H4.91003Z" fill="white"/>
<path d="M7.33997 54.4653C7.33997 54.4653 7.28998 54.3553 7.27998 54.3053C7.21998 54.3053 7.15998 54.3053 7.09998 54.3053C7.17998 54.3653 7.33997 54.4153 7.33997 54.4753V54.4653Z" fill="white"/>
<path d="M7.28003 54.2953H7.55003C7.33003 54.2253 7.28003 54.2553 7.28003 54.2953Z" fill="white"/>
<path d="M6.33001 53.7053C6.18001 53.7053 6.03001 53.7053 5.89001 53.6753C6.06001 53.7153 6.23001 53.7253 6.41001 53.7353L6.33001 53.7153V53.7053Z" fill="white"/>
<path d="M8.33004 54.6653L8.17004 54.7253C8.27004 54.6953 8.36004 54.6753 8.45004 54.6453C8.41004 54.6553 8.37004 54.6653 8.33004 54.6753V54.6653Z" fill="white"/>
<path d="M8.99001 54.7153C8.87001 54.7753 9.13 54.8553 9.01 54.8853C9.19 54.8853 9.35001 54.8353 9.49001 54.7953C9.34001 54.8153 9.18001 54.7953 8.99001 54.7153Z" fill="white"/>
<path d="M9.73 54.7253C9.67 54.7453 9.59 54.7653 9.5 54.7953C9.58 54.7853 9.66 54.7753 9.73 54.7253Z" fill="white"/>
<path d="M7.97998 54.3953C7.97998 54.3953 8.01998 54.4853 8.15998 54.5453L8.07998 54.4153C8.07998 54.4153 8.01998 54.4053 7.97998 54.3953Z" fill="white"/>
<path d="M8.08006 54.4053C8.19006 54.4353 8.26006 54.4553 8.29006 54.4553C8.26006 54.4553 8.20007 54.4353 8.07007 54.4053H8.08006Z" fill="white"/>
<path d="M7.96008 54.3853H7.99008C7.99008 54.3853 7.98008 54.3753 7.96008 54.3853Z" fill="white"/>
<path d="M6.93005 54.0053C7.09005 54.0053 7.40006 54.0353 7.14006 53.8453C7.02006 53.8853 7.17005 53.9853 6.93005 54.0053Z" fill="white"/>
<path d="M7.86005 54.2353L7.60006 54.1553C7.60006 54.1553 7.64006 54.2353 7.56006 54.2453L7.86005 54.2253V54.2353Z" fill="white"/>
<path d="M7.99998 54.2253L7.85999 54.2353L7.95999 54.2553L7.99998 54.2253Z" fill="white"/>
<path d="M9.25999 54.5953C9.37999 54.5553 9.50999 54.5653 9.65999 54.5653C9.49999 54.5353 9.34999 54.5053 9.18999 54.4953C9.16999 54.5253 9.08999 54.5853 9.25999 54.5953Z" fill="white"/>
<path d="M8.69006 54.5153H8.72006C8.72006 54.5153 8.69006 54.4953 8.69006 54.5153Z" fill="white"/>
<path d="M11.0801 54.5153L11.0601 54.5053V54.5153H11.0801Z" fill="white"/>
<path d="M9.17004 54.4753C9.06004 54.4453 8.98003 54.4753 8.91003 54.4953C9.00003 54.4953 9.09003 54.4953 9.19003 54.4953C9.20003 54.4853 9.20004 54.4753 9.17004 54.4753Z" fill="white"/>
<path d="M10.1301 54.6653C10.0701 54.6453 10.0001 54.6253 9.93005 54.6153C9.99005 54.6453 10.1101 54.6953 10.1301 54.6653Z" fill="white"/>
<path d="M8.74998 54.5453H8.72998C8.72998 54.5453 8.75998 54.5653 8.74998 54.5453Z" fill="white"/>
<path d="M8.75008 54.5453C8.81008 54.5353 8.86008 54.5153 8.91008 54.4953C8.84008 54.4953 8.77008 54.4953 8.71008 54.5153C8.72008 54.5153 8.74008 54.5353 8.75008 54.5453Z" fill="white"/>
<path d="M11.4301 53.7853C11.4301 53.8853 11.1401 54.0153 10.8801 53.9353C10.6401 54.0153 10.8201 54.3553 11.0601 54.4953C11.0601 54.4553 11.0601 54.4153 11.3201 54.3253C11.2201 54.2853 10.7301 54.2653 10.9401 54.1553C11.2801 54.0653 11.2201 54.1553 11.4001 54.1853C11.2501 54.0753 11.8101 53.9553 11.7101 53.7853L11.4201 53.8853C11.4201 53.8853 11.5101 53.8053 11.4201 53.7853H11.4301Z" fill="white"/>
<path d="M10.5501 54.5153L10.4401 54.5353C10.5701 54.5453 10.6601 54.5853 10.8301 54.6553C11.0101 54.6053 11.0401 54.5453 11.0601 54.5153C10.8801 54.5353 10.7001 54.5153 10.5201 54.5253L10.5601 54.5053L10.5501 54.5153Z" fill="white"/>
<path d="M9.95004 54.5453C10.04 54.4353 10.3 54.3853 10.14 54.2753C9.82005 54.2853 9.92004 54.3653 9.73004 54.4253C10.25 54.3853 9.58004 54.4853 9.95004 54.5453C9.85004 54.5653 9.75004 54.5753 9.67004 54.5753C9.76004 54.5853 9.85004 54.6053 9.94004 54.6153H9.93004C9.91004 54.6053 9.90004 54.5953 9.93004 54.6053H9.94004C9.94004 54.6053 9.95004 54.5753 9.96004 54.5653C10.11 54.5853 9.98004 54.5953 9.94004 54.6053V54.6253L10.46 54.5553C10.35 54.5453 10.21 54.5553 9.97004 54.5653L9.95004 54.5453Z" fill="white"/>
<path d="M7.46008 53.7053C7.46008 53.7053 7.47008 53.7253 7.46008 53.7353C7.50008 53.7353 7.51008 53.7253 7.46008 53.7053Z" fill="white"/>
<path d="M7.65001 53.8053C7.65001 53.8053 7.57002 53.8453 7.46002 53.8053C7.37002 53.7553 7.47002 53.7553 7.48002 53.7153C7.40002 53.7353 7.21002 53.7353 7.42002 53.8353H7.46002C7.65002 53.9053 7.88002 54.0853 7.85002 54.0953C7.81002 53.9853 7.77002 53.9153 7.66002 53.7953L7.65001 53.8053Z" fill="white"/>
<path d="M8.78003 54.2153L9.21003 54.1953L9.00002 54.0853V54.1453C8.77002 54.1053 8.81003 54.1753 8.78003 54.2153Z" fill="white"/>
<path d="M11.1401 54.5653L11.0901 54.6853L11.3301 54.4953L11.1401 54.5653Z" fill="white"/>
<path d="M11.7001 54.4853L11.6901 54.5853L11.8301 54.5053L11.7001 54.4853Z" fill="white"/>
<path d="M27.3301 30.8453L27.3601 30.7153C27.3401 30.7753 27.3401 30.8153 27.3301 30.8453Z" fill="white"/>
<path d="M26.97 31.6753L27.01 31.7153C27.01 31.7153 26.99 31.6453 26.97 31.6753Z" fill="white"/>
<path d="M23.3401 47.7853C23.5201 47.6853 23.7601 47.5853 23.6501 47.5453H23.5301C23.4701 47.6553 23.4101 47.7353 23.3401 47.7853Z" fill="white"/>
<path d="M25.65 38.8753L25.61 38.9153C25.61 38.9153 25.66 39.0153 25.69 39.0553C25.68 38.9953 25.67 38.9353 25.66 38.8753H25.65Z" fill="white"/>
<path d="M25.25 38.6253L25.38 38.4253C25.38 38.4253 25.3 38.5353 25.25 38.6253Z" fill="white"/>
<path d="M29.59 26.4753V26.2953C29.45 26.4853 29.55 26.4353 29.59 26.4753Z" fill="white"/>
<path d="M17.13 52.7453C17.29 52.7053 17.41 52.6653 17.51 52.6153C17.31 52.6553 17.14 52.6353 17.13 52.7453Z" fill="white"/>
<path d="M28.24 31.6253C28.25 31.5553 28.24 31.5153 28.22 31.5053C28.21 31.5853 28.21 31.6253 28.24 31.6253Z" fill="white"/>
<path d="M17.91 52.3953C17.91 52.3953 17.85 52.4053 17.82 52.4153C17.73 52.4853 17.63 52.5553 17.5 52.6153C17.65 52.5853 17.8 52.5353 17.9 52.3953H17.91Z" fill="white"/>
<path d="M41.4501 13.4053C41.4501 13.4053 41.4701 13.4053 41.4901 13.3853C41.4901 13.3753 41.4701 13.3853 41.4501 13.4053Z" fill="white"/>
<path d="M46.1101 11.0553C46.1101 11.0553 46.0101 11.1453 45.9501 11.1953C45.9801 11.1753 46.0301 11.1353 46.1101 11.0553Z" fill="white"/>
<path d="M13.93 54.0753C13.92 54.0953 13.82 54.1153 13.93 54.0753Z" fill="white"/>
<path d="M13.26 53.8153C13.26 53.8153 13.3 53.7753 13.29 53.7553C13.29 53.7853 13.28 53.8053 13.26 53.8153Z" fill="white"/>
<path d="M13.74 54.0753C13.74 54.0753 13.84 54.0753 13.89 54.0653C13.86 54.0653 13.82 54.0653 13.74 54.0753Z" fill="white"/>
<path d="M13.7801 54.1153C13.7801 54.1153 13.7101 54.1253 13.6801 54.1353C13.6801 54.1553 13.6801 54.1653 13.7801 54.1153Z" fill="white"/>
<path d="M14.08 54.0153C14.02 54.0353 13.95 54.0453 13.89 54.0553C13.91 54.0553 13.93 54.0553 13.92 54.0553C13.95 54.0453 14 54.0253 14.08 54.0053V54.0153Z" fill="white"/>
<path d="M34.9401 20.2453C34.9401 20.2453 34.9501 20.2453 34.9601 20.2353C35.0001 20.1153 34.9701 20.1653 34.9401 20.2453Z" fill="white"/>
<path d="M23.78 44.6253V44.6353L23.79 44.6253H23.78Z" fill="white"/>
<path d="M23.8501 44.2253C23.9201 44.4253 23.87 44.5153 23.8 44.6253H24.1401L23.86 44.2253H23.8501Z" fill="white"/>
<path d="M28.2601 28.8953L28.0301 29.1053C28.0601 28.7153 28.2301 28.5153 27.9801 28.6953C28.2501 28.8853 27.4801 29.7353 27.7601 29.9253L27.6101 30.0653C27.6101 30.0653 27.6201 29.9953 27.6501 29.9553C27.3301 30.2253 27.7501 30.3153 27.5001 30.7353C27.4101 30.8753 27.3101 30.9653 27.3201 30.8453L27.2401 31.2253C27.1901 31.3253 27.1501 31.2753 27.2001 31.1753L27.0101 31.7253C27.0301 31.8153 27.0401 32.0153 27.0401 32.1153C26.9401 32.2353 27.0401 32.0353 26.9801 32.0553L26.9401 32.3753C26.8101 32.4653 26.8301 32.1853 26.9201 31.9853C26.4901 32.1453 26.8901 32.2553 26.5001 32.8053L26.5601 32.5053C26.3201 32.6253 26.3001 32.8753 26.0801 33.1753C26.1701 33.1153 26.5901 32.6153 26.5601 32.9753C26.5001 33.0553 26.4501 33.1753 26.4601 33.3753C26.3401 33.3353 26.3101 33.5253 26.2601 33.7553L26.1101 33.6953C26.0901 33.9553 26.1701 33.9553 26.2001 34.1153C26.1101 34.3753 25.9801 34.4053 25.8601 34.4453C25.7201 34.8753 26.1301 34.1953 26.0301 34.7153C25.9001 35.0653 25.9101 35.3453 25.9201 35.7853C25.8201 36.0153 25.8301 35.7253 25.7701 35.8053L25.8601 36.0453C25.8501 36.0953 25.8101 36.0753 25.7901 36.0653C25.8101 36.2553 25.9501 36.1053 25.9401 36.4053C26.1001 36.5153 25.5801 36.9353 25.6901 37.3253C25.6301 37.4053 25.6001 37.2653 25.5401 37.2753C25.5501 37.7853 25.5401 37.7053 25.6001 38.1453L25.4001 38.4453C25.5901 38.2353 25.6301 38.5853 25.6701 38.9053C25.7401 38.8253 25.8201 38.7753 25.8601 38.7253C25.8401 38.8753 25.8501 39.0153 25.8401 39.1853C25.8001 39.2353 25.7601 39.1853 25.7101 39.0953C25.7101 39.1253 25.7201 39.1553 25.7301 39.1853C25.6401 39.3353 25.5701 39.2353 25.5001 39.0953L25.6301 38.9553C25.5501 38.8353 25.4901 38.6653 25.3901 38.6753C25.3901 38.6953 25.3901 38.8053 25.3901 38.8653C25.3701 38.8353 25.3501 38.8053 25.3301 38.8153C25.3101 38.8253 25.3301 38.8853 25.3601 38.9653L25.1601 39.0353L25.2201 39.0753L24.9901 39.6453C25.0801 40.1053 25.2601 40.5253 25.2001 41.2053C25.1101 41.0153 25.0001 41.1253 24.8501 41.0853C25.0501 40.9353 24.8901 40.5553 24.9901 40.2153C24.9401 40.3953 24.8701 40.3353 24.8601 40.2853L24.8801 40.9353C24.7601 40.8953 24.7601 41.0453 24.6801 41.1953C24.9501 41.1253 24.7501 41.6953 24.7701 41.9553C24.6801 41.9553 24.6101 41.8753 24.7001 41.5753C24.4501 41.8753 24.9001 42.0753 24.6701 42.3753C24.6801 42.2953 24.7001 42.2653 24.6701 42.2253C24.7101 42.4153 24.5601 42.8353 24.5101 42.7153V42.6353C24.4101 43.1353 24.1501 44.0753 24.3101 44.2253C24.2801 44.2253 24.0901 44.0853 24.0601 44.0353C24.2001 44.3853 24.3101 44.7453 24.4201 45.1253C24.2801 44.9853 23.7701 45.0953 23.8201 44.6753C23.7601 44.7753 23.6701 44.8953 23.6301 45.1453C23.6901 45.0853 23.9501 45.0653 23.9201 45.1753C23.6101 45.3653 23.7401 45.3253 23.4201 45.5853C23.5101 45.4953 23.7101 45.7453 23.6101 45.9153C23.5901 45.8653 23.3501 45.7953 23.3601 45.7253C23.3701 45.9053 23.3801 46.0853 23.3801 46.2753C23.3901 46.1453 23.1801 46.1453 23.0601 46.1953C23.1401 46.1853 22.8501 46.5353 22.8101 46.6553L22.9701 46.5153C22.6501 46.9353 23.0201 47.1753 22.6901 47.6153C22.6901 47.5253 22.4901 47.2753 22.3101 47.4753C22.3601 47.6553 22.5301 48.3453 22.2701 48.7853L22.1501 48.8053C22.0901 48.9253 22.0201 49.0353 21.9601 49.1453C21.9801 48.8253 22.0601 48.0353 22.1201 47.6653C21.9501 47.7753 22.0101 47.6453 21.8301 47.8853C21.7101 47.9153 21.8301 47.6853 21.8901 47.6153C21.7401 47.7853 21.5801 47.9453 21.4201 48.0953C21.5701 48.1853 21.1901 48.5853 21.3001 48.6653C21.4301 48.4453 21.5601 48.2253 21.6801 47.9953C21.8301 48.0753 21.7501 48.6453 21.3701 48.9753C21.2301 49.0153 21.2301 48.6953 21.1801 48.6653C21.1801 48.7553 20.9201 49.0653 20.8601 49.0653L20.9501 48.8553C20.7201 48.9953 20.7701 49.3253 20.4201 49.4153C20.3301 49.4853 20.0201 49.4553 20.0701 49.5453C20.3301 49.5853 20.7401 50.0153 20.7301 50.2053C20.6901 50.2253 20.1201 50.4453 19.9501 50.4353C19.7101 50.4253 19.9701 49.9753 19.7601 49.9653C19.7801 50.0053 19.7301 50.1153 19.7001 50.1553C19.5801 50.1953 19.6601 50.0153 19.4601 50.1753C19.5201 50.3353 19.0201 50.4753 19.4401 50.3653C19.2601 50.5553 19.2001 50.4953 18.9501 50.6753C19.0901 50.7153 18.9201 51.1353 18.7201 51.3153C18.7201 51.2753 18.6301 51.2553 18.5901 51.2453C18.1301 51.5253 17.8401 51.5953 17.4001 51.8253C17.3401 51.8153 17.1101 51.8753 17.1601 51.7653C17.1101 51.8253 17.0801 51.9053 16.9501 51.9853C16.6201 51.9853 17.2401 51.8053 16.9601 51.7553C16.9901 51.8553 16.6801 52.0653 16.5001 52.2053C16.6301 52.3153 16.9701 52.0153 17.1301 51.8553C17.2301 52.0453 17.0001 52.4253 16.5501 52.7253C16.1901 52.9453 16.3301 52.6753 16.2701 52.7253C15.5401 53.0253 15.7901 53.3253 15.1101 53.4253C14.8201 53.3953 15.0101 53.1753 14.9201 53.1053C15.2201 52.9353 15.4401 53.0053 15.6501 52.9153L15.3601 52.9553C15.4401 52.8753 15.6501 52.7653 15.7701 52.7553C15.5201 52.7153 14.5401 53.2353 13.9201 53.2653C13.8301 53.3353 13.6701 53.4353 13.7601 53.4653L13.9401 53.3953C14.1401 53.4453 13.6301 53.6453 13.8801 53.6253C13.6501 53.7653 13.4001 53.9853 13.0201 53.9853L12.9201 53.8453C12.9201 53.8453 13.1701 53.8853 13.2601 53.8153C13.1201 53.9153 12.6701 53.7253 12.5501 53.9553L12.8201 54.0053C12.5801 54.1253 12.2901 54.3753 11.9501 54.3653C12.1201 54.4953 12.0201 54.3453 12.2901 54.4753C12.0501 54.2953 13.1301 54.3153 12.7601 54.1553C13.0401 54.3053 13.1901 54.1553 13.5401 54.2553C13.5201 54.2053 13.4101 54.1953 13.6801 54.1353C13.6801 54.1153 13.7101 54.0953 13.7301 54.0753C13.7401 54.0653 13.7301 54.0653 13.7301 54.0753C13.6601 54.0753 13.6001 54.0653 13.5701 54.0453C13.6701 53.8953 14.0901 53.7753 14.2201 53.6753C14.3801 53.6553 14.1701 53.7453 14.2701 53.7753L14.4501 53.6253C14.5101 53.7253 14.9301 53.6753 14.5801 53.8553C14.6901 53.8253 14.8001 53.7853 14.9101 53.7453C15.1201 53.7353 15.4001 53.6553 15.5501 53.5553C15.7101 53.5153 15.8901 53.2953 15.7901 53.4253C15.9501 53.3453 16.1101 53.2453 16.2601 53.1453L16.2801 53.1653C16.7801 52.9553 17.2001 52.5453 17.8301 52.4253C17.9701 52.3153 18.1301 52.2053 18.4001 52.0753L18.5001 52.1253C18.6801 51.9753 19.1501 51.8353 19.1801 51.6953C19.5501 51.7953 20.1501 51.1053 20.5101 50.9053L20.4501 50.7953C20.6801 50.6453 20.8801 50.4353 21.1201 50.1753L21.0301 50.1053C21.2001 49.8353 21.6701 49.6553 22.0001 49.2953C22.0001 49.3453 21.9201 49.4353 21.8301 49.4753C22.4301 49.2353 22.5301 48.4653 22.9801 48.1753C23.0301 48.0453 23.0901 47.9753 23.1701 47.9253C23.1701 47.9353 23.1601 47.9453 23.1601 47.9553C23.1601 47.9453 23.1801 47.9253 23.1901 47.9153C23.2401 47.8753 23.3001 47.8353 23.3501 47.8053C23.3001 47.8353 23.2501 47.8653 23.2101 47.8953C23.2701 47.8153 23.3501 47.6853 23.4101 47.5453H23.5501C23.5501 47.5453 23.5501 47.5453 23.5701 47.5253C23.6901 47.4253 23.5901 47.3953 23.4701 47.4153C23.5001 47.3453 23.5101 47.2753 23.5201 47.2153C23.7501 47.2153 23.6701 46.8553 23.9301 46.8153C23.9001 46.6753 24.2301 46.1253 24.0701 45.9553C24.1001 45.9553 24.1301 45.9253 24.0901 46.0053C24.1801 45.8653 24.2801 45.7353 24.2901 45.5753H24.4601L24.4201 45.1653C24.5901 45.0053 24.6701 44.9353 24.7001 45.1853C24.7201 44.6253 24.8001 44.7653 24.7701 44.2853L24.8601 44.3353C24.9101 44.1853 24.8601 43.9053 24.9601 43.8353C25.2701 43.5353 25.3801 42.1453 25.7301 41.3253C25.4101 41.4353 25.9401 40.9453 25.7301 40.8653C25.8101 40.8253 25.8701 40.7153 25.9001 40.8653C25.9301 40.4053 26.1401 40.2253 26.0201 39.8753C26.1001 39.8353 26.1001 39.9953 26.1501 39.9553C26.1501 39.9153 26.1201 39.8053 26.1701 39.7653C26.2201 39.7253 26.2101 39.8453 26.2301 39.9153C26.3101 39.4553 26.1101 39.3753 25.9301 39.2953C26.0701 39.0853 26.0701 38.9653 25.9901 38.7953C26.0801 38.7353 26.1801 38.6253 26.1201 38.9053C26.1801 38.7653 26.4901 37.9653 26.3301 37.9153C26.3801 37.8753 26.4001 37.6953 26.3901 37.6453C26.4801 37.2853 26.5101 37.2653 26.5701 36.9053L26.5201 36.9953C26.3601 36.8153 26.5401 36.6953 26.5701 36.4053H26.5901C26.8401 35.7853 26.5701 36.1153 26.8501 35.5153H26.7301C26.5001 35.4153 26.9801 34.9953 26.9801 34.6253L26.8801 34.7353C26.8501 34.5153 27.3701 34.2753 27.4501 34.0953C27.4801 34.0553 27.4701 34.1753 27.4701 34.2353C27.7501 33.7753 27.3301 34.1253 27.4101 33.7353C27.5101 33.6953 27.5901 33.8853 27.6901 33.6453C27.8001 33.5453 27.6601 32.8353 27.9501 32.5553C27.8601 32.6053 27.7701 32.6553 27.7901 32.4653C27.8801 32.1953 28.2901 31.8553 28.2101 31.5353C28.2401 31.5053 28.2601 31.5053 28.2801 31.5053C28.3201 31.2853 28.4901 30.8353 28.4401 30.6653C28.8901 30.6653 28.8601 29.3653 29.2001 29.5453L29.5001 28.9553L29.5301 28.9853C29.7501 28.6253 29.7601 28.4553 29.7501 28.2753C29.8201 28.2053 29.8201 28.2753 29.8301 28.3053C30.2201 27.8153 30.2301 27.7453 30.3501 27.2053L30.4801 27.2253C30.4901 27.0653 31.1301 26.5753 31.3601 25.9953C31.3601 26.0053 31.3801 26.0353 31.3601 26.0853C31.6301 25.4353 32.5901 24.9553 32.3901 24.4853L32.5801 24.0553C32.1901 24.4953 32.4801 23.8653 32.2701 24.0153C32.3901 23.8153 32.7501 23.6253 32.5901 23.8653L32.5401 23.8853C32.6601 24.1153 33.0601 23.3653 33.1801 23.4753C33.8901 22.5653 34.7501 21.8053 35.4701 20.9953L35.2501 20.9653L35.5101 20.6853C35.6101 20.6353 35.7101 20.6853 35.5201 20.8753C35.6901 20.8353 35.7601 20.4753 35.7301 20.4453C36.1401 20.0953 35.7501 20.7453 35.8601 20.6253L36.0001 20.4553L35.9501 20.4753C36.0101 20.2953 35.9601 20.2253 36.1901 19.9953C36.3601 19.8653 36.3401 19.9953 36.4001 19.9353C36.4001 19.9353 36.4301 19.9353 36.4901 19.8453L36.8201 19.5053L36.5901 19.5553C36.6801 19.3453 36.9001 19.2253 36.6301 19.2753C37.0301 19.2053 37.9101 18.0253 38.1101 17.9453C38.2401 17.6553 38.4501 17.4553 38.7101 17.2053C38.6301 17.2453 38.4701 17.1753 38.7101 16.9653C38.8601 17.2853 39.2201 16.6653 39.5701 16.6653C39.3001 16.7053 40.1901 16.0353 39.7801 16.1053C39.9901 15.9453 39.8801 16.1853 40.0701 16.1053C40.4401 15.5853 41.1401 15.2553 41.6901 14.7253C41.6701 14.6853 41.5301 14.7253 41.6101 14.5553L42.0601 14.4653C42.1601 14.3553 42.0001 14.1853 42.3101 14.1153C42.2601 14.1153 42.1801 14.1153 42.2501 14.0353C43.5501 13.2453 44.5401 11.9553 45.9901 11.3153C45.7701 11.3753 45.8801 11.2853 45.9901 11.1853C45.9001 11.2353 45.9201 11.0953 45.8701 11.0653L46.4801 10.7953C46.4701 10.5953 47.0101 10.3553 46.9701 10.1953L46.8301 10.3453C46.9301 10.0353 46.2801 10.2553 46.1601 10.0453C46.0501 10.3953 45.3401 10.2953 45.1401 10.8453C45.0201 10.8753 45.1701 10.7253 45.0801 10.7153C45.0501 10.8753 44.9401 10.9853 44.6901 11.1253V11.0853C44.0901 11.5953 43.7601 11.7353 43.0301 12.2453L43.1601 12.2953C43.0001 12.4053 42.9501 12.3953 42.8601 12.4353C42.8001 12.7153 43.2901 12.1053 43.2501 12.3853C42.9001 12.3553 42.2001 13.2353 41.8901 13.1353C41.6601 13.3253 42.0401 13.1853 41.8101 13.3753H41.7001V13.4853C41.5401 13.5953 41.4101 13.5853 41.3601 13.5453C41.4001 13.5253 41.4501 13.4453 41.4901 13.4053C41.2401 13.5053 40.9601 13.8853 40.8801 13.9153L41.1301 13.7653C40.5601 14.3353 39.7401 14.9253 39.2701 15.5653H39.3501C38.9801 16.0453 38.9601 15.8453 38.5201 16.3353V16.3053C38.4701 16.4353 38.3701 16.5753 38.2301 16.7053C38.3001 16.5453 37.9201 16.8353 38.0201 16.6353C37.6401 17.1753 37.8601 16.9253 37.7001 17.3753H37.5601C37.5201 17.5453 37.5401 17.5853 37.3401 17.8353C37.4701 17.5853 37.0901 17.8853 37.2201 17.5953C36.6001 17.9553 36.6701 18.4753 36.2401 18.5053C36.2201 18.9153 36.7501 18.1653 36.6701 18.3353C36.8301 18.2853 36.6301 18.6553 36.4701 18.7953C36.3201 18.9553 35.9801 18.8453 35.6101 19.2653C35.6501 19.2253 35.6401 19.2053 35.6701 19.1653C35.4801 19.2753 35.4701 19.5253 35.2201 19.6453C35.2401 19.8553 35.0001 19.8853 35.1201 20.0453L35.4201 19.6353C35.2701 19.8853 35.2701 20.2353 34.8701 20.5153C34.8701 20.4653 34.9201 20.3253 34.9601 20.2253C34.8301 20.2853 34.8101 20.4453 34.6701 20.5153C34.5501 20.3553 35.0401 20.0253 35.1301 19.6953C34.9701 19.7553 34.8501 20.2253 34.8001 19.9653C34.8601 20.3153 34.4101 20.3453 34.3301 20.7653L34.2601 20.6653C34.2401 20.7253 34.2001 20.8553 34.1201 20.9353V20.6853C34.0301 20.9953 33.6701 21.0453 33.5301 21.3153C33.9201 20.8553 33.7301 21.3153 33.9601 21.1653C33.5901 21.8353 33.4401 21.2753 32.9401 21.9653C33.0001 21.8653 33.2701 21.6853 33.2001 21.8553C33.0801 21.9653 32.9001 22.0953 32.7901 22.1353C32.4501 22.5853 32.9401 22.1453 32.8401 22.3753C32.6101 22.4253 32.7101 22.6253 32.5901 22.8453L32.5001 22.7753C32.0401 23.2253 32.5901 23.0653 32.1601 23.4553L32.1801 23.1653L32.0301 23.4253L31.9601 23.2953C31.8401 23.6153 31.7601 23.6753 31.5301 23.9053C31.6401 23.9053 31.6801 24.0753 31.5101 24.2953C31.3401 24.4053 31.4801 24.1453 31.2601 24.4753C31.2601 24.3553 31.2401 24.2253 31.4301 24.1453C31.4101 24.1053 31.4301 24.0253 31.4001 23.9853C31.2101 24.1053 31.0701 24.3953 30.9901 24.5053C31.0301 24.4653 31.0701 24.4153 31.1101 24.3953L30.9101 24.9653C30.8201 25.0153 30.8301 24.9353 30.8501 24.8553C30.7901 24.9553 30.7901 25.0553 30.7001 25.2053C30.6501 25.1153 30.5601 25.0653 30.6601 24.8353L30.4301 25.3453C30.3701 25.3453 30.1701 25.5153 30.1801 25.4353C29.9601 25.6653 29.9101 26.1653 29.6301 26.4653C29.6301 26.4953 29.6301 26.5353 29.5901 26.6153C29.3601 26.9253 29.0801 27.1553 28.9601 27.6153L28.6801 27.7453C28.5301 28.0753 29.0501 27.5553 28.8001 28.0953C28.6501 28.4853 28.5901 28.1553 28.4801 28.2653C28.4601 28.4953 28.4301 28.8953 28.1301 29.1653C28.1601 29.0353 28.2301 28.9653 28.2801 28.8453L28.2601 28.8953ZM26.5501 32.9553C26.5501 32.8653 26.5301 32.6753 26.6201 32.6453C26.7201 32.7853 26.6301 32.8353 26.5501 32.9553ZM25.2901 39.4553C25.2601 39.3853 25.3001 39.2953 25.3701 39.1953C25.3701 39.2753 25.3401 39.3653 25.2901 39.4553ZM15.1301 53.5753C15.3301 53.5453 15.2601 53.5453 15.1301 53.5753ZM14.7401 53.6653C14.7401 53.6653 14.7201 53.7053 14.7401 53.7153C14.7601 53.6753 14.8401 53.6453 14.9401 53.6153C14.9001 53.5953 14.8501 53.5953 14.7401 53.6653ZM36.3601 19.8753L36.2901 19.9053C36.3801 19.7553 36.3701 19.8153 36.3601 19.8753Z" fill="white"/>
<path d="M25.29 38.6653C25.29 38.6653 25.34 38.6453 25.36 38.6453C25.35 38.6153 25.33 38.5953 25.29 38.6653Z" fill="white"/>
<path d="M29.6001 26.5053C29.6001 26.5053 29.6001 26.4753 29.5901 26.4753V26.5053H29.6001Z" fill="white"/>
<path d="M19.5701 49.9853C19.6401 49.9553 19.6901 49.9453 19.7301 49.9453C19.7201 49.9153 19.6701 49.9153 19.5701 49.9853Z" fill="white"/>
<path d="M12.73 54.4153L12.98 54.3353C12.86 54.3653 12.81 54.3553 12.74 54.3353C12.75 54.3653 12.81 54.3953 12.73 54.4053V54.4153Z" fill="white"/>
<path d="M10.46 53.9453C10.46 53.9453 10.38 53.9453 10.35 53.9653V54.0253C10.52 54.0253 10.62 53.9753 10.46 53.9553V53.9453Z" fill="white"/>
<path d="M12.4301 54.0753C12.3901 53.9753 12.2401 54.0553 12.0701 54.0953H12.1001C12.0701 54.2453 12.2501 54.1653 12.4301 54.0753Z" fill="white"/>
<path d="M12.03 54.0953C11.98 54.1053 11.92 54.1153 11.87 54.1153C11.86 54.1753 11.94 54.1153 12.03 54.0953Z" fill="white"/>
<path d="M14.28 53.8853C14.19 53.8853 14.27 54.0253 14.21 53.9953C14.16 54.1453 14.71 53.6853 14.28 53.8853Z" fill="white"/>
<path d="M12.23 53.7753L12.31 53.8853L12.39 53.7653L12.23 53.7753Z" fill="white"/>
<path d="M13.59 53.5553L13.31 53.6053C13.31 53.6053 13.29 53.6453 13.25 53.6653C13.42 53.6353 13.6 53.5953 13.59 53.5653V53.5553Z" fill="white"/>
<path d="M13.25 53.6553C13.16 53.6753 13.08 53.6953 13.03 53.7253C13.08 53.7153 13.18 53.6853 13.25 53.6553Z" fill="white"/>
<path d="M12.5901 53.6553L12.6801 53.6653L12.8701 53.6353L12.5901 53.6553Z" fill="white"/>
<path d="M16.41 52.5453L16.67 52.3853C16.67 52.3353 16.59 52.3453 16.5 52.4053C16.45 52.4653 16.35 52.5253 16.41 52.5453Z" fill="white"/>
<path d="M15.4401 52.5953C15.5301 52.5953 15.5401 52.6153 15.6001 52.6353L15.5501 52.4853L15.4401 52.5953Z" fill="white"/>
<path d="M16.22 52.2153C16.22 52.1653 16.56 51.9253 16.22 52.0853C16.22 52.1353 15.95 52.2953 16.22 52.2153Z" fill="white"/>
<path d="M20.2 50.0553L20.14 50.1053L20.3 50.3053L20.2 50.0553Z" fill="white"/>
<path d="M22.43 46.8153C22.19 47.0653 22.52 46.9753 22.27 47.1753C22.27 47.2753 22.47 47.0053 22.46 47.1053C22.53 46.8953 22.61 46.8253 22.42 46.8153H22.43Z" fill="white"/>
<path d="M22.4701 47.1053C22.4701 47.1053 22.4501 47.1753 22.4401 47.2153C22.4601 47.1553 22.4701 47.1253 22.4701 47.1053Z" fill="white"/>
<path d="M46.86 10.6353L47.08 10.5353L46.91 10.5553L46.86 10.6353Z" fill="white"/>
<path d="M47.09 10.2053L47.23 10.2953L47.25 10.0953C47.25 10.0953 47.14 10.2053 47.09 10.2053Z" fill="white"/>
<path d="M26.03 33.4953L26.06 33.5253C26.11 33.5053 26.12 33.4453 26.17 33.3453L26.03 33.4953Z" fill="white"/>
<path d="M27.31 30.5053L27.28 30.5553L27.46 30.5253L27.31 30.5053Z" fill="white"/>
<path d="M28.38 28.0153C28.32 28.1053 28.29 28.2353 28.23 28.3353C28.32 28.1153 28.56 28.0853 28.38 28.0153Z" fill="white"/>
</svg>
